<svg width="277" height="252" viewBox="0 0 277 252" fill="none" xmlns="http://www.w3.org/2000/svg">
<g clip-path="url(#clip0_21_306)">
<path opacity="0.5" d="M61.577 83.072C96 73.361 108.779 49.787 110.865 39.215C128.859 -1.90203 204.355 13.37 202.399 54.878C200.834 88.084 253.539 99.39 250.904 136.327C248.367 171.9 226.391 212.424 195.358 208.77C184.666 200.546 150.06 185.745 97.174 192.323C44.287 198.902 28.1972 157.733 26.7629 136.327C24.0246 122.622 27.154 92.783 61.577 83.072Z" fill="#9DB4E4"/>
<path opacity="0.5" d="M8 90C12.4183 90 16 86.4183 16 82C16 77.5817 12.4183 74 8 74C3.58172 74 0 77.5817 0 82C0 86.4183 3.58172 90 8 90Z" fill="#9DB4E4"/>
<path opacity="0.5" d="M256 209C260.418 209 264 205.418 264 201C264 196.582 260.418 193 256 193C251.582 193 248 196.582 248 201C248 205.418 251.582 209 256 209Z" fill="#9DB4E4"/>
<path opacity="0.5" d="M272 190C274.761 190 277 187.761 277 185C277 182.239 274.761 180 272 180C269.239 180 267 182.239 267 185C267 187.761 269.239 190 272 190Z" fill="#9DB4E4"/>
<path opacity="0.5" d="M118 11C120.761 11 123 8.76142 123 6C123 3.23858 120.761 1 118 1C115.239 1 113 3.23858 113 6C113 8.76142 115.239 11 118 11Z" fill="#9DB4E4"/>
<path opacity="0.5" d="M31 198C33.7614 198 36 195.761 36 193C36 190.239 33.7614 188 31 188C28.2386 188 26 190.239 26 193C26 195.761 28.2386 198 31 198Z" fill="#9DB4E4"/>
<path d="M68.035 70.458C68.602 69.443 69.21 68.441 69.993 67.581C70.567 66.944 70.986 65.787 71.945 65.726C72.424 65.692 72.897 65.854 73.349 66.017C83.162 69.524 92.846 73.451 101.976 78.475C102.719 78.888 103.482 79.314 104.042 79.951C105.731 81.853 103.86 84.148 102.975 86.003C101.881 88.292 100.787 90.587 99.7 92.875C97.512 97.459 95.331 102.036 93.143 106.619C92.967 106.992 92.778 107.378 92.461 107.635C91.502 108.427 90.09 107.676 89.064 106.978C86.538 105.245 83.844 103.769 81.028 102.578C74.558 99.842 67.407 98.563 61.552 94.683C61.025 94.338 60.491 93.938 60.228 93.363C59.924 92.686 60.066 91.907 60.221 91.183C61.774 83.938 64.422 76.924 68.035 70.458Z" fill="white"/>
<path d="M68.906 70.973C69.385 70.12 69.885 69.274 70.513 68.515C70.756 68.224 70.999 67.94 71.215 67.628C71.384 67.391 71.614 66.897 71.897 66.775C72.255 66.626 72.735 66.877 73.066 66.992C73.565 67.168 74.065 67.351 74.565 67.533C75.564 67.899 76.564 68.265 77.557 68.637C81.656 70.174 85.728 71.799 89.726 73.573C93.724 75.347 97.634 77.242 101.449 79.355C102.212 79.775 103.239 80.255 103.59 81.115C103.914 81.9 103.482 82.828 103.131 83.525C102.253 85.279 101.361 87.012 100.517 88.786C98.572 92.869 96.621 96.951 94.676 101.034C94.203 102.029 93.724 103.024 93.251 104.02L92.535 105.516C92.346 105.915 92.17 106.545 91.819 106.829C91.252 107.283 90.246 106.552 89.773 106.247C88.841 105.651 87.936 105.022 86.984 104.46C83.472 102.388 79.711 100.892 75.855 99.598C71.999 98.305 68.298 97.215 64.78 95.401C63.848 94.92 62.916 94.406 62.051 93.81C61.572 93.485 61.14 93.18 61.059 92.571C60.984 92.022 61.207 91.379 61.322 90.851C61.835 88.542 62.463 86.254 63.199 84.006C64.672 79.483 66.589 75.13 68.899 70.973C69.534 69.829 67.785 68.806 67.15 69.951C64.854 74.074 62.936 78.407 61.437 82.882C60.687 85.123 60.039 87.405 59.505 89.714C59.269 90.722 58.945 91.806 59.06 92.848C59.188 93.993 59.897 94.778 60.809 95.414C64.32 97.886 68.534 99.307 72.573 100.648C76.895 102.083 81.19 103.505 85.174 105.76C86.153 106.308 87.105 106.897 88.044 107.52C88.922 108.102 89.813 108.745 90.874 108.935C93.339 109.375 94.081 106.992 94.939 105.198C97.1 100.668 99.261 96.132 101.422 91.603C102.442 89.47 103.401 87.303 104.529 85.232C105.413 83.6 106.291 81.643 105.224 79.876C104.123 78.048 101.604 77.114 99.801 76.179C97.681 75.076 95.533 74.02 93.366 73.018C88.463 70.743 83.452 68.705 78.394 66.802C77.097 66.315 75.801 65.841 74.504 65.374C73.43 64.988 72.168 64.392 71.04 64.947C70.216 65.36 69.811 66.179 69.264 66.877C68.48 67.872 67.771 68.854 67.15 69.964C66.529 71.074 68.258 72.131 68.899 70.986L68.906 70.973Z" fill="white"/>
<path d="M70.371 68.082C70.689 67.344 71.134 66.159 71.931 65.793C72.883 65.36 73.815 66.267 74.693 66.748C76.848 67.933 79.029 69.077 81.224 70.194C85.465 72.354 89.766 74.406 94.061 76.45C97.728 78.197 101.388 79.951 105.055 81.697C104.529 83.965 103.441 86.105 101.929 87.872C103.225 87.98 104.34 89.192 104.333 90.492C104.333 91 104.272 91.663 104.745 91.846C105.217 92.029 105.629 91.481 105.839 91.02C107.054 88.387 108.27 85.753 109.479 83.119C109.715 82.605 109.958 82.043 109.816 81.494C109.654 80.892 109.08 80.506 108.547 80.181C97.235 73.322 85.492 67.181 73.403 61.812C72.546 61.433 71.634 61.047 70.695 61.162C69.703 61.284 68.852 61.975 68.298 62.808C66.691 65.211 65.833 68.448 64.78 71.135C63.564 74.209 62.355 77.283 61.14 80.357C59.472 84.588 57.804 88.82 56.129 93.051C55.852 93.749 55.575 94.5 55.751 95.225C56.034 96.376 57.291 96.951 58.405 97.364C69.588 101.501 80.197 107.757 90.86 113.146C92.015 113.729 93.386 114.318 94.534 113.728C95.297 113.343 95.743 112.53 96.134 111.765C97.971 108.224 99.808 104.683 101.638 101.142C101.388 100.716 100.713 100.783 100.335 101.108C99.957 101.433 99.768 101.921 99.457 102.307C99.146 102.693 98.599 102.997 98.167 102.754C98.451 102.246 99.714 100.689 99.376 100.059C99.133 99.598 98.187 100.844 97.728 100.98C97.256 101.122 96.709 101.007 96.27 101.244C95.945 101.42 95.75 101.752 95.574 102.076C94.52 103.952 93.318 105.875 92.535 107.879C91.65 107.703 90.678 107.06 89.847 106.674C88.949 106.254 88.044 105.834 87.146 105.414C85.343 104.575 83.547 103.735 81.744 102.889C78.144 101.203 74.552 99.504 70.959 97.798C68.602 96.68 66.252 95.557 63.969 94.297C63.071 93.803 61.403 93.187 60.768 92.381C60.134 91.575 60.573 90.77 60.944 89.917C62.923 85.34 64.895 80.77 66.873 76.193C68.041 73.492 69.21 70.783 70.378 68.082H70.371Z" fill="#001A52"/>
<path d="M71.242 68.597C71.465 68.068 71.668 67.473 72.026 67.019C72.485 66.437 73.005 66.897 73.511 67.215C74.822 68.035 76.206 68.732 77.57 69.45C80.474 70.98 83.412 72.442 86.356 73.877C92.393 76.816 98.471 79.687 104.529 82.578L104.063 81.433C103.549 83.546 102.597 85.496 101.193 87.161C100.585 87.879 101.03 88.779 101.908 88.894C103.036 89.043 103.252 90.086 103.3 91C103.354 92.002 103.921 92.984 105.055 92.882C106.338 92.767 106.798 91.298 107.257 90.316C107.885 88.949 108.52 87.581 109.148 86.213C109.708 84.988 110.579 83.654 110.802 82.314C111.005 81.129 110.377 80.215 109.438 79.558C107.135 77.96 104.576 76.633 102.145 75.238C97.235 72.429 92.251 69.761 87.2 67.222C84.627 65.929 82.034 64.67 79.427 63.451C78.171 62.862 76.915 62.286 75.645 61.711C74.376 61.135 73.1 60.404 71.735 60.188C69.115 59.761 67.515 61.812 66.468 63.918C65.367 66.146 64.678 68.549 63.773 70.858C61.646 76.315 59.472 81.752 57.324 87.202C56.777 88.597 56.223 89.991 55.676 91.379C55.204 92.578 54.501 93.884 54.704 95.218C55.069 97.588 57.851 98.224 59.722 98.949C65.003 101.007 70.101 103.498 75.132 106.091C80.163 108.685 85.127 111.399 90.178 113.945C91.238 114.48 92.393 115.035 93.609 114.974C94.824 114.913 95.797 114.196 96.472 113.187C97.235 112.036 97.802 110.702 98.437 109.477C99.099 108.197 99.761 106.917 100.423 105.638C101.111 104.311 101.8 102.984 102.489 101.657C102.719 101.217 102.631 100.797 102.334 100.425C101.807 99.775 100.862 99.687 100.132 100.039C99.781 100.208 99.518 100.458 99.275 100.763C99.126 100.953 98.68 101.873 98.417 101.779C98.62 102.273 98.822 102.774 99.025 103.268C99.579 102.341 100.524 101.332 100.416 100.174C100.348 99.483 99.849 98.908 99.119 98.955C98.437 99.003 98.073 99.524 97.553 99.883C97.033 100.242 96.324 100.045 95.75 100.37C95.047 100.77 94.689 101.562 94.304 102.239C93.298 103.993 92.299 105.733 91.542 107.615L92.792 106.904C91.988 106.714 91.306 106.274 90.577 105.909C89.611 105.428 88.618 104.995 87.646 104.541C85.843 103.701 84.046 102.862 82.243 102.016C78.549 100.282 74.855 98.542 71.161 96.789C69.298 95.902 67.434 95.015 65.61 94.047C64.949 93.695 64.3 93.329 63.625 93.004C63.004 92.706 62.247 92.422 61.734 91.941C61.133 91.379 61.802 90.431 62.065 89.822C62.484 88.854 62.902 87.892 63.314 86.924C64.125 85.042 64.942 83.16 65.752 81.284C67.575 77.053 69.406 72.828 71.229 68.597C71.742 67.412 70 66.376 69.48 67.574C67.744 71.603 66.002 75.624 64.266 79.653C63.389 81.684 62.511 83.722 61.633 85.753C61.234 86.667 60.843 87.581 60.444 88.495C60.046 89.409 59.451 90.411 59.431 91.433C59.397 93.16 61.045 94.013 62.389 94.663C64.111 95.496 65.772 96.437 67.494 97.276C71.445 99.213 75.436 101.061 79.414 102.93C81.615 103.966 83.81 104.995 86.012 106.017C87.112 106.532 88.22 107.026 89.314 107.554C90.279 108.021 91.191 108.61 92.245 108.861C92.825 108.996 93.278 108.678 93.494 108.15C94.007 106.877 94.676 105.672 95.351 104.48C95.709 103.85 96.067 103.214 96.432 102.591C96.742 102.056 97.006 102.124 97.607 102.036C98.086 101.961 98.41 101.785 98.782 101.488C98.917 101.379 99.079 101.264 99.194 101.135C99.254 101.074 99.329 101.02 99.396 100.966C98.809 100.127 98.471 99.91 98.403 100.309C98.228 100.472 98.046 101.061 97.904 101.284C97.701 101.603 97.472 101.907 97.282 102.239C96.931 102.828 97.282 103.525 97.89 103.729C98.647 103.986 99.423 103.742 99.997 103.2C100.24 102.97 100.429 102.679 100.612 102.402C100.713 102.253 100.855 102.083 100.936 101.928C101.044 101.711 101.037 101.995 100.916 101.846L100.76 100.614C99.538 102.977 98.316 105.333 97.087 107.696C96.472 108.874 95.871 110.059 95.25 111.237C94.73 112.225 94.21 113.126 92.954 112.875C91.799 112.645 90.705 111.921 89.672 111.393C88.544 110.817 87.423 110.228 86.309 109.646C84.06 108.468 81.811 107.276 79.562 106.091C75.065 103.729 70.54 101.406 65.894 99.334C63.611 98.312 61.295 97.357 58.958 96.477C58.249 96.213 57.088 95.888 56.764 95.103C56.399 94.202 57.385 92.571 57.702 91.758C59.654 86.816 61.606 81.867 63.557 76.924C64.483 74.582 65.455 72.253 66.306 69.876C67.055 67.791 67.717 65.651 68.879 63.749C69.412 62.869 70.175 62.016 71.303 62.151C72.539 62.3 73.802 63.085 74.923 63.593C77.253 64.649 79.576 65.733 81.879 66.85C86.491 69.077 91.043 71.42 95.54 73.871C98.066 75.252 100.578 76.66 103.07 78.109C104.272 78.806 105.461 79.511 106.656 80.221C107.243 80.573 107.885 80.892 108.425 81.305C109.053 81.785 108.743 82.266 108.459 82.903C107.858 84.223 107.243 85.536 106.636 86.85C106.311 87.561 105.98 88.265 105.656 88.976C105.515 89.28 105.379 89.585 105.238 89.89C105.163 90.045 104.718 90.709 104.745 90.871L105.346 91.088C105.339 90.953 105.332 90.817 105.339 90.682C105.339 90.445 105.325 90.221 105.292 89.984C105.211 89.443 105.015 88.928 104.704 88.475C104.042 87.5 103.063 86.992 101.922 86.843C102.158 87.418 102.401 88.001 102.638 88.576C104.265 86.647 105.433 84.412 106.028 81.955C106.129 81.548 105.967 81 105.562 80.81C100.402 78.346 95.23 75.895 90.077 73.41C87.484 72.165 84.897 70.898 82.331 69.605C79.765 68.312 77.253 67.134 74.876 65.665C73.829 65.015 72.674 64.27 71.425 64.907C70.398 65.428 69.926 66.559 69.5 67.554C68.994 68.745 70.736 69.781 71.249 68.576L71.242 68.597Z" fill="#001A52"/>
<path d="M173.242 49.903C172.749 52.422 171.972 54.886 170.932 57.236C170.385 58.468 169.716 59.72 168.602 60.479C164.463 63.309 158.871 60.039 155.873 56.924C153.61 54.568 151.949 51.386 151.517 48.129C151.328 46.687 153.185 46.098 154.11 45.13C155.184 44.013 156.028 42.672 156.588 41.23C156.953 40.296 157.709 38.353 157.365 37.344C156.994 36.227 155.771 36.118 154.927 35.313C153.462 33.918 152.537 31.934 152.516 29.903C152.51 29.023 152.678 28.082 153.266 27.425C154.049 26.545 155.427 26.376 156.521 26.802C157.257 27.093 157.824 27.594 158.358 28.17C158.945 28.806 158.939 29.03 159.742 28.549C160.35 28.183 160.87 27.534 161.228 26.938C161.336 26.755 161.842 25.184 161.89 25.171C163.672 24.663 165.219 23.37 166.043 21.711C166.867 20.045 166.961 18.035 166.299 16.301C172.222 19.666 179.556 20.418 186.039 18.332C185.938 25.049 185.829 31.779 185.073 38.454C184.796 40.926 184.391 43.485 183.013 45.557C181.102 48.434 177.462 49.917 174.032 49.605C170.601 49.294 167.434 47.351 165.239 44.683" fill="white"/>
<path d="M172.269 49.632C171.729 52.354 170.925 55.103 169.649 57.581C169.068 58.718 168.319 59.639 167.11 60.14C166.131 60.546 165.036 60.628 163.997 60.465C159.384 59.754 155.319 55.746 153.529 51.589C153.286 51.034 153.09 50.452 152.921 49.869C152.766 49.321 152.449 48.502 152.516 47.919C152.604 47.222 153.786 46.701 154.279 46.315C156.129 44.859 157.25 42.557 157.979 40.364C158.297 39.416 158.608 38.326 158.405 37.324C158.182 36.234 157.372 35.631 156.46 35.116C154.502 34.006 153.171 31.366 153.583 29.104C153.833 27.73 155.157 27.249 156.359 27.838C157.304 28.305 157.858 29.659 158.932 29.795C160.174 29.951 161.363 28.596 161.95 27.669C162.18 27.303 162.315 26.904 162.464 26.504C162.531 26.315 162.599 26.125 162.666 25.936C162.72 25.78 162.835 25.57 162.761 25.678L162.153 26.146C166.401 24.839 168.798 20.255 167.272 16.024L165.786 17.168C171.999 20.648 179.515 21.44 186.309 19.301L185.026 18.319C184.918 25.123 184.83 31.955 184.026 38.725C183.689 41.555 183.081 44.507 180.852 46.477C178.955 48.156 176.26 48.861 173.775 48.549C170.669 48.163 167.94 46.315 165.962 43.952C165.124 42.95 163.693 44.392 164.53 45.387C168.386 49.984 174.991 52.3 180.488 49.199C183.229 47.655 184.843 45.015 185.532 41.988C186.329 38.488 186.484 34.771 186.68 31.196C186.917 26.904 186.984 22.611 187.052 18.312C187.058 17.669 186.397 17.134 185.769 17.33C179.488 19.314 172.566 18.624 166.813 15.401C166.09 14.995 165.009 15.678 165.327 16.545C166.387 19.49 165.097 22.848 162.106 24.013C161.525 24.236 161.12 24.351 160.877 24.961C160.708 25.387 160.566 25.827 160.411 26.254C160.384 26.335 160.357 26.423 160.316 26.498C160.39 26.349 160.424 26.349 160.215 26.619C159.978 26.917 159.769 27.242 159.465 27.479C159.519 27.432 159.019 27.784 159.013 27.764L159.479 27.872L159.364 27.75C159.236 27.439 158.77 27.1 158.526 26.877C156.379 24.961 152.705 25.042 151.74 28.156C150.875 30.919 152.3 34.48 154.502 36.234C154.968 36.606 155.521 36.823 156.001 37.168C156.514 37.534 156.494 37.974 156.379 38.556C156.136 39.829 155.609 41.142 154.974 42.259C154.231 43.566 153.327 44.473 152.138 45.353C151.105 46.118 150.375 47.012 150.551 48.366C151.321 54.297 155.818 59.619 161.316 61.785C164.165 62.909 167.778 62.909 170.041 60.56C171.27 59.28 171.938 57.54 172.573 55.909C173.296 54.04 173.843 52.11 174.234 50.14C174.491 48.861 172.539 48.319 172.283 49.599L172.269 49.632Z" fill="#001A52"/>
<path d="M176.868 28.773C176.578 30.309 176.571 31.86 176.868 33.39C177.003 34.094 177.3 34.778 177.402 35.482C177.449 35.807 177.429 36.559 176.949 36.572C175.977 36.599 175.97 38.123 176.949 38.095C177.739 38.068 178.394 37.581 178.712 36.87C179.083 36.051 178.921 35.171 178.678 34.338C178.178 32.638 177.996 30.926 178.327 29.172C178.401 28.766 178.212 28.353 177.793 28.238C177.422 28.136 176.936 28.366 176.861 28.773H176.868Z" fill="#001A52"/>
<path d="M181.447 31.467C182.032 31.467 182.507 30.991 182.507 30.404C182.507 29.817 182.032 29.341 181.447 29.341C180.861 29.341 180.386 29.817 180.386 30.404C180.386 30.991 180.861 31.467 181.447 31.467Z" fill="#001A52" stroke="#001A52" stroke-miterlimit="10"/>
<path d="M170.574 30.986C171.219 30.986 171.742 30.462 171.742 29.815C171.742 29.168 171.219 28.644 170.574 28.644C169.929 28.644 169.406 29.168 169.406 29.815C169.406 30.462 169.929 30.986 170.574 30.986Z" fill="#001A52" stroke="#001A52" stroke-miterlimit="10"/>
<path d="M173.809 25.462C173.451 25.645 172.884 25.529 172.526 25.489C170.865 25.306 169.169 25.299 167.522 25.475C167.785 24.907 168.514 24.507 169.291 24.351C170.014 24.202 170.743 24.243 171.466 24.304C172.188 24.365 172.884 24.412 173.593 24.534C173.768 24.568 173.957 24.609 174.059 24.758C174.133 24.873 174.133 25.028 174.079 25.157C174.018 25.299 173.924 25.394 173.802 25.455L173.809 25.462Z" fill="#001A52"/>
<path d="M173.559 25.028C173.242 25.164 172.735 25.008 172.404 24.967C171.871 24.913 171.337 24.873 170.797 24.852C169.703 24.812 168.609 24.852 167.522 24.967L167.961 25.733C168.406 24.839 169.71 24.744 170.574 24.758C171.168 24.771 171.763 24.832 172.35 24.886C172.641 24.913 172.931 24.94 173.215 24.988C173.296 25.001 173.566 25.096 173.64 25.069C173.714 25.11 173.708 25.083 173.613 24.988C173.6 25.008 173.579 25.022 173.559 25.028C172.999 25.36 173.505 26.24 174.072 25.909C174.802 25.475 174.822 24.399 173.957 24.108C173.573 23.979 173.127 23.959 172.728 23.918C172.269 23.871 171.81 23.83 171.344 23.796C169.919 23.681 167.839 23.735 167.083 25.232C166.927 25.543 167.11 26.037 167.522 25.997C168.697 25.875 169.872 25.834 171.054 25.888C171.601 25.915 172.154 25.956 172.695 26.024C173.174 26.085 173.613 26.105 174.066 25.909C174.315 25.8 174.376 25.428 174.248 25.211C174.093 24.954 173.809 24.92 173.552 25.028H173.559Z" fill="#001A52"/>
<path d="M179.968 25.705C179.981 25.746 180.008 25.78 180.042 25.814C180.109 25.875 180.197 25.915 180.292 25.949C180.643 26.071 181.021 26.098 181.393 26.112C181.723 26.118 182.061 26.166 182.392 26.193C183.101 26.261 183.824 26.376 184.465 26.66C184.519 26.687 184.729 26.789 184.783 26.735C184.823 26.694 184.729 26.545 184.708 26.504C184.627 26.349 184.519 26.2 184.391 26.071C184.134 25.807 183.797 25.597 183.425 25.448C183.013 25.286 182.561 25.198 182.115 25.144C181.885 25.116 181.663 25.103 181.433 25.096C181.203 25.089 180.981 25.035 180.751 25.028C180.555 25.028 180.359 25.056 180.204 25.144C180.015 25.252 179.887 25.502 179.968 25.699V25.705Z" fill="#001A52"/>
<path d="M179.529 25.956C179.772 26.403 180.326 26.518 180.791 26.572C181.257 26.626 181.71 26.633 182.169 26.68C182.628 26.728 183.054 26.768 183.486 26.87C183.695 26.917 183.898 26.978 184.094 27.053C184.242 27.107 184.384 27.188 184.533 27.229C184.783 27.29 185.08 27.229 185.215 26.985C185.343 26.762 185.282 26.525 185.174 26.308C184.992 25.942 184.708 25.645 184.384 25.401C183.641 24.839 182.676 24.663 181.764 24.602C181.257 24.568 180.697 24.433 180.204 24.588C179.684 24.751 179.306 25.279 179.468 25.827C179.65 26.45 180.629 26.186 180.447 25.557C180.461 25.604 180.508 25.55 180.582 25.536C180.798 25.496 181.041 25.563 181.257 25.584C181.69 25.631 182.122 25.631 182.554 25.719C182.986 25.807 183.364 25.936 183.722 26.166C183.878 26.267 184.019 26.389 184.134 26.538C184.188 26.606 184.222 26.68 184.269 26.755C184.283 26.775 184.296 26.802 184.31 26.823C184.296 26.782 184.296 26.789 184.31 26.836V26.565V26.592C184.377 26.491 184.458 26.389 184.533 26.288L184.506 26.301L184.762 26.234C184.911 26.234 184.648 26.186 184.756 26.234C184.668 26.2 184.58 26.159 184.492 26.118C184.296 26.037 184.094 25.976 183.891 25.922C183.486 25.821 183.074 25.76 182.662 25.712C182.25 25.665 181.825 25.624 181.406 25.604C181.224 25.597 181.035 25.59 180.852 25.563C180.764 25.55 180.454 25.516 180.413 25.441C180.103 24.866 179.232 25.381 179.535 25.956H179.529Z" fill="#001A52"/>
<path d="M176.875 42.171C177.037 41.677 176.969 40.898 176.429 40.655C176.118 40.513 175.74 40.58 175.409 40.573C175.045 40.573 174.68 40.54 174.322 40.472C173.613 40.343 172.931 40.106 172.303 39.761C171.83 39.504 171.303 39.172 170.804 39.355C170.452 39.483 170.23 39.842 170.169 40.208C170.108 40.573 170.196 40.953 170.324 41.298C170.81 42.666 171.972 43.83 173.397 44.094C174.822 44.358 176.429 43.552 176.881 42.171H176.875Z" fill="#001A52"/>
<path d="M177.854 42.442C178.084 41.684 177.969 40.79 177.442 40.174C176.801 39.436 175.909 39.598 175.045 39.544C174.349 39.497 173.552 39.274 172.917 38.942C172.073 38.495 171.148 37.994 170.203 38.515C168.46 39.483 169.19 41.826 170.135 43.085C171.047 44.297 172.451 45.198 174.018 45.157C175.727 45.11 177.287 44.067 177.847 42.442C178.023 41.941 177.651 41.311 177.138 41.19C176.571 41.061 176.078 41.359 175.889 41.9C175.828 42.083 175.875 41.948 175.889 41.907C175.862 41.961 175.835 42.016 175.808 42.07C175.754 42.171 175.686 42.273 175.619 42.368C175.727 42.219 175.558 42.422 175.517 42.469C175.477 42.51 175.2 42.747 175.349 42.632C175.261 42.693 175.173 42.754 175.085 42.808C175.031 42.842 174.984 42.869 174.93 42.896C174.903 42.909 174.734 42.99 174.849 42.943C174.93 42.909 174.68 43.004 174.633 43.018C174.504 43.058 174.369 43.079 174.234 43.112C174.39 43.112 174.086 43.153 174.234 43.112C174.174 43.112 174.113 43.126 174.052 43.126C173.944 43.126 173.843 43.126 173.735 43.126C173.539 43.126 173.687 43.126 173.735 43.133C173.674 43.126 173.613 43.112 173.552 43.099C173.41 43.072 173.275 43.031 173.14 42.984C173.093 42.97 173.053 42.95 173.005 42.936C173.161 42.997 173.012 42.936 172.985 42.923C172.87 42.862 172.762 42.808 172.647 42.74C172.593 42.706 172.539 42.672 172.485 42.638C172.465 42.625 172.33 42.523 172.458 42.625C172.357 42.544 172.262 42.462 172.168 42.374C172.073 42.286 171.986 42.192 171.898 42.097C171.857 42.049 171.81 41.995 171.776 41.948C171.803 41.982 171.871 42.083 171.756 41.921C171.607 41.704 171.479 41.481 171.364 41.25C171.351 41.223 171.283 41.074 171.351 41.23C171.324 41.169 171.303 41.108 171.283 41.047C171.236 40.912 171.189 40.77 171.162 40.628C171.148 40.573 171.135 40.465 171.148 40.343C171.128 40.485 171.162 40.323 171.168 40.309C171.128 40.391 171.128 40.397 171.162 40.336C171.195 40.289 171.195 40.282 171.162 40.323L171.135 40.35C171.209 40.276 171.222 40.262 171.168 40.303C171.067 40.377 171.29 40.282 171.195 40.303C171.074 40.323 171.054 40.316 171.182 40.35C171.385 40.404 171.688 40.601 171.945 40.736C172.533 41.041 173.167 41.284 173.816 41.42C174.221 41.508 174.633 41.562 175.045 41.589C175.22 41.603 175.403 41.603 175.578 41.596C175.652 41.596 175.734 41.589 175.808 41.589C175.835 41.589 176.051 41.569 175.943 41.575C176.044 41.575 176.058 41.663 175.99 41.575C175.943 41.521 175.875 41.481 175.963 41.562C175.842 41.454 175.889 41.474 175.936 41.542C175.828 41.379 175.916 41.474 175.936 41.555C175.943 41.596 175.956 41.758 175.95 41.616C175.95 41.46 175.943 41.691 175.95 41.724C175.956 41.9 175.95 41.738 175.963 41.691C175.95 41.765 175.929 41.833 175.909 41.907C175.761 42.415 176.091 43.038 176.618 43.16C177.145 43.282 177.699 42.997 177.868 42.449L177.854 42.442Z" fill="#001A52"/>
<path d="M175.99 40.946C174.423 40.939 172.89 40.54 171.52 39.781C170.945 39.463 170.439 40.343 171.006 40.661C172.532 41.508 174.248 41.955 175.99 41.968C176.645 41.968 176.645 40.959 175.99 40.953V40.946Z" fill="white"/>
<path d="M157.554 32.043C157.804 31.23 157.649 30.303 157.135 29.632C156.622 28.962 155.852 28.59 155.028 28.576C154.765 28.576 154.508 28.813 154.522 29.084C154.536 29.355 154.745 29.585 155.028 29.592C155.069 29.592 155.116 29.592 155.157 29.592C155.17 29.592 155.292 29.605 155.218 29.592C155.143 29.578 155.265 29.599 155.278 29.605C155.319 29.612 155.359 29.626 155.407 29.632C155.474 29.653 155.542 29.673 155.609 29.693C155.623 29.693 155.731 29.741 155.67 29.714C155.609 29.687 155.717 29.734 155.724 29.741C155.792 29.775 155.866 29.815 155.927 29.856C155.954 29.876 155.987 29.896 156.014 29.917C156.129 29.998 155.947 29.849 156.048 29.944C156.102 29.991 156.156 30.039 156.204 30.093C156.231 30.127 156.264 30.154 156.291 30.188C156.298 30.194 156.372 30.289 156.332 30.235C156.291 30.181 156.372 30.296 156.372 30.289C156.393 30.323 156.413 30.35 156.433 30.384C156.474 30.458 156.514 30.526 156.548 30.607C156.521 30.54 156.548 30.594 156.548 30.634C156.561 30.668 156.575 30.709 156.582 30.743C156.602 30.824 156.622 30.905 156.636 30.986C156.642 31.034 156.649 31.081 156.636 31.007C156.636 31.054 156.642 31.095 156.649 31.142C156.649 31.217 156.649 31.291 156.649 31.366C156.649 31.406 156.649 31.44 156.642 31.481C156.642 31.542 156.656 31.406 156.642 31.501C156.622 31.589 156.602 31.677 156.575 31.765C156.494 32.016 156.669 32.327 156.926 32.388C157.203 32.449 157.466 32.307 157.547 32.036L157.554 32.043Z" fill="#001A52"/>
<path d="M158.52 29.626C158.344 29.233 158.182 28.833 157.939 28.502C157.601 28.041 157.358 27.466 156.865 27.148C156.413 26.856 155.825 26.728 155.299 26.68C154.981 26.647 154.603 26.633 154.292 26.714C153.982 26.796 153.698 27.012 153.347 26.978C153.09 26.951 153.003 26.606 152.894 26.383C152.631 25.841 152.388 25.293 152.179 24.731C151.753 23.607 151.443 22.442 151.24 21.257C150.761 18.448 150.909 15.529 151.719 12.794C152.192 11.183 152.928 9.59202 154.184 8.48802C155.44 7.38502 157.325 6.87701 158.844 7.58801C160.647 4.00601 164.111 1.31101 168.021 0.452008C171.932 -0.407992 176.206 0.601015 179.326 3.10601C179.941 3.60001 180.555 4.16902 181.325 4.32402C181.913 4.44602 182.52 4.30402 183.115 4.21602C186.127 3.76202 189.463 4.75101 191.313 7.17501C193.163 9.60502 193.055 13.498 190.705 15.448C192.083 15.577 193.19 16.863 193.339 18.244C193.488 19.626 192.805 21.007 191.772 21.934C190.739 22.855 189.395 23.37 188.031 23.634C187.477 23.742 186.802 23.776 186.451 23.336C186.248 23.085 186.214 22.754 186.181 22.435C186.046 21.115 185.911 19.802 185.775 18.481C179.34 20.066 172.364 19.287 166.428 16.342C167.272 17.784 167.265 19.653 166.516 21.129C165.746 22.645 164.611 24.013 163.105 24.832C162.855 24.968 162.403 25.035 162.214 25.259C161.815 25.719 161.998 26.762 161.95 27.317C161.89 28.156 161.761 28.989 161.572 29.808C161.478 30.228 161.349 30.675 161.018 30.946C160.647 31.257 160.087 31.271 159.654 31.068C159.06 30.783 158.783 30.228 158.52 29.646V29.626Z" fill="#001A52"/>
<path d="M98.842 68.901C97.931 69.416 97.188 70.174 96.458 70.919C91.725 75.773 86.991 80.628 82.263 85.489C81.507 86.267 80.697 87.161 80.683 88.251C80.656 90.208 83.02 91.169 84.175 92.747C86.059 95.326 84.465 99.192 85.93 102.029C86.363 102.862 87.065 103.681 86.903 104.602C86.775 105.353 86.045 105.909 85.289 106.017C84.532 106.125 83.769 105.854 83.108 105.469C82.115 104.879 81.318 103.986 80.805 102.957C80.541 102.429 80.3521 101.86 80.2511 101.278C80.1701 100.831 80.319 99.883 79.63 100.384C79.258 100.655 78.948 101.014 78.718 101.413C78.488 101.812 78.441 102.171 78.374 102.611C78.299 103.106 78.1581 103.539 78.2121 104.047C78.2591 104.507 78.428 104.947 78.678 105.34C79.042 105.915 79.42 106.599 79.17 107.229C78.455 108.996 75.463 107.933 74.497 107.026C73.592 106.173 73.12 104.893 73.248 103.654C72.937 103.959 72.964 104.46 72.931 104.893C72.836 106.166 71.81 105.861 71.101 105.238C70.101 104.365 69.554 102.997 69.682 101.677C69.601 102.246 69.52 102.808 69.439 103.376C68.696 103.451 67.933 103.133 67.461 102.55C67.008 101.995 66.866 101.25 67.015 100.553C66.974 100.709 66.974 100.885 66.914 101.034C66.495 101.982 65.63 100.384 65.462 100.011C65.124 99.267 65.029 98.441 65.09 97.635C65.212 95.963 65.907 94.392 66.495 92.848C67.636 89.849 68.933 86.917 70.358 84.04C71.783 81.162 73.336 78.353 74.997 75.604C76.658 72.855 78.401 70.194 80.231 67.574C83.027 63.58 86.079 59.639 90.097 56.877C93.271 54.69 96.985 53.302 100.814 52.869C102.509 52.679 104.272 52.679 105.872 53.275C108.607 54.297 110.478 56.938 111.315 59.741C111.916 61.738 112.058 63.823 112.085 65.895C112.119 68.183 111.835 68.678 109.479 68.712C106.014 68.766 102.111 67.039 98.849 68.881L98.842 68.901Z" fill="white"/>
<path d="M98.336 68.028C97.208 68.698 96.31 69.632 95.398 70.567C94.351 71.643 93.305 72.713 92.258 73.789C90.205 75.902 88.145 78.007 86.092 80.12C85.046 81.196 83.999 82.266 82.952 83.343C82.054 84.263 81.034 85.157 80.332 86.247C79.083 88.177 79.886 90.093 81.439 91.508C82.149 92.151 82.999 92.733 83.506 93.566C84.073 94.494 84.154 95.604 84.188 96.66C84.222 97.798 84.188 98.935 84.33 100.066C84.472 101.196 84.857 102.212 85.444 103.227C85.667 103.613 86.072 104.155 85.829 104.602C85.572 105.083 84.877 105.069 84.431 104.954C83.249 104.643 82.29 103.613 81.743 102.564C81.487 102.07 81.318 101.542 81.244 101C81.183 100.594 81.217 100.174 80.98 99.808C80.285 98.725 79.056 99.416 78.407 100.14C77.536 101.115 77.151 102.611 77.192 103.911C77.212 104.615 77.455 105.259 77.8 105.868C78.002 106.227 78.495 106.816 77.989 107.107C77.374 107.459 76.226 106.944 75.686 106.647C74.612 106.044 74.173 104.866 74.261 103.674C74.322 102.848 73.072 102.259 72.532 102.957C72.167 103.431 71.999 103.871 71.945 104.466C71.911 104.798 71.762 105.015 72.093 104.886C72.465 104.744 72.093 104.731 71.904 104.609C70.972 103.979 70.621 102.76 70.689 101.697C70.763 100.573 68.858 100.289 68.696 101.427C68.615 101.995 68.534 102.557 68.453 103.126L69.432 102.381C68.534 102.415 67.825 101.799 67.981 100.844C68.19 99.571 66.252 99.009 66.029 100.303L65.988 100.546L66.853 100.397C66.866 100.35 66.758 100.303 66.745 100.262C66.711 100.113 66.542 99.951 66.468 99.815C66.11 99.152 66.036 98.4 66.09 97.662C66.204 96.098 66.9 94.595 67.461 93.146C68.757 89.781 70.229 86.498 71.87 83.295C75.044 77.1 78.765 71.122 82.939 65.557C86.801 60.404 91.562 56.071 97.937 54.453C100.875 53.708 104.474 53.2 107.074 55.13C109.472 56.911 110.552 59.957 110.876 62.828C110.984 63.81 111.032 64.791 111.045 65.78C111.052 66.288 111.133 66.917 110.944 67.405C110.93 67.445 110.91 67.506 110.87 67.54C110.816 67.581 110.647 67.628 110.512 67.655C109.877 67.804 109.148 67.75 108.499 67.71C105.028 67.493 101.591 66.288 98.302 68.041C97.154 68.657 98.174 70.411 99.322 69.795C102.543 68.075 106.365 69.903 109.776 69.754C110.856 69.707 112.038 69.531 112.646 68.515C113.287 67.445 113.078 65.861 113.031 64.683C112.875 61.156 112.119 57.601 109.742 54.866C107.243 51.988 103.678 51.481 100.071 51.975C96.418 52.476 92.859 53.81 89.793 55.868C86.774 57.892 84.262 60.546 82.034 63.404C77.117 69.714 72.843 76.667 69.311 83.844C68.325 85.841 67.413 87.872 66.556 89.923C65.725 91.914 64.78 93.979 64.287 96.085C63.881 97.825 63.908 99.714 64.935 101.237C65.3 101.779 65.806 102.361 66.515 102.368C67.393 102.381 67.818 101.603 67.954 100.844L66.002 100.303C65.644 102.49 67.082 104.5 69.405 104.406C69.804 104.392 70.317 104.108 70.385 103.661C70.466 103.092 70.547 102.53 70.628 101.961L68.636 101.691C68.521 103.505 69.378 105.529 71.013 106.457C71.627 106.802 72.417 106.965 73.052 106.579C73.41 106.369 73.667 105.997 73.788 105.604C73.876 105.34 73.781 104.582 73.93 104.385L72.201 103.668C72.032 106.003 73.397 107.98 75.524 108.806C77.178 109.45 79.738 109.416 80.177 107.236C80.474 105.746 79.002 104.771 79.238 103.315C79.339 102.693 79.387 102.083 79.798 101.582C79.825 101.548 80.096 101.311 80.096 101.278C80.096 101.196 79.15 100.865 79.164 100.844C79.103 100.926 79.224 101.494 79.238 101.555C79.657 104.033 81.716 106.572 84.269 106.999C85.444 107.195 86.666 106.829 87.389 105.841C88.179 104.764 87.889 103.512 87.281 102.429C86.673 101.345 86.302 100.438 86.227 99.185C86.153 97.974 86.227 96.755 86.099 95.55C85.984 94.419 85.728 93.288 85.073 92.341C84.458 91.44 83.614 90.797 82.817 90.072C82.169 89.483 81.406 88.759 81.743 87.804C82.176 86.586 83.58 85.557 84.451 84.663C86.937 82.117 89.415 79.565 91.9 77.019C93.143 75.746 94.385 74.473 95.621 73.2C96.776 72.016 97.883 70.641 99.308 69.788C100.429 69.118 99.41 67.364 98.289 68.035L98.336 68.028Z" fill="#001A52"/>
<path d="M205.292 83.735C199.032 87.987 193.575 93.424 189.287 99.666C185.242 96.606 181.629 92.977 178.583 88.915C174.531 99.395 171.256 110.174 168.791 121.142C168.758 121.298 113.564 118.664 109.85 116.206C115.806 102.158 123.687 89.646 128.09 74.758C122.809 75.022 111.315 78.109 108.655 72.896C107.811 71.244 103.245 50.16 101.902 50.607C111.937 47.269 122.586 46.511 133.088 46.579C136.221 46.599 139.348 46.694 142.474 46.816C145.601 46.938 148.748 46.762 151.854 47.08C152.712 51.46 154.029 55.475 157.574 58.42C159.823 60.289 162.842 61.244 165.739 60.749C168.866 60.215 171.344 58.021 172.445 55.062C172.647 54.521 172.762 53.965 172.897 53.404C173.167 53.404 173.579 53.817 173.802 53.965C174.16 54.209 174.518 54.453 174.876 54.697C175.592 55.184 176.301 55.685 177.01 56.186C178.421 57.195 179.812 58.231 181.183 59.301C183.925 61.433 186.579 63.674 189.138 66.01C191.698 68.346 194.17 70.797 196.54 73.336C198.91 75.875 201.173 78.508 203.334 81.23C203.989 82.063 204.637 82.896 205.278 83.742L205.292 83.735Z" fill="#001A52"/>
<path d="M204.779 82.855C198.37 87.236 192.826 92.754 188.409 99.152L189.793 98.786C185.897 95.821 182.399 92.307 179.454 88.393C178.914 87.669 177.935 87.784 177.604 88.637C175.369 94.433 173.363 100.316 171.6 106.274C170.716 109.28 169.885 112.3 169.122 115.34C168.744 116.856 168.373 118.38 168.021 119.91C168.001 120.011 167.886 120.289 167.913 120.384L167.88 120.54L168.514 120.147C168.514 120.147 168.805 120.133 168.751 120.113C168.724 120.1 168.676 120.113 168.649 120.113C167.65 119.964 166.556 120.045 165.55 120.005C163.436 119.917 161.322 119.808 159.202 119.7C153.09 119.389 146.979 119.03 140.867 118.63C134.526 118.211 128.178 117.75 121.857 117.127C118.041 116.748 114.287 116.572 110.613 115.441C110.336 115.36 110.606 115.414 110.559 115.421C110.518 115.428 110.39 115.333 110.35 115.306L110.714 116.694C115.327 105.848 121.215 95.59 125.645 84.663C126.929 81.494 128.083 78.278 129.056 75.001C129.238 74.392 128.732 73.681 128.077 73.715C124.254 73.918 120.5 74.791 116.664 74.859C114.949 74.886 113.078 74.832 111.484 74.121C110.863 73.844 110.262 73.444 109.85 72.896C109.755 72.767 109.681 72.625 109.593 72.489C109.566 72.449 109.431 72.171 109.533 72.381C109.614 72.557 109.465 72.185 109.438 72.097C108.648 69.741 108.128 67.269 107.52 64.859C106.696 61.616 105.879 58.366 104.934 55.157C104.542 53.816 104.137 52.476 103.583 51.19C103.239 50.384 102.692 49.334 101.631 49.592C101.814 50.242 101.989 50.898 102.172 51.548C114.564 47.466 127.725 47.276 140.637 47.723C144.372 47.852 148.14 47.696 151.861 48.055L150.882 47.31C151.773 51.819 153.367 56.315 157.075 59.274C160.735 62.192 166.137 62.869 170.007 59.944C172.107 58.353 173.275 56.159 173.883 53.634L172.634 54.345C172.985 54.412 173.397 54.873 173.701 55.076C174.329 55.502 174.957 55.929 175.578 56.369C176.773 57.209 177.962 58.068 179.13 58.955C181.487 60.729 183.776 62.591 186.005 64.527C190.3 68.265 194.359 72.28 198.134 76.545C200.322 79.023 202.422 81.575 204.414 84.216C205.191 85.245 206.953 84.236 206.163 83.194C198.924 73.627 190.448 65.083 180.933 57.791C179.556 56.735 178.158 55.705 176.74 54.71C176.078 54.243 175.403 53.783 174.734 53.322C174.248 52.99 173.775 52.503 173.181 52.388C172.661 52.286 172.073 52.53 171.931 53.099C171.344 55.536 170.182 57.649 167.92 58.901C165.691 60.133 162.963 60.079 160.647 59.091C155.704 56.985 153.806 51.657 152.84 46.775C152.746 46.308 152.287 46.071 151.861 46.03C148.518 45.712 145.155 45.868 141.806 45.746C138.456 45.624 135.046 45.529 131.669 45.536C125.207 45.536 118.737 45.902 112.355 46.972C108.722 47.581 105.129 48.448 101.625 49.598C100.389 50.005 100.889 51.873 102.165 51.555C101.942 51.609 101.692 51.542 101.53 51.481C101.577 51.501 101.273 51.352 101.442 51.42C101.496 51.447 101.321 51.217 101.422 51.399C101.463 51.467 101.503 51.535 101.537 51.603C101.787 52.083 101.78 52.09 101.969 52.598C102.421 53.803 102.786 55.042 103.144 56.281C104.069 59.49 104.88 62.733 105.704 65.97C106.284 68.244 106.743 70.621 107.547 72.835C108.682 75.963 112.322 76.755 115.273 76.87C119.588 77.046 123.795 75.97 128.083 75.746L127.104 74.46C123.755 85.712 118.197 96.051 113.118 106.579C111.673 109.578 110.269 112.605 108.965 115.672C108.742 116.193 108.823 116.735 109.33 117.06C110.323 117.696 111.734 117.845 112.869 118.035C115.104 118.42 117.366 118.678 119.622 118.921C125.902 119.598 132.21 120.066 138.51 120.499C144.905 120.939 151.301 121.318 157.703 121.65C161.268 121.84 164.854 122.09 168.427 122.137C169.257 122.151 169.662 121.812 169.865 120.912C170.561 117.858 171.317 114.812 172.134 111.792C173.802 105.638 175.727 99.558 177.901 93.566C178.435 92.097 178.988 90.628 179.549 89.165L177.699 89.409C180.873 93.62 184.566 97.337 188.76 100.526C189.219 100.878 189.868 100.567 190.145 100.16C194.352 94.06 199.673 88.766 205.785 84.588C206.859 83.857 205.846 82.097 204.765 82.835L204.779 82.855Z" fill="#001A52"/>
<path d="M227.604 85.59C228.745 86.376 230.17 86.606 231.494 86.227C233.162 85.739 234.857 85.387 236.478 84.703C237.038 84.466 237.612 84.189 237.977 83.701C238.558 82.93 238.47 81.86 238.369 80.898C237.909 76.531 237.396 72.185 237.194 67.784C237.126 66.267 237.079 64.751 237.065 63.234C237.059 62.49 237.133 61.704 237.059 60.959C236.978 60.12 236.977 60.208 236.106 60.147C231.109 59.802 226.091 60.465 221.324 62.002C220.979 62.11 220.237 62.104 220.21 62.605C220.196 62.821 220.365 63.065 220.432 63.268C220.534 63.552 220.601 63.85 220.682 64.141C220.851 64.778 221.02 65.414 221.195 66.051C221.54 67.324 221.884 68.596 222.235 69.863C222.938 72.401 223.654 74.94 224.383 77.473C224.808 78.942 225.396 80.458 225.551 81.968C225.693 83.349 226.321 84.622 227.442 85.469C227.496 85.509 227.55 85.55 227.604 85.59Z" fill="white"/>
<path d="M227.098 86.471C228.165 87.154 229.427 87.52 230.697 87.398C231.967 87.276 233.324 86.796 234.573 86.437C235.823 86.078 237.221 85.692 238.24 84.873C239.26 84.053 239.503 82.909 239.456 81.704C239.334 78.766 238.828 75.814 238.571 72.882C238.315 69.951 238.146 66.89 238.092 63.884C238.071 62.693 238.335 61.237 237.936 60.093C237.592 59.091 236.505 59.152 235.627 59.104C232.723 58.942 229.812 59.125 226.942 59.599C225.524 59.829 224.126 60.14 222.742 60.519C222.114 60.695 221.493 60.919 220.858 61.068C220.426 61.176 220.007 61.257 219.662 61.575C218.744 62.435 219.527 63.742 219.791 64.731C220.189 66.213 220.588 67.703 221 69.185C221.877 72.388 222.735 75.611 223.728 78.786C223.978 79.578 224.234 80.377 224.41 81.19C224.558 81.873 224.585 82.577 224.781 83.255C225.173 84.588 225.99 85.665 227.104 86.471C228.219 87.276 229.178 85.475 228.124 84.717C227.368 84.175 226.882 83.363 226.665 82.469C226.382 81.311 226.267 80.147 225.916 78.996C225.193 76.613 224.504 74.223 223.836 71.826C223.154 69.395 222.485 66.958 221.83 64.514C221.709 64.053 221.634 63.126 221.31 62.767L221.222 62.571C220.858 63.038 220.838 63.207 221.155 63.085C221.216 63.099 221.418 63.038 221.466 63.024C222.641 62.726 223.789 62.334 224.977 62.056C227.375 61.508 229.819 61.183 232.277 61.102C233.446 61.061 234.614 61.081 235.782 61.149C235.856 61.149 236.41 61.25 236.498 61.196C236.343 61.305 236.1 60.675 236.025 60.763C235.958 60.837 236.073 61.325 236.073 61.454C236.086 61.833 236.073 62.219 236.059 62.598C235.971 67.622 236.485 72.652 237.011 77.635C237.153 78.982 237.376 80.35 237.423 81.711C237.443 82.225 237.45 82.781 237.092 83.187C236.687 83.654 235.904 83.864 235.343 84.067C234.094 84.514 232.797 84.819 231.521 85.171C230.245 85.523 229.211 85.428 228.117 84.724C227.023 84.02 226.004 85.773 227.098 86.477V86.471Z" fill="#001A52"/>
<path d="M207.885 87.947C206.69 89.531 205.494 91.115 204.299 92.699C206.764 89.436 209.344 86.295 212.2 83.356C213.645 81.867 215.145 80.431 216.698 79.05C217.454 78.38 218.184 77.974 218.373 76.944C218.562 75.915 218.238 74.873 217.866 73.979C217.373 72.781 216.684 71.663 216.333 70.418C215.982 69.172 216.022 67.71 216.88 66.741C217.643 65.882 218.906 65.597 220.041 65.76C221.175 65.922 222.222 66.477 223.208 67.073C224.221 67.682 225.295 68.481 225.443 69.653C225.598 70.844 224.633 71.982 223.485 72.327C222.337 72.672 221.081 72.368 220.007 71.84C220.837 72.07 221.945 72.192 222.708 72.598C223.383 72.957 223.37 73.613 223.572 74.372C224.059 76.186 224.545 78.007 225.024 79.822C225.335 80.993 225.652 82.165 225.963 83.336C226.274 84.507 226.436 85.069 225.646 86.078C222.627 89.951 219.608 93.823 216.597 97.696C214.186 100.79 210.053 103.112 206.041 102.72C203.192 102.435 200.666 100.817 198.269 99.246C196.925 98.366 195.574 97.479 194.23 96.599C193.872 96.362 193.474 96.064 193.433 95.638C193.4 95.259 193.67 94.927 193.92 94.643C195.986 92.327 198.228 90.167 200.632 88.197C201.564 87.432 203.171 85.658 204.346 85.38C205.103 85.204 205.494 85.841 206.116 86.396C206.264 86.531 207.892 87.94 207.871 87.967L207.885 87.947Z" fill="white"/>
<path d="M207.007 87.439C205.812 89.023 204.616 90.607 203.421 92.192C202.631 93.234 204.394 94.243 205.17 93.214C207.169 90.573 209.263 88.001 211.505 85.563C213.652 83.234 216.022 81.19 218.298 79.003C220.682 76.714 218.697 73.559 217.663 71.149C217.184 70.032 216.718 68.38 217.677 67.371C218.636 66.362 220.311 66.728 221.425 67.256C222.384 67.71 224.653 68.718 224.43 70.086C224.133 71.921 221.661 71.501 220.52 70.959C220.257 71.576 220 72.198 219.737 72.815C220.466 73.004 222.08 73.031 222.397 73.789C222.587 74.236 222.641 74.812 222.762 75.279C222.944 75.976 223.134 76.667 223.316 77.364C223.687 78.752 224.059 80.14 224.43 81.528C224.599 82.165 224.775 82.808 224.943 83.444C225.051 83.844 225.268 84.358 225.207 84.778C225.126 85.292 224.626 85.753 224.315 86.146C223.836 86.762 223.356 87.378 222.877 87.994C222.019 89.091 221.162 90.194 220.304 91.291C218.629 93.437 217.056 95.746 215.212 97.757C213.686 99.422 211.721 100.729 209.546 101.352C207.23 102.022 204.927 101.724 202.753 100.702C200.396 99.592 198.255 98.014 196.087 96.586C195.648 96.301 194.885 95.983 194.561 95.577C194.406 95.387 194.46 95.543 194.642 95.333C194.878 95.056 195.128 94.791 195.371 94.527C196.283 93.539 197.229 92.584 198.208 91.657C199.248 90.675 200.328 89.754 201.415 88.833C202.226 88.143 202.942 87.337 203.826 86.741C204.218 86.477 204.454 86.247 204.839 86.538C205.13 86.755 205.373 87.053 205.65 87.297C205.947 87.554 206.244 87.818 206.534 88.075C206.663 88.19 206.784 88.305 206.919 88.414C207.014 88.495 207.243 88.779 207.007 88.441C207.757 89.497 209.512 88.488 208.756 87.418C208.364 86.863 207.743 86.437 207.23 85.99C206.501 85.353 205.832 84.433 204.806 84.324C203.644 84.209 202.604 85.069 201.773 85.773C200.821 86.579 199.91 87.432 198.964 88.238C197.782 89.246 196.648 90.303 195.547 91.399C195 91.948 194.46 92.51 193.933 93.079C193.46 93.593 192.873 94.121 192.589 94.778C191.961 96.22 193.197 97.107 194.25 97.798C195.621 98.698 196.985 99.599 198.356 100.485C200.774 102.056 203.367 103.525 206.298 103.729C209.033 103.918 211.802 102.943 214.037 101.413C216.59 99.666 218.305 97.1 220.182 94.69C222.262 92.016 224.383 89.368 226.436 86.667C227.415 85.374 227.239 84.202 226.848 82.72C226.362 80.905 225.882 79.091 225.396 77.276C225.153 76.369 224.91 75.462 224.666 74.548C224.498 73.918 224.417 73.194 224.113 72.611C223.39 71.251 221.587 71.169 220.263 70.824C219.19 70.546 218.413 72.171 219.48 72.679C221.06 73.424 222.917 73.823 224.531 72.93C225.936 72.151 226.8 70.479 226.294 68.901C225.801 67.378 224.268 66.443 222.944 65.733C221.452 64.927 219.723 64.365 218.028 64.852C216.333 65.34 215.34 66.647 215.131 68.312C214.908 70.14 215.705 71.772 216.475 73.376C216.846 74.148 217.225 74.954 217.353 75.814C217.495 76.748 217.184 77.256 216.509 77.838C215.064 79.07 213.679 80.384 212.335 81.731C209.094 84.974 206.17 88.508 203.401 92.165L205.15 93.187C206.345 91.603 207.541 90.018 208.736 88.434C209.519 87.391 207.763 86.376 206.987 87.412L207.007 87.439Z" fill="#001A52"/>
<path d="M234.898 64.026C234.297 64.372 233.682 64.873 233.628 65.563C233.493 67.236 235.458 67.249 236.559 67.093C238.065 66.884 239.53 66.328 240.793 65.475C239.496 66.328 238.004 66.829 236.566 67.418C235.64 67.798 231.683 69.409 232.628 70.837C232.905 71.25 233.446 71.386 233.939 71.44C235.336 71.596 236.782 71.399 238.085 70.865C237.362 71.25 236.545 71.406 235.762 71.65C234.979 71.894 234.188 72.259 233.716 72.93C233.284 73.546 233.115 74.879 234.033 75.089C235.141 75.34 236.309 75.367 237.43 75.177C236.842 75.448 236.221 75.638 235.647 75.942C235.073 76.247 234.553 76.714 234.371 77.337C234.06 78.4 234.911 79.037 235.836 79.219C237.268 79.504 238.835 79.51 240.084 78.766C241.333 78.014 242.096 76.322 241.428 75.022C242.11 74.406 242.481 73.464 242.414 72.544C242.346 71.623 241.847 70.749 241.083 70.235C241.779 69.659 242.15 68.725 242.056 67.825C241.955 66.931 241.387 66.098 240.584 65.692C240.975 65.265 241.097 64.609 240.894 64.067C240.523 63.058 239.334 62.909 238.402 63.004C237.173 63.126 235.971 63.41 234.891 64.026H234.898Z" fill="white"/>
<path d="M234.391 63.153C233.29 63.81 232.385 64.846 232.662 66.22C232.851 67.168 233.601 67.811 234.519 68.041C236.782 68.61 239.442 67.574 241.306 66.355C242.394 65.645 241.394 63.898 240.287 64.602C238.781 65.557 237.086 66.091 235.465 66.796C234.33 67.29 233.088 67.858 232.23 68.772C231.285 69.781 231.19 71.298 232.514 72.063C234.148 73.011 236.721 72.489 238.369 71.846L237.585 69.991C236.404 70.573 235.033 70.634 233.918 71.386C233.067 71.961 232.48 72.794 232.385 73.83C232.122 76.694 235.829 76.443 237.714 76.159L236.93 74.304C235.377 74.995 233.304 75.699 233.311 77.77C233.311 79.592 235.134 80.194 236.62 80.364C238.301 80.553 240.172 80.248 241.421 79.016C242.67 77.784 243.022 76.078 242.312 74.521L242.157 75.753C244.068 73.85 243.724 70.932 241.61 69.368L241.813 70.966C243.744 69.199 243.366 66.112 241.104 64.832L241.306 66.43C242.488 64.92 242.049 62.781 240.138 62.165C238.328 61.575 235.992 62.3 234.391 63.167C233.243 63.789 234.263 65.543 235.411 64.92C236.404 64.378 237.565 64.053 238.7 64.02C239.166 64.006 240.496 64.202 239.875 64.995C239.483 65.496 239.456 66.234 240.077 66.592C241.246 67.256 241.354 68.644 240.374 69.538C239.848 70.018 240.084 70.77 240.577 71.135C241.657 71.934 241.624 73.424 240.712 74.331C240.368 74.676 240.368 75.144 240.557 75.563C240.888 76.295 240.455 77.188 239.902 77.676C239.159 78.339 238.078 78.448 237.126 78.393C236.667 78.366 235.228 78.359 235.357 77.628C235.505 76.755 237.302 76.362 237.943 76.071C238.402 75.868 238.538 75.225 238.355 74.805C238.146 74.304 237.666 74.141 237.16 74.216C236.282 74.351 235.451 74.284 234.58 74.189C234.54 74.189 234.243 74.053 234.344 74.169C234.425 74.257 234.378 74.196 234.384 74.101C234.391 73.925 234.432 73.742 234.519 73.586C234.837 73.024 235.586 72.787 236.167 72.611C236.998 72.361 237.815 72.151 238.598 71.765C239.611 71.264 238.895 69.49 237.815 69.91C237.065 70.201 236.289 70.418 235.485 70.479C235.107 70.506 234.735 70.506 234.357 70.479C234.114 70.465 233.736 70.303 233.52 70.323C233.479 70.323 233.486 70.397 233.452 70.499C233.493 70.364 233.608 70.269 233.696 70.167C233.993 69.842 234.398 69.612 234.776 69.395C236.856 68.19 239.22 67.682 241.293 66.362L240.273 64.609C238.997 65.448 237.484 66.078 235.938 66.146C235.64 66.159 234.938 66.22 234.708 65.956C234.344 65.543 235.12 65.083 235.404 64.913C236.525 64.243 235.505 62.489 234.384 63.16L234.391 63.153Z" fill="#001A52"/>
<path d="M218.731 62.95C222.208 61.826 225.794 61.061 229.428 60.668C231.244 60.472 233.067 60.37 234.898 60.357C235.742 60.357 236.572 60.357 237.356 60.533C237.903 60.655 238.51 60.621 238.74 59.971C238.943 59.395 238.652 58.732 238.173 58.346C237.693 57.96 237.079 57.804 236.478 57.71C235.066 57.493 233.628 57.567 232.21 57.71C229.785 57.947 227.381 58.366 224.991 58.847C223.086 59.233 220.378 59.301 218.913 60.736C218.278 61.359 217.947 62.374 218.352 63.167" fill="white"/>
<path d="M219.001 63.932C222.499 62.814 226.098 62.022 229.752 61.65C231.568 61.467 233.392 61.366 235.215 61.372C236.052 61.372 236.849 61.555 237.673 61.596C238.321 61.63 238.943 61.42 239.355 60.905C240.314 59.734 239.659 58.041 238.477 57.317C237.072 56.457 235.107 56.504 233.527 56.586C229.988 56.768 226.551 57.594 223.059 58.136C221.601 58.36 220.061 58.637 218.825 59.504C217.441 60.485 216.799 62.07 217.481 63.674C217.995 64.873 219.737 63.837 219.23 62.652C218.805 61.657 220.331 60.898 221.027 60.661C222.006 60.33 223.039 60.188 224.059 60.032C226.834 59.605 229.569 58.976 232.372 58.712C233.756 58.583 235.228 58.468 236.599 58.766C236.978 58.847 237.741 59.023 237.795 59.531C237.808 59.653 237.963 59.443 237.835 59.571C237.801 59.605 237.666 59.558 237.626 59.558C237.241 59.531 236.842 59.422 236.458 59.389C233.682 59.145 230.765 59.463 228.016 59.829C224.775 60.262 221.58 60.98 218.46 61.975C217.225 62.374 217.751 64.331 219.001 63.932Z" fill="#001A52"/>
<path d="M219.946 59.632C219.46 59.091 219.656 58.183 220.176 57.676C220.696 57.168 221.425 56.958 222.128 56.782C224.376 56.213 226.652 55.753 228.948 55.428C231.035 55.13 233.446 54.561 235.478 55.313C235.85 55.448 236.235 55.651 236.383 56.017C236.6 56.538 236.208 57.229 235.641 57.276C235.445 57.29 235.235 57.181 235.04 57.154C234.668 57.114 234.27 57.161 233.898 57.181C232.305 57.269 230.718 57.405 229.137 57.581C225.97 57.94 222.823 58.488 219.723 59.213L219.629 59.233" fill="white"/>
<path d="M220.608 59.253C219.669 57.96 222.526 57.466 223.262 57.29C224.7 56.944 226.146 56.647 227.598 56.403C228.894 56.186 230.211 55.963 231.514 55.807C232.19 55.726 232.872 55.672 233.547 55.705C233.945 55.726 235.262 55.78 235.539 56.166C235.857 56.613 235.478 56.43 235.249 56.416C234.891 56.396 234.553 56.376 234.189 56.403C233.513 56.443 232.831 56.484 232.156 56.538C230.724 56.647 229.299 56.796 227.874 56.978C225.031 57.344 222.215 57.852 219.426 58.508C218.474 58.732 218.879 60.201 219.831 59.978C222.796 59.28 225.801 58.739 228.82 58.387C230.299 58.211 231.778 58.082 233.263 57.987C233.939 57.947 234.58 57.886 235.242 57.987C235.769 58.075 236.248 57.974 236.647 57.601C237.437 56.863 237.349 55.638 236.498 54.995C235.512 54.25 234.013 54.148 232.824 54.189C231.454 54.23 230.103 54.5 228.752 54.697C227.294 54.913 225.835 55.164 224.397 55.475C222.958 55.787 221.128 55.97 219.926 56.904C218.994 57.628 218.555 59.009 219.298 60.025C219.872 60.81 221.189 60.052 220.608 59.253Z" fill="#001A52"/>
<path d="M238.274 71.826C239.942 71.352 241.468 70.472 242.731 69.28C243.116 68.915 243.123 68.211 242.731 67.845C242.319 67.466 241.711 67.452 241.299 67.845C241.158 67.974 241.016 68.102 240.874 68.231C240.806 68.292 240.732 68.346 240.665 68.4C240.563 68.488 240.82 68.285 240.712 68.366C240.678 68.393 240.638 68.42 240.604 68.448C240.293 68.678 239.976 68.881 239.645 69.07C239.49 69.158 239.328 69.246 239.165 69.328C239.084 69.368 239.003 69.409 238.922 69.443C238.868 69.463 238.821 69.49 238.767 69.511C238.645 69.565 238.767 69.511 238.821 69.49C238.456 69.612 238.105 69.761 237.741 69.869C237.234 70.012 236.863 70.594 237.032 71.122C237.2 71.65 237.734 71.988 238.281 71.833L238.274 71.826Z" fill="#001A52"/>
<path d="M237.113 76.254C239.031 76.274 240.901 75.841 242.637 75.042C243.116 74.819 243.278 74.081 243.001 73.654C242.684 73.153 242.13 73.051 241.617 73.288C241.509 73.343 241.394 73.39 241.286 73.437C241.489 73.349 241.212 73.464 241.191 73.471C240.996 73.546 240.793 73.62 240.597 73.688C240.212 73.817 239.814 73.925 239.415 74.006C239.226 74.047 239.031 74.081 238.835 74.114C238.774 74.121 238.713 74.135 238.652 74.142C238.733 74.132 238.733 74.132 238.652 74.142C238.565 74.148 238.47 74.162 238.382 74.169C237.964 74.209 237.538 74.223 237.113 74.223C236.586 74.223 236.073 74.697 236.1 75.238C236.127 75.78 236.545 76.247 237.113 76.254Z" fill="#001A52"/>
<path d="M94.5609 74.02C97.4509 75.184 100.335 76.349 103.225 77.513C105.157 78.292 108.337 79.111 108.56 81.623C108.675 82.896 108.101 84.02 107.493 85.089C106.811 86.295 106.325 87.601 105.859 88.901C105.724 89.28 105.109 90.485 105.332 90.736C105.076 90.452 105.278 89.504 105.204 89.145C104.961 87.919 103.968 87.371 102.874 86.992L103.482 88.481C104.691 86.301 107.27 82.754 105.575 80.228C105.062 79.456 104.211 79.125 103.374 78.82C102.178 78.38 100.983 77.947 99.7879 77.506C97.3969 76.633 94.9999 75.76 92.6089 74.886C92.7579 75.455 92.9059 76.017 93.0549 76.586C94.0139 75.651 94.9729 74.71 95.9319 73.776C96.8909 72.842 95.4319 71.427 94.4999 72.341C93.5679 73.255 92.5819 74.216 91.6229 75.15C91.0429 75.719 91.3799 76.592 92.0689 76.85C94.0479 77.574 96.0199 78.292 97.9979 79.016C99.0379 79.395 100.078 79.775 101.118 80.154C101.902 80.438 103.029 80.634 103.691 81.169C104.522 81.84 103.806 83.424 103.475 84.196C102.982 85.333 102.32 86.383 101.726 87.459C101.395 88.062 101.706 88.739 102.334 88.949C102.807 89.111 103.205 89.226 103.232 89.781C103.259 90.303 103.212 90.81 103.381 91.318C103.745 92.395 104.866 92.991 105.933 92.503C107.068 91.982 107.365 90.655 107.75 89.578C108.189 88.339 108.648 87.12 109.303 85.983C110.465 83.972 111.201 81.379 109.837 79.267C108.607 77.364 106.359 76.606 104.366 75.807C101.274 74.561 98.1809 73.309 95.0879 72.063C93.8789 71.575 93.3519 73.539 94.5469 74.02H94.5609Z" fill="#001A52"/>
<path d="M99.011 99.856C98.721 100.364 98.403 100.898 97.89 101.19C96.972 101.704 95.837 101.251 94.892 100.797C94.183 100.458 93.386 99.991 93.298 99.213C93.237 98.685 93.5339 98.19 93.8179 97.743C95.2499 95.509 96.675 93.275 98.106 91.041C98.802 89.957 99.443 88.8 100.213 87.764C100.929 86.809 101.665 86.999 102.705 87.459C103.306 87.73 103.867 88.15 104.171 88.739C104.569 89.511 104.481 90.458 104.144 91.251C103.833 91.989 103.299 92.53 102.86 93.18C102.421 93.83 102.064 94.582 101.665 95.272C100.787 96.802 99.9089 98.326 99.0249 99.856H99.011Z" fill="white"/>
<path d="M98.14 99.348C97.951 99.68 97.735 100.133 97.384 100.316C96.965 100.533 96.418 100.337 96.013 100.188C95.513 100.005 94.102 99.551 94.365 98.827C94.541 98.346 94.926 97.906 95.196 97.479C95.554 96.917 95.911 96.362 96.269 95.8C96.911 94.791 97.552 93.789 98.201 92.781C98.836 91.792 99.45 90.79 100.071 89.788C100.362 89.321 100.652 88.82 101.003 88.393C101.213 88.136 101.307 88.068 101.625 88.136C102.408 88.299 103.313 88.833 103.407 89.693C103.529 90.756 102.759 91.589 102.185 92.381C101.442 93.404 100.889 94.582 100.261 95.678C99.558 96.904 98.856 98.123 98.147 99.348C97.492 100.485 99.241 101.508 99.896 100.37C100.733 98.921 101.571 97.466 102.401 96.017C102.766 95.381 103.097 94.724 103.475 94.101C103.853 93.478 104.36 92.923 104.738 92.293C105.467 91.095 105.717 89.511 105.042 88.238C104.461 87.141 103.191 86.396 101.996 86.152C100.537 85.854 99.68 86.735 98.917 87.859C98.025 89.165 97.228 90.546 96.377 91.88C95.527 93.214 94.662 94.561 93.805 95.902C93.035 97.114 91.779 98.563 92.515 100.072C93.116 101.311 94.865 102.083 96.141 102.347C97.883 102.713 99.058 101.826 99.896 100.377C100.551 99.246 98.802 98.224 98.147 99.355L98.14 99.348Z" fill="#001A52"/>
<path d="M103.806 101.366C102.732 101.63 101.111 100.282 100.254 99.714C99.983 99.531 99.6861 99.301 99.6531 98.976C99.6261 98.725 99.7541 98.488 99.8821 98.272C100.733 96.829 101.577 95.387 102.428 93.945C102.658 93.552 102.908 93.146 103.306 92.936C104.062 92.537 104.927 93.356 105.535 93.715C106.25 94.135 106.98 94.663 107.162 95.529C107.324 96.288 106.993 97.066 106.642 97.757C106.244 98.542 105.798 99.301 105.312 100.032C104.933 100.607 104.468 101.203 103.799 101.366H103.806Z" fill="white"/>
<path d="M103.536 100.391C103.745 100.35 103.428 100.391 103.353 100.384C103.542 100.404 103.239 100.343 103.185 100.33C102.921 100.248 102.759 100.16 102.455 99.984C101.955 99.693 101.489 99.348 101.017 99.016C100.936 98.962 100.571 98.712 100.591 98.691C100.591 98.691 100.659 99.023 100.625 99.009C100.625 99.009 100.76 98.766 100.747 98.786C100.855 98.59 100.976 98.4 101.084 98.211C101.537 97.439 101.989 96.674 102.442 95.902C102.8 95.292 103.151 94.507 103.59 93.999C103.671 93.911 103.705 93.857 103.806 93.817C103.644 93.877 103.867 93.891 103.765 93.857C103.941 93.918 104.225 94.081 104.461 94.236C104.947 94.561 105.487 94.839 105.866 95.225C106.217 95.584 106.237 96.051 106.041 96.619C105.771 97.412 105.278 98.163 104.846 98.874C104.522 99.395 104.116 100.221 103.522 100.397C102.273 100.763 102.806 102.72 104.062 102.354C105.129 102.043 105.771 101.183 106.345 100.289C106.919 99.395 107.459 98.475 107.864 97.5C108.27 96.511 108.364 95.414 107.817 94.46C107.344 93.634 106.541 93.187 105.778 92.679C105.015 92.171 104.184 91.63 103.239 91.887C102.205 92.165 101.706 93.173 101.206 94.02C100.612 95.028 100.017 96.037 99.423 97.046C99.18 97.466 98.876 97.886 98.721 98.353C98.511 98.982 98.68 99.653 99.139 100.127C99.443 100.438 99.835 100.668 100.193 100.919C100.551 101.169 100.936 101.447 101.327 101.684C102.165 102.185 103.083 102.557 104.069 102.361C104.603 102.253 104.913 101.616 104.778 101.108C104.623 100.546 104.069 100.289 103.529 100.397L103.536 100.391Z" fill="#001A52"/>
<path d="M120.81 114.981C121.979 115.604 120.864 117.324 120.52 118.156C120.014 119.402 119.439 120.621 118.717 121.752C118.454 122.165 118.156 122.584 117.724 122.821C116.927 123.268 116.043 122.686 115.347 122.293C114.55 121.846 113.794 121.339 113.071 120.783C112.349 120.228 111.633 119.585 110.978 118.908C110.802 118.725 109.33 116.85 109.269 116.863C112.686 115.753 116.245 115.076 119.831 114.852C120.162 114.832 120.513 114.819 120.81 114.974V114.981Z" fill="#001A52"/>
<path d="M120.297 115.854C120.297 115.854 120.297 115.78 120.311 115.766C120.317 115.766 120.277 116.118 120.27 116.146C120.202 116.437 120.074 116.708 119.953 116.972C119.608 117.703 119.311 118.454 118.96 119.186C118.561 120.012 118.116 121.122 117.434 121.758C116.893 122.266 115.989 121.494 115.489 121.196C114.05 120.343 112.598 119.28 111.525 117.987C111.201 117.601 110.89 117.209 110.573 116.816C110.255 116.423 110.005 116.051 109.533 115.882V117.838C111.349 117.256 113.199 116.782 115.077 116.437C115.995 116.267 116.927 116.132 117.852 116.03C118.291 115.983 118.73 115.942 119.169 115.909C119.446 115.888 120.148 115.787 120.29 115.848C120.79 116.064 121.378 115.997 121.675 115.482C121.925 115.056 121.816 114.311 121.31 114.094C120.338 113.674 119.311 113.857 118.285 113.959C117.258 114.06 116.211 114.202 115.178 114.372C113.078 114.724 111.011 115.232 108.986 115.882C107.993 116.2 108.06 117.493 108.986 117.838H108.992C108.844 117.757 108.695 117.669 108.547 117.581C109.161 118.075 109.607 118.874 110.127 119.477C111.18 120.709 112.565 121.752 113.922 122.618C115.428 123.586 117.305 124.731 118.859 123.194C120.121 121.948 120.756 120.039 121.472 118.454C122.114 117.039 123.039 115.15 121.31 114.087C120.196 113.404 119.176 115.157 120.29 115.841L120.297 115.854Z" fill="#001A52"/>
<path d="M161.363 118.989V122.537C161.363 123.065 161.255 123.722 161.363 124.236C161.491 124.832 161.626 124.764 162.2 124.588C163.632 124.148 165.063 123.627 166.347 122.848C167.285 122.28 168.933 121.467 168.967 120.221C169.007 118.867 167.501 118.102 166.347 117.994C164.213 117.791 162.018 118.265 160.161 119.341" fill="#001A52"/>
<path d="M160.35 118.989C160.35 120.174 160.37 121.352 160.35 122.537C160.336 123.437 160.1 124.622 160.796 125.347C161.491 126.071 162.605 125.529 163.389 125.265C164.483 124.893 165.577 124.453 166.583 123.884C167.886 123.139 169.683 122.239 169.939 120.594C170.25 118.651 168.467 117.283 166.718 117.026C164.307 116.667 161.754 117.269 159.654 118.468C158.52 119.111 159.539 120.871 160.674 120.221C162.079 119.422 163.659 118.976 165.28 118.962C166.009 118.962 166.495 118.955 167.089 119.219C167.123 119.233 167.319 119.341 167.414 119.395C167.562 119.483 167.515 119.45 167.643 119.565C167.677 119.598 167.859 119.808 167.798 119.72C167.839 119.775 167.873 119.835 167.907 119.896C167.839 119.768 167.947 120.032 167.954 120.045C167.954 120.059 168.001 120.235 167.961 120.099C167.961 120.12 167.961 120.323 167.974 120.147C167.967 120.208 167.947 120.282 167.927 120.343C167.94 120.309 168.015 120.181 167.913 120.377C167.88 120.438 167.846 120.499 167.805 120.553C167.826 120.519 167.913 120.424 167.771 120.601C167.663 120.729 167.542 120.837 167.414 120.953C167.069 121.257 166.475 121.582 166.002 121.867C165.327 122.266 164.638 122.632 163.909 122.916C163.51 123.072 163.105 123.221 162.693 123.356C162.491 123.424 162.288 123.492 162.079 123.552C161.991 123.58 161.606 123.64 161.552 123.708C161.646 123.586 162.126 123.938 162.018 123.877C162.22 123.904 162.342 123.999 162.389 124.169L162.362 124.074C162.355 123.898 162.322 123.722 162.328 123.539C162.335 123.092 162.376 122.645 162.376 122.198V118.989C162.376 117.682 160.35 117.682 160.35 118.989Z" fill="#001A52"/>
<path d="M106.69 165.949C106.318 166.071 105.94 166.186 105.562 166.301C103.549 166.917 101.544 167.534 99.518 168.089C98.464 168.38 97.364 168.773 96.283 168.921C95.425 169.043 94.656 169.057 93.791 169.267C91.569 169.815 89.3481 170.37 87.1261 170.919C84.9041 171.467 82.682 172.022 80.4601 172.571C79.8731 172.713 73.93 173.945 73.93 174.189C73.93 178.055 73.741 181.9 74.491 185.719C75.119 188.915 76.193 192.74 77.948 195.509C79.36 197.737 81.69 199.544 84.317 199.632C86.457 199.7 88.402 198.664 90.374 197.974C92.346 197.283 94.547 197.08 96.627 196.45C101.577 194.954 106.514 193.2 111.525 191.941C115.678 190.682 119.872 189.409 123.653 187.269C131.136 183.038 136.376 175.807 141.367 168.8C142.758 166.85 144.223 164.629 143.872 162.253C143.636 160.655 142.609 159.307 141.617 158.035C138.564 154.114 135.505 150.194 132.453 146.281C130.454 143.722 127.266 140.655 124.072 143.444C122.6 144.731 122.066 146.43 121.168 148.068C120.284 149.7 119.365 151.318 118.379 152.889C116.468 155.949 114.557 158.976 112.342 161.84C111.646 162.74 110.924 163.634 110.026 164.318C109.033 165.069 107.865 165.543 106.676 165.929L106.69 165.949Z" fill="#001A52"/>
<path d="M106.419 164.974C104.623 165.557 102.813 166.091 101.003 166.619C99.194 167.148 97.4719 167.784 95.6549 167.994C91.9409 168.42 88.267 169.605 84.634 170.506C82.338 171.074 80.0489 171.636 77.7389 172.144C76.7999 172.354 75.8619 172.564 74.9299 172.801C74.3489 172.95 73.5249 173.065 73.1399 173.573C72.7009 174.148 72.91 175.177 72.91 175.861C72.904 176.85 72.89 177.845 72.897 178.833C72.91 180.682 72.9979 182.53 73.2479 184.365C73.6939 187.628 74.5789 190.919 75.9429 193.911C77.1989 196.674 79.1569 199.172 82.0879 200.235C85.4649 201.46 88.4089 199.565 91.5689 198.671C93.3249 198.177 95.1489 197.953 96.8979 197.439C98.7609 196.89 100.612 196.281 102.462 195.685C106.001 194.554 109.58 193.607 113.132 192.523C116.684 191.44 119.912 190.37 123.079 188.745C125.97 187.256 128.61 185.292 130.981 183.079C133.351 180.865 135.465 178.393 137.457 175.834C139.449 173.275 141.488 170.634 143.238 167.879C144.095 166.525 144.811 165.022 144.926 163.397C145.041 161.772 144.379 160.16 143.44 158.806C141.313 155.726 138.834 152.842 136.532 149.89C135.363 148.387 134.209 146.877 133.02 145.387C132.115 144.25 131.089 143.173 129.866 142.374C128.644 141.575 127.165 141.135 125.713 141.467C124.261 141.799 122.965 142.957 122.093 144.216C121.162 145.57 120.54 147.154 119.743 148.59C118.818 150.248 117.846 151.88 116.833 153.485C114.908 156.552 112.984 159.781 110.546 162.469C109.398 163.742 108.013 164.439 106.406 164.981C105.177 165.394 105.704 167.357 106.946 166.938C108.439 166.437 109.864 165.827 111.072 164.798C112.281 163.769 113.24 162.395 114.179 161.108C116.185 158.373 118.021 155.496 119.77 152.591C120.675 151.088 121.573 149.558 122.364 147.987C123.039 146.64 123.62 145.191 124.788 144.182C127.239 142.076 129.88 144.73 131.426 146.626C133.689 149.409 135.843 152.286 138.044 155.11C139.118 156.484 140.219 157.845 141.259 159.24C142.198 160.499 143.075 161.887 142.866 163.532C142.67 165.076 141.765 166.457 140.901 167.703C140.037 168.949 139.111 170.221 138.206 171.467C136.417 173.918 134.567 176.322 132.534 178.576C130.535 180.797 128.36 182.882 125.923 184.622C123.275 186.511 120.358 187.913 117.306 189.016C114.084 190.181 110.782 191.027 107.5 191.988C104.218 192.95 100.787 194.101 97.4309 195.144C95.7289 195.672 94.0069 196.017 92.2649 196.396C90.6709 196.748 89.206 197.357 87.673 197.919C86.234 198.447 84.7279 198.854 83.2089 198.454C81.8919 198.109 80.7579 197.31 79.8319 196.322C77.8339 194.182 76.8539 191.115 76.1249 188.346C75.2339 184.988 74.9159 181.636 74.9089 178.163C74.9089 177.337 74.916 176.511 74.923 175.685C74.923 175.462 74.923 175.245 74.923 175.022C74.923 174.649 75.1259 174.372 74.6999 174.771C74.5039 174.954 74.3149 175.069 74.5379 175.001C75.2609 174.791 75.9829 174.609 76.7129 174.439C78.3599 174.053 80.0219 173.722 81.6629 173.315C85.0999 172.462 88.537 171.609 91.975 170.763C92.765 170.567 93.555 170.336 94.358 170.181C95.223 170.011 96.107 169.991 96.979 169.829C98.674 169.504 100.348 168.915 102.003 168.434C103.657 167.953 105.305 167.459 106.939 166.931C108.175 166.531 107.649 164.568 106.399 164.974H106.419Z" fill="#001A52"/>
<path d="M200.106 218.109C197.411 218.583 194.818 219.619 192.522 221.115C190.516 222.422 188.612 223.539 188.74 226.261C188.814 227.838 189.496 229.321 190.172 230.749C190.658 231.779 191.137 232.814 191.624 233.844C191.988 234.622 192.38 235.435 193.069 235.956C194.041 236.687 195.027 236.22 196.04 235.949C197.195 235.638 198.086 234.758 198.836 233.864C200.882 231.42 202.375 228.563 203.847 225.733C204.333 224.798 204.833 223.81 204.792 222.754C204.745 221.548 203.982 220.458 203.016 219.734C202.05 219.009 200.896 218.59 199.761 218.183" fill="white"/>
<path d="M199.835 217.134C196.182 217.811 192.468 219.456 189.652 221.921C188.45 222.97 187.734 224.378 187.72 225.997C187.707 228.075 188.7 229.998 189.557 231.826C190.32 233.451 190.962 235.631 192.454 236.755C193.947 237.879 196.114 237.256 197.546 236.389C199.214 235.387 200.43 233.573 201.483 231.975C202.584 230.309 203.523 228.542 204.448 226.775C205.454 224.852 206.379 222.869 205.258 220.77C204.198 218.786 202.037 217.919 200.038 217.202C198.809 216.755 198.282 218.718 199.498 219.158C200.875 219.659 202.442 220.194 203.307 221.46C204.299 222.916 203.408 224.385 202.699 225.746C201.233 228.549 199.727 231.575 197.479 233.844C196.938 234.385 196.378 234.778 195.642 235.001C194.966 235.204 194.203 235.556 193.582 235.069C193.055 234.656 192.772 233.911 192.495 233.329C192.137 232.577 191.792 231.826 191.441 231.081C190.746 229.605 189.895 228.062 189.76 226.41C189.659 225.096 190.172 224.114 191.164 223.288C193.758 221.115 197.08 219.707 200.376 219.097C201.659 218.86 201.112 216.904 199.835 217.141V217.134Z" fill="#001A52"/>
<mask id="mask0_21_306" style="mask-type:luminance" maskUnits="userSpaceOnUse" x="191" y="218" width="44" height="33">
<path d="M191.711 235.868C192.785 239.199 194.244 242.401 196.04 245.401C197.168 247.276 198.458 251.508 201.382 250.892C202.037 250.756 202.584 250.323 203.097 249.89C206.805 246.741 209.756 242.814 212.666 238.915C215.577 235.015 218.521 231.081 222.215 227.919C224.012 226.383 226.119 224.791 228.354 223.959C229.455 223.546 230.495 222.97 231.508 222.354C231.771 222.192 234.493 220.499 234.411 220.343C232.656 216.911 228.253 218.346 225.342 218.806C222.897 219.192 220.588 220.37 218.19 220.973C214.456 221.907 210.58 221.914 206.757 221.745C206.055 221.711 204.887 221.406 204.225 221.589C203.563 221.772 203.043 222.578 202.692 223.112C201.801 224.453 201.362 226.051 201.011 227.608C200.491 229.903 200.045 232.361 198.485 234.121C196.79 236.044 193.859 236.748 191.475 235.821" fill="white"/>
</mask>
<g mask="url(#mask0_21_306)">
<path d="M191.711 235.868C192.785 239.199 194.244 242.402 196.04 245.401C197.168 247.276 198.458 251.508 201.382 250.892C202.037 250.756 202.584 250.323 203.097 249.89C206.805 246.741 209.756 242.814 212.666 238.915C215.577 235.015 218.521 231.081 222.215 227.919C224.012 226.383 226.119 224.791 228.354 223.959C229.455 223.546 230.495 222.97 231.508 222.354C231.771 222.192 234.493 220.499 234.411 220.343C232.656 216.911 228.253 218.346 225.342 218.806C222.897 219.192 220.588 220.37 218.19 220.973C214.456 221.907 210.58 221.914 206.757 221.745C206.055 221.711 204.887 221.406 204.225 221.589C203.563 221.772 203.043 222.578 202.692 223.112C201.801 224.453 201.362 226.051 201.011 227.608C200.491 229.903 200.045 232.361 198.485 234.121C196.79 236.044 193.859 236.748 191.475 235.821" fill="#001A52"/>
<path d="M190.732 236.139C191.462 238.373 192.346 240.56 193.386 242.666C194.21 244.331 195.189 245.902 196.02 247.567C196.682 248.894 197.411 250.276 198.613 251.19C200.011 252.253 201.76 252.151 203.165 251.135C206.859 248.448 209.736 244.507 212.45 240.892C215.266 237.161 217.988 233.322 221.364 230.066C223.006 228.481 224.788 226.985 226.767 225.841C228.523 224.825 230.441 224.209 232.176 223.133C233.115 222.55 234.229 221.975 235.019 221.203C236.215 220.025 234.29 218.285 233.263 217.75C231.845 217.019 230.218 217.012 228.671 217.209C227.003 217.418 225.254 217.696 223.627 218.136C221.385 218.739 219.271 219.727 216.988 220.201C214.571 220.709 212.092 220.824 209.634 220.804C208.378 220.79 207.115 220.79 205.873 220.621C204.806 220.479 203.82 220.431 202.962 221.176C201.233 222.672 200.524 225.191 200.031 227.337C199.538 229.483 199.153 232.104 197.431 233.749C195.919 235.198 193.67 235.55 191.739 234.839C190.509 234.385 189.983 236.349 191.198 236.796C194.683 238.075 198.62 236.457 200.335 233.194C201.254 231.447 201.605 229.504 202.051 227.601C202.267 226.674 202.51 225.739 202.888 224.866C203.158 224.243 203.746 222.909 204.428 222.605C205.035 222.334 206.109 222.713 206.757 222.76C207.926 222.842 209.101 222.848 210.269 222.842C212.592 222.842 214.929 222.679 217.211 222.225C219.312 221.812 221.27 220.993 223.303 220.35C224.923 219.835 226.639 219.565 228.32 219.294C229.57 219.098 231.062 218.921 232.237 219.504C232.507 219.639 232.744 219.808 232.96 220.018C233.095 220.154 233.189 220.323 233.318 220.458C233.811 220.98 233.216 219.788 233.615 219.734C233.385 219.768 232.662 220.411 232.365 220.607C231.258 221.332 230.13 222.049 228.928 222.618C227.956 223.079 226.949 223.417 226.004 223.945C225.058 224.473 224.154 225.096 223.289 225.76C216.3 231.115 212.072 238.881 206.278 245.347C205.468 246.254 204.63 247.127 203.746 247.96C203.016 248.651 202.064 249.808 201.017 249.93C199.64 250.093 198.762 248.407 198.215 247.398C196.148 243.559 194.048 239.768 192.691 235.597C192.286 234.358 190.334 234.886 190.739 236.139H190.732Z" fill="#001A52"/>
<path d="M215.827 219.551C214.078 220.289 212.869 221.961 212.754 223.871C212.741 224.142 212.997 224.379 213.261 224.379C213.551 224.379 213.754 224.148 213.767 223.871C213.767 223.776 213.781 223.681 213.794 223.593C213.787 223.668 213.808 223.505 213.808 223.505C213.814 223.458 213.828 223.41 213.835 223.37C213.875 223.18 213.929 222.991 213.997 222.801C214.105 222.51 214.287 222.158 214.496 221.853C214.679 221.589 214.942 221.305 215.226 221.068C215.334 220.98 215.469 220.885 215.617 220.783C215.705 220.729 215.793 220.675 215.888 220.628C215.928 220.607 215.969 220.587 216.016 220.567C216.029 220.567 216.158 220.499 216.097 220.526C216.347 220.418 216.529 220.188 216.448 219.903C216.381 219.666 216.077 219.443 215.827 219.551Z" fill="white"/>
<path d="M212.802 219.362C210.641 220.397 209.047 222.557 208.696 224.934C208.655 225.204 208.763 225.482 209.047 225.557C209.283 225.624 209.628 225.475 209.668 225.204C209.986 223.051 211.35 221.176 213.308 220.242C213.558 220.12 213.619 219.768 213.49 219.544C213.342 219.294 213.045 219.246 212.795 219.362H212.802Z" fill="white"/>
<path d="M209.222 219.483C206.926 220.357 205.137 222.361 204.576 224.771C204.428 225.408 205.407 225.678 205.556 225.042C206.028 222.997 207.527 221.217 209.493 220.465C209.749 220.37 209.925 220.12 209.844 219.842C209.776 219.599 209.479 219.389 209.222 219.49V219.483Z" fill="white"/>
</g>
<path d="M205.724 250.702C207.507 250.16 209.249 249.362 209.911 249.009C213.166 247.283 215.968 244.832 218.744 242.401C222.816 238.833 226.895 235.265 230.967 231.697C234.242 228.833 236.863 225.462 235.181 220.824C234.85 219.923 234.756 219.544 233.797 219.876C233.061 220.133 232.372 220.526 231.663 220.851C229.799 221.697 227.955 222.652 226.321 223.891C219.858 228.8 213.497 233.911 208.013 239.93C205.906 242.246 201.544 246.2 200.997 249.395C200.598 251.718 203.198 251.467 205.731 250.695L205.724 250.702Z" fill="white"/>
<path d="M205.994 251.684C213.132 249.45 218.447 244.013 223.951 239.192C226.902 236.613 230.001 234.128 232.804 231.386C234.918 229.328 236.714 226.728 236.714 223.661C236.714 222.889 236.599 222.11 236.403 221.366C236.221 220.689 236.005 219.802 235.519 219.267C234.425 218.075 232.655 219.246 231.541 219.788C229.833 220.614 228.124 221.399 226.551 222.476C224.957 223.566 223.451 224.805 221.931 225.997C218.933 228.346 215.995 230.763 213.186 233.336C210.633 235.672 208.297 238.197 205.9 240.689C203.725 242.95 201.044 245.475 200.139 248.583C199.741 249.951 199.95 251.487 201.429 252.043C202.908 252.598 204.596 252.104 205.994 251.684C207.243 251.311 206.71 249.355 205.454 249.727C204.826 249.917 204.184 250.093 203.529 250.188C203.192 250.235 202.395 250.384 202.091 250.133C201.584 249.72 202.401 248.292 202.638 247.852C203.86 245.617 205.731 243.783 207.48 241.968C209.614 239.754 211.68 237.5 213.936 235.401C216.38 233.119 218.94 230.966 221.547 228.874C224.153 226.782 226.746 224.548 229.677 222.957C230.4 222.564 231.143 222.205 231.886 221.86C232.203 221.711 232.514 221.569 232.824 221.413C233.189 221.237 233.743 221.095 234.053 220.858C233.858 221.007 234.35 220.736 234.357 220.777L233.999 220.621L234.04 220.695C233.979 220.865 234.317 221.467 234.371 221.643C234.58 222.347 234.695 223.051 234.681 223.789C234.634 226.437 232.831 228.59 231.001 230.309C228.455 232.693 225.76 234.92 223.134 237.215C220.23 239.754 217.38 242.381 214.368 244.798C211.66 246.965 208.763 248.691 205.447 249.734C204.205 250.12 204.738 252.083 205.987 251.691L205.994 251.684Z" fill="#001A52"/>
<path d="M233 218.982C233.243 218.935 233.486 218.908 233.736 218.915C234.182 218.935 234.634 219.098 234.972 219.389C235.161 219.558 235.276 219.714 235.33 219.964C235.397 220.255 235.458 220.546 235.525 220.837C235.559 220.98 235.586 221.142 235.525 221.271C235.444 221.433 235.242 221.487 235.066 221.501C234.857 221.515 234.695 221.501 234.506 221.589C234.303 221.691 234.073 221.724 233.857 221.785C233.378 221.921 232.905 222.077 232.432 222.253C231.014 222.781 229.657 223.471 228.354 224.243C227.05 225.022 225.794 225.882 224.565 226.775C223.572 227.5 222.586 228.238 221.621 229.003C217.589 232.171 213.807 235.651 210.309 239.402C208.56 241.278 206.885 243.221 205.285 245.225C204.488 246.227 203.705 247.242 202.948 248.278C202.57 248.793 202.192 249.314 201.821 249.835C201.517 250.276 201.496 250.837 200.868 250.932C200.558 250.98 200.247 250.905 199.943 250.837C199.552 250.743 199.126 250.621 198.917 250.276C198.768 250.025 198.775 249.72 198.802 249.436C198.856 248.908 198.95 248.319 199.146 247.818C199.606 246.674 200.537 245.57 201.247 244.561C202.01 243.471 202.8 242.408 203.63 241.366C205.265 239.307 207.027 237.344 208.898 235.496C212.072 232.361 215.563 229.558 219.203 226.978C221.026 225.685 222.884 224.446 224.768 223.241C225.706 222.638 226.659 222.043 227.611 221.46C228.083 221.169 228.549 220.851 229.042 220.587C229.454 220.364 229.927 220.248 230.359 220.052L231.474 219.544C231.973 219.314 232.486 219.084 233.02 218.976L233 218.982Z" fill="white"/>
<path d="M233.27 219.964C233.56 219.917 234.006 219.896 234.242 220.113C234.479 220.33 234.33 220.743 234.513 220.966L234.546 221.115L234.857 220.499C234.857 220.499 234.445 220.546 234.404 220.553C234.08 220.634 233.749 220.763 233.425 220.858C231.94 221.278 230.508 221.914 229.144 222.632C226.416 224.074 223.91 225.942 221.479 227.831C216.428 231.745 211.755 236.139 207.541 240.946C205.407 243.383 203.387 245.922 201.497 248.542C201.274 248.854 201.024 249.158 200.835 249.497C200.754 249.639 200.652 249.944 200.565 249.971C200.585 249.971 199.815 249.815 199.754 249.727C199.687 249.626 199.889 248.854 199.916 248.759C200.234 247.371 201.307 246.227 202.111 245.089C205.812 239.876 210.208 235.272 215.185 231.271C217.981 229.023 220.925 226.958 223.924 225.001C225.497 223.972 227.104 222.984 228.691 221.982C229.387 221.542 230.096 221.271 230.846 220.946C231.642 220.594 232.412 220.181 233.263 219.971C234.526 219.659 233.993 217.703 232.723 218.014C231.953 218.204 231.237 218.549 230.521 218.874C229.684 219.253 228.813 219.531 228.023 220.005C226.476 220.939 224.95 221.921 223.431 222.903C220.311 224.92 217.265 227.046 214.354 229.355C211.498 231.616 208.783 234.053 206.291 236.721C203.847 239.341 201.733 242.185 199.626 245.076C198.647 246.416 197.877 247.764 197.769 249.456C197.661 251.162 199.133 252.002 200.693 251.975C201.382 251.961 201.962 251.636 202.32 251.041C202.726 250.357 203.138 249.707 203.61 249.064C204.758 247.493 205.954 245.963 207.196 244.466C211.903 238.793 217.238 233.627 223.08 229.138C226.186 226.755 229.488 224.304 233.243 223.045C233.675 222.902 234.107 222.781 234.54 222.666C234.85 222.578 235.174 222.557 235.492 222.469C236.37 222.212 236.633 221.42 236.484 220.587C236.322 219.673 236.086 218.881 235.249 218.373C234.465 217.892 233.594 217.872 232.716 218.021C231.433 218.238 231.98 220.201 233.256 219.978L233.27 219.964Z" fill="#001A52"/>
<path d="M77.394 191.914C74.599 191.833 71.965 193.715 69.196 193.363C66.718 193.045 64.705 190.831 64.293 188.359C63.881 185.888 64.921 183.302 66.698 181.535C68.474 179.768 70.898 178.766 73.37 178.393C74.126 178.278 74.977 178.238 75.591 178.698C76.24 179.185 76.422 180.079 76.53 180.885C77.03 184.548 77.111 188.271 76.766 191.961" fill="white"/>
<path d="M77.395 190.898C75.97 190.885 74.605 191.271 73.255 191.691C71.985 192.083 70.608 192.564 69.257 192.354C66.934 191.995 65.266 189.707 65.219 187.432C65.158 184.717 66.853 182.307 69.108 180.946C70.317 180.215 71.661 179.754 73.046 179.483C73.572 179.382 74.288 179.199 74.808 179.422C75.328 179.646 75.429 180.336 75.517 180.851C76.118 184.487 76.091 188.299 75.76 191.961C75.639 193.261 77.671 193.255 77.786 191.961C78.137 188.089 78.151 184.047 77.455 180.208C77.151 178.536 76.078 177.337 74.315 177.303C72.694 177.269 70.959 177.831 69.493 178.475C66.508 179.781 63.99 182.368 63.368 185.658C62.788 188.705 63.983 191.887 66.677 193.525C68.237 194.473 70.02 194.582 71.776 194.216C73.667 193.823 75.45 192.923 77.408 192.943C78.711 192.957 78.711 190.926 77.408 190.912L77.395 190.898Z" fill="#001A52"/>
<path d="M58.378 216.856C55.508 215.536 53.732 212.571 53.117 209.544C52.678 207.412 52.651 205.198 52.861 203.038C53.07 200.878 53.178 198.908 53.502 196.85C54.009 193.607 54.866 190.418 56.055 187.351C56.575 186.003 57.027 184.67 58.047 183.62C59.127 182.51 60.275 181.616 61.7 180.953C63.517 180.1 65.496 179.619 67.454 179.138C63.564 178.217 59.215 179.395 56.379 182.137C54.306 184.141 53.083 186.816 52.138 189.504C50.375 194.541 49.47 199.863 49.47 205.184C49.47 207.987 49.747 210.898 51.193 213.329C52.638 215.76 55.494 217.581 58.344 217.093" fill="white"/>
<path d="M58.884 215.976C53.38 213.343 53.563 206.579 54.015 201.406C54.285 198.272 54.711 195.191 55.535 192.151C55.953 190.614 56.453 189.104 57.02 187.622C57.527 186.301 58.013 185.056 59.04 184.054C61.437 181.711 64.543 180.892 67.711 180.12C68.663 179.89 68.69 178.38 67.711 178.163C64.307 177.398 60.64 177.967 57.675 179.842C54.535 181.826 52.698 185.056 51.429 188.461C49.997 192.3 49.099 196.335 48.687 200.404C48.295 204.27 48.066 208.624 49.551 212.3C51.03 215.949 54.549 218.664 58.594 218.068C59.877 217.879 59.33 215.922 58.054 216.112C55.001 216.565 52.34 214.033 51.348 211.359C50.146 208.136 50.355 204.412 50.652 201.041C50.97 197.418 51.739 193.83 52.894 190.384C53.887 187.425 55.197 184.385 57.655 182.347C60.255 180.188 63.895 179.389 67.17 180.127V178.17C64.077 178.921 60.998 179.754 58.499 181.819C57.297 182.814 56.372 183.945 55.744 185.387C55.082 186.917 54.515 188.502 54.022 190.1C52.975 193.471 52.381 196.931 52.07 200.445C51.76 203.898 51.388 207.391 52.367 210.783C53.212 213.708 55.069 216.41 57.865 217.75C59.033 218.312 60.066 216.559 58.884 215.997V215.976Z" fill="#001A52"/>
<path d="M54.312 78.041C50.477 85.008 48.836 93.092 49.727 101.007C49.869 102.293 51.901 102.307 51.753 101.007C50.902 93.437 52.388 85.746 56.061 79.07C56.689 77.926 54.94 76.897 54.312 78.048V78.041Z" fill="#001A52"/>
<path d="M48.586 75.8C47.1 79.937 46.289 84.29 46.154 88.678C46.114 89.984 48.14 89.984 48.18 88.678C48.309 84.46 49.112 80.309 50.544 76.335C50.983 75.103 49.031 74.575 48.592 75.794L48.586 75.8Z" fill="#001A52"/>
<path d="M72.168 117.635C78.34 123.993 86.592 128.224 95.365 129.45C95.912 129.524 96.445 129.314 96.614 128.739C96.749 128.265 96.445 127.567 95.905 127.486C87.45 126.301 79.562 122.327 73.606 116.193C72.694 115.252 71.263 116.694 72.174 117.628L72.168 117.635Z" fill="#001A52"/>
<path d="M72.1879 127.459C76.7529 129.057 81.3179 130.655 85.8899 132.253C87.1259 132.686 87.6519 130.722 86.4299 130.296C81.8649 128.698 77.2999 127.1 72.7279 125.502C71.4919 125.069 70.9649 127.032 72.1879 127.459Z" fill="#001A52"/>
<path d="M206.163 159.754C211.707 166.999 214.111 176.464 212.518 185.475C212.295 186.755 214.246 187.303 214.469 186.017C216.151 176.491 213.794 166.423 207.905 158.732C207.568 158.292 207.041 158.075 206.521 158.366C206.089 158.61 205.825 159.321 206.156 159.754H206.163Z" fill="#001A52"/>
<path d="M216.198 161.305C219.44 166.972 220.426 173.762 218.926 180.12C218.629 181.393 220.581 181.934 220.878 180.661C222.506 173.776 221.459 166.43 217.947 160.282C217.299 159.152 215.55 160.167 216.198 161.305Z" fill="#001A52"/>
<mask id="mask1_21_306" style="mask-type:luminance" maskUnits="userSpaceOnUse" x="52" y="179" width="20" height="39">
<path d="M63.199 179.91C60.572 180.831 58.135 182.483 56.669 184.846C55.305 187.039 54.866 189.666 54.454 192.219C53.428 198.576 52.394 205.062 53.32 211.433C53.515 212.787 53.8131 214.162 54.5221 215.34C55.2311 216.518 56.412 217.473 57.777 217.594C59.566 217.757 61.194 216.498 62.288 215.069C63.645 213.309 64.509 211.223 65.354 209.165C67.474 204.013 69.75 198.894 71.789 193.729C70.486 193.735 69 192.943 68.109 192.009C64.624 188.373 66.569 182.144 69.919 179.152C69.743 179.307 68.453 179.111 68.17 179.125C67.548 179.145 66.927 179.206 66.306 179.301C65.219 179.463 64.253 179.538 63.193 179.91H63.199Z" fill="white"/>
</mask>
<g mask="url(#mask1_21_306)">
<path d="M63.199 179.91C60.572 180.831 58.135 182.483 56.669 184.846C55.305 187.039 54.866 189.666 54.454 192.219C53.428 198.576 52.394 205.062 53.32 211.433C53.515 212.787 53.8131 214.162 54.5221 215.34C55.2311 216.518 56.412 217.473 57.777 217.594C59.566 217.757 61.194 216.498 62.288 215.069C63.645 213.309 64.509 211.223 65.354 209.165C67.474 204.013 69.75 198.894 71.789 193.729C70.486 193.735 69 192.943 68.109 192.009C64.624 188.373 66.569 182.144 69.919 179.152C69.743 179.307 68.453 179.111 68.17 179.125C67.548 179.145 66.927 179.206 66.306 179.301C65.219 179.463 64.253 179.538 63.193 179.91H63.199Z" fill="#001A52"/>
<path d="M62.9291 178.928C60.8831 179.666 58.9521 180.743 57.3981 182.3C55.7241 183.979 54.7241 186.125 54.1501 188.407C53.5291 190.892 53.2051 193.471 52.8331 196.003C52.4281 198.745 52.0911 201.501 51.9761 204.27C51.8681 206.944 51.9761 209.646 52.4281 212.286C52.8201 214.548 53.7791 216.958 55.9331 218.068C60.7211 220.546 64.1311 214.615 65.6711 211.02C68.0891 205.374 70.5061 199.707 72.7691 193.999C73.0251 193.356 72.3841 192.733 71.7891 192.713C68.7771 192.618 67.1771 189.47 67.2921 186.796C67.4001 184.182 68.7301 181.616 70.6351 179.869C71.5261 179.05 70.3911 177.791 69.4061 178.271C69.8171 178.068 69.2841 178.19 69.0811 178.177C68.8991 178.163 68.7171 178.143 68.5341 178.129C67.9941 178.089 67.4611 178.143 66.9201 178.197C65.5831 178.346 64.2061 178.502 62.9231 178.921C61.6391 179.341 62.2201 181.291 63.4631 180.878C64.8471 180.425 66.4001 180.215 67.8521 180.147C68.7031 180.106 69.6281 180.411 70.4251 180.025L69.1961 178.427C66.7521 180.661 65.1311 184.114 65.2521 187.459C65.3811 191.061 67.9541 194.615 71.7831 194.737L70.8031 193.451C69.0071 197.974 67.0621 202.435 65.1851 206.924C64.3141 209.009 63.5301 211.169 62.3691 213.119C61.4771 214.622 59.9921 216.653 58.0131 216.592C55.8391 216.525 54.8591 214.128 54.4811 212.327C53.9951 210.018 53.9141 207.601 53.9611 205.252C54.0561 200.499 54.8191 195.739 55.6491 191.068C56.0611 188.766 56.6221 186.369 58.1211 184.507C59.4991 182.801 61.4101 181.623 63.4491 180.885C64.6651 180.445 64.1451 178.481 62.9091 178.928H62.9291Z" fill="#001A52"/>
<path d="M61.936 203.336C62.909 205.306 65.0831 206.592 67.2711 206.511C67.9201 206.484 67.9261 205.469 67.2711 205.496C65.4081 205.563 63.638 204.494 62.808 202.821C62.686 202.578 62.342 202.51 62.112 202.638C61.862 202.787 61.808 203.085 61.93 203.336H61.936Z" fill="white"/>
<path d="M63.6591 199.483C64.8681 201.691 67.1841 203.153 69.6821 203.336C69.9531 203.356 70.1891 203.085 70.1891 202.828C70.1891 202.537 69.9591 202.341 69.6821 202.32C67.5351 202.165 65.5631 200.851 64.5301 198.969C64.2191 198.393 63.3411 198.908 63.6521 199.483H63.6591Z" fill="white"/>
<path d="M65.3871 196.457C66.7721 198.299 68.8251 199.592 71.1071 199.944C71.3771 199.984 71.6541 199.876 71.7291 199.592C71.7961 199.348 71.6481 199.009 71.3771 198.969C69.3651 198.657 67.4881 197.588 66.2591 195.949C66.0961 195.733 65.8201 195.617 65.5631 195.766C65.3471 195.895 65.2191 196.24 65.3811 196.464L65.3871 196.457Z" fill="white"/>
</g>
<mask id="mask2_21_306" style="mask-type:luminance" maskUnits="userSpaceOnUse" x="117" y="112" width="92" height="122">
<path d="M170.196 146.01C167.292 143.64 164.739 140.851 161.883 138.508C159.222 136.328 160.357 132.591 160.937 129.768C161.734 125.902 162.524 122.036 163.321 118.17C160.221 117.669 157.122 117.195 154.015 116.748C148.262 115.922 142.501 115.191 136.727 114.555C133.837 114.236 130.953 113.945 128.056 113.674C126.118 113.492 122.228 112.368 120.439 113.275C118.973 114.02 118.379 116.714 117.967 118.143C117.299 120.479 117.028 122.93 117.096 125.36C117.224 130.215 118.636 135.035 120.918 139.307C125.125 147.195 131.852 153.376 138.497 159.341C145.142 165.306 151.962 171.345 156.453 179.07C160.505 186.044 162.436 194.006 164.773 201.724C168.123 212.76 172.404 223.512 177.563 233.83C177.32 233.349 179.34 230.634 179.65 230.16C180.454 228.935 181.345 227.764 182.304 226.66C184.222 224.446 186.43 222.476 188.848 220.817C191.266 219.158 193.886 217.804 196.648 216.816C198.545 216.139 200.619 215.902 202.57 215.387C204.022 215.001 207.338 214.372 208.061 212.781C208.601 211.589 206.798 209.734 206.156 208.63C205.231 207.046 204.373 205.428 203.543 203.789C201.854 200.438 200.321 197.005 198.755 193.593C195.655 186.863 192.643 180.072 190.421 172.997C187.139 162.523 178.576 152.862 170.189 146.01H170.196Z" fill="white"/>
</mask>
<g mask="url(#mask2_21_306)">
<path d="M141.4 128.211C145.007 127.513 148.235 129.673 151.28 131.399C152.861 132.293 154.4 133.261 155.899 134.29C156.359 134.609 160.032 136.89 159.938 137.337C161.066 131.846 162.193 126.349 163.321 120.858C160.221 120.357 157.122 119.883 154.015 119.436C148.262 118.61 142.501 117.879 136.727 117.242C133.837 116.924 130.953 116.633 128.056 116.362C126.118 116.179 122.228 115.056 120.439 115.963C118.973 116.708 118.379 119.402 117.967 120.831C117.299 123.167 117.028 125.617 117.096 128.048C117.224 132.902 118.636 137.723 120.918 141.995C125.125 149.883 131.852 156.064 138.497 162.029C145.142 167.994 151.962 174.033 156.453 181.758C160.505 188.732 162.436 196.694 164.773 204.412C168.123 215.448 172.404 226.2 177.563 236.518C177.32 236.037 179.34 233.322 179.65 232.848C180.454 231.623 181.345 230.452 182.304 229.348C184.222 227.134 186.43 225.164 188.848 223.505C191.266 221.846 193.886 220.492 196.648 219.504C198.545 218.827 200.619 218.59 202.57 218.075C204.022 217.689 207.338 217.06 208.061 215.468C208.601 214.277 206.798 212.422 206.156 211.318C205.231 209.734 204.373 208.116 203.543 206.477C201.854 203.126 200.321 199.693 198.755 196.281C195.655 189.551 192.643 182.76 190.421 175.685C187.139 165.211 178.576 155.55 170.189 148.698C161.288 141.433 154.603 128.854 141.725 128.19" fill="#001A52"/>
<path d="M141.671 129.192C143.737 128.833 145.749 129.558 147.573 130.485C149.396 131.413 151.314 132.544 153.11 133.668C154.312 134.419 155.481 135.218 156.662 135.997C157.203 136.355 157.743 136.714 158.263 137.1C158.439 137.229 158.607 137.357 158.776 137.5C158.837 137.554 158.959 137.696 159.026 137.73C159.161 137.798 158.932 137.669 158.932 137.337C158.938 138.448 160.687 138.759 160.924 137.608C162.051 132.117 163.179 126.619 164.307 121.129C164.408 120.634 164.165 119.971 163.598 119.876C156.885 118.793 150.146 117.838 143.393 117.005C137.288 116.254 131.142 115.794 125.071 114.859C123.025 114.541 120.398 114.142 118.906 115.956C117.488 117.682 116.934 120.418 116.529 122.564C115.387 128.664 116.556 135.001 119.108 140.601C124.099 151.535 133.958 159.104 142.555 167.053C146.864 171.034 151.044 175.245 154.285 180.167C157.527 185.089 159.749 191.108 161.525 196.972C163.301 202.835 165.077 209.009 167.218 214.92C169.406 220.973 171.884 226.924 174.626 232.747C175.301 234.182 175.997 235.611 176.706 237.033C177.219 238.062 178.894 237.344 178.556 236.247C178.61 236.437 178.489 236.484 178.597 236.403C178.664 236.355 178.738 236.118 178.792 236.01C179.002 235.617 179.245 235.245 179.488 234.88C179.859 234.324 180.251 233.783 180.623 233.228C182.25 230.824 184.154 228.651 186.336 226.735C188.476 224.852 190.867 223.261 193.406 221.988C194.723 221.325 196.087 220.729 197.499 220.289C198.91 219.849 200.274 219.639 201.665 219.334C203.597 218.915 205.805 218.508 207.5 217.446C208.25 216.978 208.959 216.308 209.134 215.414C209.344 214.358 208.749 213.302 208.182 212.462C204.9 207.594 202.563 202.158 200.126 196.829C197.566 191.237 195.007 185.638 192.913 179.849C191.948 177.175 191.184 174.426 190.07 171.806C189.01 169.321 187.713 166.951 186.241 164.683C183.25 160.072 179.603 155.895 175.625 152.117C173.788 150.377 171.83 148.8 169.932 147.141C168.339 145.753 166.853 144.243 165.394 142.713C159.593 136.619 153.698 129.402 145.034 127.601C143.953 127.378 142.846 127.242 141.745 127.175C140.441 127.1 140.448 129.131 141.745 129.206C150.537 129.707 156.676 136.376 162.322 142.408C163.787 143.972 165.252 145.536 166.799 147.019C168.433 148.583 170.209 149.971 171.904 151.46C175.943 155.015 179.697 158.955 182.858 163.322C184.425 165.489 185.856 167.77 187.072 170.154C188.308 172.571 189.159 175.076 190.009 177.642C191.9 183.329 194.277 188.847 196.756 194.304C199.308 199.917 201.773 205.617 204.812 210.986C205.366 211.961 206.035 212.828 206.629 213.769C207.081 214.487 207.412 215.022 206.642 215.584C205.157 216.667 202.894 216.985 201.132 217.371C199.741 217.676 198.329 217.899 196.965 218.326C195.601 218.752 194.331 219.301 193.069 219.896C190.55 221.095 188.2 222.605 186.025 224.351C182.48 227.209 179.38 230.871 177.118 234.839C176.8 235.401 176.395 236.112 176.598 236.782L178.448 235.997C172.877 224.832 168.413 213.2 164.895 201.23C163.22 195.543 161.592 189.802 159.019 184.439C156.446 179.077 152.989 174.656 149.004 170.506C141.07 162.246 131.386 155.584 124.7 146.152C121.283 141.332 118.764 135.807 118.217 129.856C117.933 126.768 118.21 123.756 119.034 120.77C119.297 119.822 119.534 118.84 119.993 117.96C120.452 117.08 120.932 116.708 121.897 116.64C124.166 116.471 126.469 117.229 128.725 117.439C132.007 117.75 135.282 118.089 138.557 118.461C145.135 119.206 151.692 120.079 158.236 121.074C159.843 121.318 161.444 121.569 163.051 121.833C162.815 121.413 162.578 121 162.342 120.58C161.214 126.071 160.086 131.569 158.959 137.06L160.951 137.33C160.944 136.159 159.235 135.286 158.412 134.731C157.088 133.83 155.751 132.936 154.4 132.083C152.327 130.77 150.173 129.47 147.958 128.414C145.743 127.357 143.534 126.809 141.13 127.229C139.847 127.452 140.394 129.409 141.671 129.186V129.192Z" fill="#001A52"/>
<path d="M149.079 120.668C148.977 122.896 148.883 125.116 148.782 127.344C148.755 128.001 149.767 127.994 149.795 127.344C149.896 125.116 149.99 122.896 150.092 120.668C150.119 120.012 149.106 120.018 149.079 120.668Z" fill="white"/>
<path d="M151.895 129.666C152.779 128.339 154.36 127.696 155.291 126.41C156.534 124.69 155.643 122.679 155.859 120.77C155.933 120.12 154.92 120.127 154.846 120.77C154.643 122.53 155.568 124.561 154.279 126.064C153.293 127.215 151.868 127.872 151.01 129.158C150.645 129.707 151.523 130.215 151.888 129.673L151.895 129.666Z" fill="white"/>
<path d="M142.062 128.569C150.078 130.323 157.493 134.331 163.328 140.113C163.794 140.573 164.51 139.856 164.044 139.395C158.087 133.498 150.51 129.382 142.326 127.588C141.691 127.445 141.421 128.427 142.056 128.569H142.062Z" fill="white"/>
</g>
<path d="M124.457 129.456C125.949 127.567 127.604 125.814 129.393 124.216C129.88 123.783 129.164 123.065 128.678 123.498C126.881 125.096 125.227 126.85 123.741 128.739C123.572 128.955 123.532 129.246 123.741 129.456C123.917 129.632 124.288 129.673 124.457 129.456Z" fill="white"/>
<path d="M204.887 219.145C206.683 217.54 208.196 215.685 207.818 213.999C207.176 211.163 201.416 212.354 199.491 212.659C195.784 213.241 192.184 214.521 188.95 216.443C185.803 218.312 183.02 220.783 180.765 223.668C179.684 225.049 178.462 226.64 177.787 228.265C177.246 229.565 177.118 231.873 177.8 233.16C178.61 234.683 179.941 233.965 181.264 233.485C184.573 232.273 187.788 230.804 190.867 229.097C194.332 227.175 197.627 224.954 200.707 222.462C201.645 221.697 203.367 220.513 204.887 219.152V219.145Z" fill="#001A52"/>
<path d="M205.603 219.863C207.365 218.258 209.979 215.469 208.452 212.896C207.46 211.223 205.13 211.074 203.401 211.149C198.262 211.372 192.995 212.889 188.564 215.489C185.877 217.066 183.425 219.077 181.345 221.399C180.326 222.537 179.38 223.749 178.502 224.995C177.692 226.139 176.888 227.405 176.564 228.793C176.078 230.844 176.139 234.947 179.049 235.089C180.366 235.15 181.798 234.378 182.993 233.911C184.519 233.315 186.032 232.659 187.511 231.961C190.894 230.357 194.143 228.475 197.222 226.342C198.735 225.286 200.187 224.155 201.639 223.018C202.969 221.975 204.34 220.993 205.609 219.876C206.589 219.009 205.15 217.574 204.178 218.441C202.219 220.174 200.072 221.758 197.978 223.316C195.676 225.028 193.265 226.592 190.773 228.001C188.274 229.409 185.688 230.668 183.034 231.738C181.913 232.192 180.684 232.821 179.488 233.045C178.448 233.234 178.367 231.724 178.361 230.98C178.32 228.448 179.914 226.416 181.406 224.514C183.04 222.422 184.931 220.512 187.065 218.935C191.171 215.895 195.831 214.277 200.835 213.478C202.435 213.221 204.401 212.862 205.974 213.437C208.5 214.358 205.13 217.581 204.184 218.441C203.239 219.301 204.65 220.756 205.616 219.876L205.603 219.863Z" fill="#001A52"/>
</g>
<defs>
<clipPath id="clip0_21_306">
<rect width="277" height="252" fill="white"/>
</clipPath>
</defs>
</svg>
