<svg width="112" height="91" viewBox="0 0 112 91" fill="none" xmlns="http://www.w3.org/2000/svg">
<path d="M18.8155 30.1982L95.2243 31.5919L95.6958 19.4916C95.7587 17.8796 97.085 16.6059 98.6982 16.6084L103.445 16.6157C105.146 16.6184 106.504 18.033 106.438 19.7326L105.058 55.1374C104.996 56.7457 103.675 58.018 102.066 58.0206L97.3182 58.0284C95.6136 58.0311 94.2492 56.6149 94.3156 54.9115L94.7237 44.4387L18.4989 43.1759L17.883 55.0657C17.8003 56.6619 16.4807 57.913 14.8823 57.9105L8.48068 57.9006C6.77984 57.898 5.42137 56.4833 5.4876 54.7838L6.87524 19.1749C6.93806 17.5629 8.26442 16.2892 9.87762 16.2917L16.2425 16.3016C17.9433 16.3042 19.3018 17.7188 19.2355 19.4184L18.8155 30.1982Z" fill="#E51536"/>
<path d="M18.8155 30.1982L95.2243 31.5919M18.8155 30.1982L18.4989 43.1759M18.8155 30.1982L19.2355 19.4184C19.3018 17.7188 17.9433 16.3042 16.2425 16.3016L9.87762 16.2917C8.26442 16.2892 6.93806 17.5629 6.87524 19.1749L5.4876 54.7838C5.42137 56.4833 6.77984 57.898 8.48068 57.9006L14.8823 57.9105C16.4807 57.913 17.8003 56.6619 17.883 55.0657L18.4989 43.1759M95.2243 31.5919L94.7237 44.4387M95.2243 31.5919L95.6959 19.4916C95.7587 17.8796 97.085 16.6059 98.6982 16.6084L103.445 16.6157C105.146 16.6184 106.504 18.033 106.438 19.7326L105.058 55.1374C104.996 56.7457 103.675 58.018 102.066 58.0206L97.3182 58.0284C95.6136 58.0311 94.2492 56.6149 94.3156 54.9116L94.7237 44.4387M94.7237 44.4387L18.4989 43.1759" stroke="white" stroke-width="1.5"/>
<rect x="37.8925" y="16.7292" width="13.2186" height="23.7511" rx="6.60932" transform="rotate(-0.519657 37.8925 16.7292)" fill="#E51536" stroke="white" stroke-width="1.5"/>
<rect x="50.7809" y="16.7292" width="13.2186" height="23.7511" rx="6.60932" transform="rotate(-0.519657 50.7809 16.7292)" fill="#E51536" stroke="white" stroke-width="1.5"/>
<rect x="63.6693" y="16.7292" width="13.2186" height="23.7511" rx="6.60932" transform="rotate(-0.519657 63.6693 16.7292)" fill="#E51536" stroke="white" stroke-width="1.5"/>
<rect x="77.6614" y="18.6529" width="11.9145" height="21.5299" rx="5.95725" transform="rotate(6.33146 77.6614 18.6529)" fill="#E51536" stroke="white" stroke-width="1.5"/>
<path d="M33.9433 59.2426C42.3445 64.3185 44.5054 74.3502 44.5973 80.3161C44.6152 81.4821 45.5294 82.4785 46.6956 82.483L94.0346 82.6671C95.2893 82.672 96.2399 81.5404 96.0017 80.3084C93.9928 69.9154 90.0006 51.3168 87.0241 44.4665L43.7387 43.3935C45.3591 39.2858 44.8524 33.8198 37.9076 32.7795C28.5926 31.384 25.3701 39.2123 24.3829 43.3935C23.9601 46.2163 24.4157 53.4862 33.9433 59.2426Z" fill="#E51536"/>
<path d="M38.8632 48.0746C39.4194 47.6985 42.8878 45.5504 43.7387 43.3935M43.7387 43.3935C45.3591 39.2858 44.8524 33.8198 37.9076 32.7795C28.5926 31.384 25.3701 39.2123 24.3829 43.3935C23.9601 46.2163 24.4157 53.4862 33.9433 59.2426C42.3445 64.3185 44.5054 74.3502 44.5973 80.3161C44.6152 81.4821 45.5294 82.4785 46.6956 82.4831L94.0346 82.6671C95.2893 82.672 96.2399 81.5404 96.0017 80.3084C93.9928 69.9154 90.0006 51.3168 87.0241 44.4665L43.7387 43.3935Z" stroke="white" stroke-width="1.5" stroke-linecap="round"/>
<path d="M68.502 53.9467C64.7436 50.1368 54.5595 42.9833 43.8902 44.8483" stroke="white" stroke-width="1.5" stroke-linecap="round"/>
</svg>
