<svg width="97" height="105" viewBox="0 0 97 105" fill="none" xmlns="http://www.w3.org/2000/svg">
<g clip-path="url(#clip0_983_442)">
<path d="M71.0772 89.4391H25.7538C25.3053 89.4391 25.0165 89.1536 25.0165 88.6993V31.5792C25.0165 31.2507 25.3206 30.9499 25.6155 30.9499L36.8074 30.9345C36.8074 30.9345 36.792 30.3881 36.7982 30.0996C36.8043 29.1234 36.8627 28.8778 37.8673 28.8747L43.6675 28.8501C44.0607 26.2899 45.8887 24.4542 48.3955 24.4235C50.9024 24.3928 52.8286 26.2592 53.2403 28.8501L59.019 28.8716C60.0175 28.8747 60.1526 29.1049 60.1035 30.0934C60.1219 30.3912 60.0697 30.6306 60.1342 30.9345L71.1816 30.9438C71.5872 30.9438 71.8913 31.2293 71.8913 31.6836V88.6931C71.8913 89.1567 71.6148 89.436 71.0772 89.436V89.4391ZM38.07 36.5799L59.3262 36.5707L59.3539 30.0075C59.3539 29.768 59.1573 29.6268 58.9361 29.6237H52.9761C52.5491 29.6237 52.2234 29.3597 52.2173 28.9238C52.1804 26.8056 50.4692 25.1541 48.3986 25.1817C46.328 25.2093 44.7182 26.8486 44.6905 28.9208C44.6844 29.3505 44.3556 29.6268 43.9348 29.6268H37.9748C37.7444 29.6237 37.5601 29.768 37.5601 30.0044L37.5539 36.1532C37.5539 36.408 37.6614 36.5799 38.0731 36.5799H38.07ZM68.9728 85.8474C68.9728 86.225 68.6932 86.532 68.3246 86.532H28.5771C28.2023 86.532 27.9227 86.2281 27.9227 85.8413V34.5999C27.9227 34.1947 28.2146 33.8969 28.5771 33.8969H36.7797V32.3129L26.3867 32.3221L26.402 88.0546H70.4996L70.515 32.3221H60.125L60.1188 33.8908L68.3215 33.9C68.6256 33.9 68.9666 34.1394 68.9666 34.5324V85.8474H68.9728ZM60.1403 35.3244C60.1465 36.3251 60.3493 37.2799 59.5505 37.2L37.3665 37.1264C36.7859 37.0987 36.875 36.6966 36.8627 34.6306C36.8627 34.4464 36.6231 34.4249 36.4418 34.4249L28.8167 34.4341C28.6293 34.4341 28.4788 34.5876 28.4788 34.778L28.488 85.6049C28.488 85.7952 28.6416 85.9457 28.829 85.9457H68.1617C68.3491 85.9457 68.5027 85.7922 68.5027 85.6049L68.5119 34.778C68.5119 34.5876 68.3583 34.4341 68.1709 34.4341L60.466 34.4249C60.294 34.4249 60.1403 34.5539 60.1281 34.7258C60.1158 34.8977 60.1373 35.0819 60.1373 35.3244H60.1403Z" fill="#E51536"/>
<path d="M40.7705 81.5804L34.6415 81.5896C33.9718 81.5896 33.4034 81.1568 33.4034 80.4476V74.1791C33.4034 73.5436 33.9196 73.077 34.534 73.077L40.5892 73.0709C41.219 73.0709 41.6737 73.5068 41.7382 74.133V80.509C41.6952 81.0401 41.3449 81.4637 40.7705 81.5835V81.5804ZM34.7675 74.4339V80.2082H40.3619V74.4339H34.7675Z" fill="#E51536"/>
<path d="M41.7412 69.9887C41.7412 70.6794 41.2405 71.1491 40.5953 71.1522L34.6415 71.1614C34.0148 71.1614 33.4096 70.7807 33.4096 70.1023V63.7324C33.4065 63.1062 33.9165 62.6488 34.5278 62.6488L40.7274 62.658C41.3173 62.658 41.7382 63.2167 41.7382 63.7754L41.7443 69.9857L41.7412 69.9887ZM40.3649 64.0087H34.7705V69.78H40.3649V64.0087Z" fill="#E51536"/>
<path d="M40.3404 48.9697C40.5155 48.1255 39.9656 46.4218 41.0101 46.3726C41.4064 46.3542 41.7474 46.6459 41.7413 47.1094L41.7228 49.3227C41.7167 50.0042 41.1238 50.3573 40.4786 50.3573L34.5248 50.3419C33.9503 50.3419 33.4096 49.9029 33.4096 49.2951V42.9037C33.4096 42.299 33.9687 41.8815 34.5279 41.8815H37.6277C38.0762 41.8784 38.3773 42.1302 38.4018 42.5477C38.4756 43.7786 35.8335 43.0388 34.7706 43.2875L34.7829 48.9758H40.3404V48.9697Z" fill="#E51536"/>
<path d="M40.3404 59.4378C40.5124 58.5752 39.9625 56.899 41.0132 56.8469C41.3603 56.8284 41.7197 57.0648 41.729 57.4915C41.7443 58.262 41.7658 59.0172 41.7197 59.7847C41.686 60.3802 41.1913 60.8161 40.5984 60.8131L34.5248 60.8069C33.8735 60.8069 33.3942 60.2973 33.3942 59.6619V53.4547C33.3942 52.81 33.8643 52.3035 34.5248 52.3035L37.7444 52.3097C38.1683 52.3097 38.3834 52.6688 38.3895 52.985C38.3988 53.4056 38.0793 53.6788 37.6215 53.6727L34.7705 53.6911L34.7613 59.4194L40.3373 59.4347L40.3404 59.4378Z" fill="#E51536"/>
<path d="M62.8377 53.5008H46.6844C46.245 53.5008 45.9993 53.1999 45.9808 52.8684C45.9593 52.4877 46.2082 52.1378 46.6844 52.1378L62.7271 52.1317C63.1726 52.1317 63.4706 52.3772 63.5044 52.761C63.532 53.0864 63.2801 53.5008 62.8408 53.5008H62.8377Z" fill="#E51536"/>
<path d="M62.8285 43.2445H46.6966C46.2665 43.2476 46.0115 42.959 45.9808 42.6336C45.947 42.2407 46.2235 41.8754 46.6874 41.8754L62.8285 41.8815C63.2432 41.8815 63.4828 42.2223 63.4982 42.5262C63.5136 42.8638 63.2586 43.2445 62.8254 43.2445H62.8285Z" fill="#E51536"/>
<path d="M62.8377 74.4461H46.6844C46.2512 74.4461 45.9993 74.1269 45.9808 73.8015C45.9563 73.4208 46.2082 73.0739 46.6844 73.0739H62.8223C63.2156 73.0739 63.4798 73.3962 63.5013 73.6879C63.5289 74.0194 63.2739 74.4431 62.8377 74.4431V74.4461Z" fill="#E51536"/>
<path d="M62.8315 64.021H46.6782C46.2266 64.021 45.9839 63.6711 45.9808 63.3334C45.9777 62.9957 46.2174 62.6458 46.672 62.6458H62.724C63.1725 62.6458 63.4368 62.876 63.4982 63.2659C63.5473 63.5698 63.2893 64.021 62.8315 64.021Z" fill="#E51536"/>
<path d="M37.4494 58.0318C36.9087 57.5253 36.4203 57.0434 35.9502 56.5307C35.6922 56.2483 35.7905 55.8093 36.0393 55.5944C36.2882 55.3795 36.6875 55.3642 36.9579 55.6312L37.8888 56.5399L42.2451 52.2084C42.5093 51.9475 42.9486 51.9659 43.1944 52.1992C43.4401 52.4325 43.5046 52.8715 43.2066 53.1692L38.454 57.9275C38.199 58.1853 37.772 58.3357 37.4494 58.0349V58.0318Z" fill="#E51536"/>
<path d="M37.3542 47.49L35.9533 46.0595C35.6983 45.7986 35.7874 45.3258 36.0301 45.1201C36.2728 44.9145 36.6968 44.9053 36.9579 45.1601L37.8918 46.0687L42.2451 41.7403C42.5154 41.4732 42.9301 41.4824 43.1913 41.7249C43.3756 41.8968 43.5292 42.3604 43.2558 42.6367L38.454 47.4624C38.1315 47.7848 37.6829 47.8277 37.3542 47.4931V47.49Z" fill="#E51536"/>
<path d="M54.7334 77.9826L46.6905 77.9918C46.2696 77.9918 45.9992 77.6971 45.9777 77.3655C45.9532 76.9818 46.2143 76.6104 46.672 76.6104L54.7487 76.6165C55.1512 76.6165 55.3939 76.9634 55.4154 77.2734C55.4369 77.6203 55.1604 77.9826 54.7303 77.9826H54.7334Z" fill="#E51536"/>
<path d="M54.7426 57.0955H46.6751C46.2726 57.0986 45.9931 56.7732 45.9808 56.4386C45.9685 56.0763 46.2481 55.7202 46.6905 55.7202H54.7426C55.1297 55.7202 55.3908 56.0487 55.4184 56.3495C55.4522 56.7056 55.1788 57.0955 54.7456 57.0955H54.7426Z" fill="#E51536"/>
<path d="M54.8224 46.781L46.672 46.7963C46.245 46.7963 45.9685 46.4494 45.9746 46.1117C45.9808 45.7741 46.2327 45.4302 46.6659 45.4302H54.7702C55.1481 45.4302 55.3662 45.7127 55.4123 46.0289C55.4461 46.2683 55.2863 46.781 54.8224 46.781Z" fill="#E51536"/>
<path d="M54.6412 67.6096L46.6597 67.6004C46.2204 67.6004 45.9777 67.2443 45.9777 66.9097C45.9777 66.483 46.3157 66.2252 46.7857 66.2252L54.7548 66.2344C55.1757 66.2344 55.4123 66.5997 55.4154 66.9281C55.4184 67.3334 55.0959 67.6096 54.6381 67.6096H54.6412Z" fill="#E51536"/>
<path d="M57.0805 35.8586H39.2589C38.4817 35.8586 38.0209 35.6836 38.0239 35.5117C38.0239 35.3551 38.4878 35.1771 39.2497 35.1771H57.0805C57.8669 35.1771 58.3308 35.352 58.3339 35.5117C58.3401 35.6867 57.8669 35.8586 57.0835 35.8586H57.0805Z" fill="#E51536"/>
<path d="M48.4508 31.1863C49.7081 31.1863 50.7273 30.1678 50.7273 28.9115C50.7273 27.6552 49.7081 26.6368 48.4508 26.6368C47.1936 26.6368 46.1744 27.6552 46.1744 28.9115C46.1744 30.1678 47.1936 31.1863 48.4508 31.1863Z" stroke="#E51536" stroke-width="2" stroke-miterlimit="10"/>
<path d="M91.5592 13.851C90.1245 14.5233 89.1814 15.0206 87.7467 16.1718C87.504 16.3683 87.1107 16.6875 86.2905 17.3506C85.7436 17.7957 84.4472 18.8487 84.4472 18.8487C84.4472 18.8487 83.3596 19.7266 82.7575 20.2147C81.6669 21.1019 80.991 21.6514 80.6377 21.94C79.2153 23.1065 78.5333 23.9261 77.5809 25.1909C79.0156 24.5186 79.9588 24.0213 81.3935 22.8701C81.7468 22.5846 82.4257 22.0351 83.5194 21.151C84.1215 20.6629 85.2029 19.7788 85.2029 19.7788C85.2029 19.7788 86.5025 18.729 87.0493 18.2869C87.8665 17.6207 88.2597 17.3015 88.5024 17.105C89.9248 15.9385 90.6068 15.1188 91.5592 13.8541V13.851Z" fill="#001A52"/>
<path d="M97 41.6144C95.4639 41.2184 94.4224 41.0035 92.5822 40.979C92.2689 40.9759 91.762 40.9698 90.7082 40.9605C90.0016 40.9544 88.3334 40.9452 88.3334 40.9452C88.3334 40.9452 86.9356 40.9298 86.1614 40.9237C84.7544 40.9145 83.8819 40.9084 83.4272 40.9053C81.587 40.8991 80.5394 41.0987 78.9972 41.4671C80.5333 41.8631 81.5747 42.078 83.4149 42.1025C83.8696 42.1056 84.7421 42.1148 86.1492 42.1301C86.9233 42.1363 88.3212 42.1455 88.3212 42.1455C88.3212 42.1455 89.9924 42.1608 90.6959 42.1701C91.7497 42.1762 92.2566 42.1793 92.5699 42.1823C94.4102 42.1885 95.4578 41.9889 97 41.6206V41.6144Z" fill="#001A52"/>
<path d="M96.2412 67.8859C94.9877 66.9189 94.1122 66.308 92.4317 65.5621C92.146 65.4362 91.6821 65.2305 90.7175 64.8069C90.0723 64.5245 88.5424 63.8553 88.5424 63.8553C88.5424 63.8553 87.2644 63.2904 86.5547 62.9773C85.2644 62.4124 84.4656 62.0656 84.0509 61.8814C82.3612 61.1508 81.3228 60.9205 79.7591 60.6534C81.0125 61.6204 81.8881 62.2313 83.5686 62.9804C83.9864 63.1646 84.7821 63.5145 86.0693 64.0824C86.779 64.3925 88.06 64.9512 88.06 64.9512C88.06 64.9512 89.59 65.6235 90.2351 65.909C91.2028 66.3295 91.6667 66.5352 91.9524 66.658C93.6421 67.3886 94.6805 67.6189 96.2442 67.8859H96.2412Z" fill="#001A52"/>
<path d="M0 41.6145C1.54222 41.9828 2.58675 42.1824 4.43004 42.1762C4.7434 42.1762 5.2503 42.1701 6.30405 42.164C7.00757 42.1578 8.67882 42.1394 8.67882 42.1394C8.67882 42.1394 10.0766 42.1302 10.8508 42.124C12.2579 42.1087 13.1304 42.1026 13.585 42.0964C15.4253 42.0719 16.4698 41.857 18.0028 41.461C16.4606 41.0926 15.416 40.893 13.5728 40.8992C13.1181 40.9023 12.2456 40.9084 10.8385 40.9176C10.0644 40.9268 8.66653 40.9391 8.66653 40.9391C8.66653 40.9391 6.99528 40.9514 6.29176 40.9544C5.23801 40.9637 4.73111 40.9698 4.41775 40.9729C2.57753 40.9974 1.533 41.2123 0 41.6083V41.6145Z" fill="#001A52"/>
<path d="M0.75885 67.8859C2.32257 67.6188 3.36096 67.3886 5.05064 66.658C5.33635 66.5321 5.80025 66.3295 6.76797 65.909C7.41312 65.6235 8.94305 64.9512 8.94305 64.9512C8.94305 64.9512 10.2241 64.3925 10.9338 64.0824C12.221 63.5145 13.0198 63.1645 13.4345 62.9803C15.1181 62.2313 15.9906 61.6235 17.244 60.6565C15.6803 60.9236 14.6419 61.1538 12.9522 61.8844C12.5344 62.0655 11.7356 62.4155 10.4484 62.9803C9.73874 63.2935 8.46073 63.8583 8.46073 63.8583C8.46073 63.8583 6.9308 64.5275 6.28564 64.81C5.32099 65.2367 4.8571 65.4393 4.57139 65.5651C2.89092 66.3142 2.01536 66.922 0.761922 67.8921L0.75885 67.8859Z" fill="#001A52"/>
<path d="M71.8698 3.31232C70.9052 4.56787 70.2969 5.44277 69.5534 7.12503C69.4275 7.41052 69.2247 7.87406 68.8008 8.84106C68.5212 9.48879 67.8545 11.0176 67.8545 11.0176C67.8545 11.0176 67.2923 12.2977 66.982 13.0068C66.4229 14.2961 66.0758 15.0973 65.8945 15.5118C65.1664 17.2032 64.9391 18.2408 64.6749 19.8034C65.6395 18.5478 66.2478 17.6729 66.9913 15.9907C67.1725 15.5732 67.5227 14.775 68.088 13.4888C68.3952 12.7796 68.9513 11.4964 68.9513 11.4964C68.9513 11.4964 69.621 9.96768 69.9037 9.32302C70.3245 8.35603 70.5242 7.88941 70.6502 7.60392C71.3783 5.91245 71.6056 4.87485 71.8698 3.31232Z" fill="#001A52"/>
<path d="M49.0653 0C48.6935 1.54105 48.4938 2.58479 48.4969 4.42361C48.4969 4.73673 48.5 5.24325 48.5061 6.29619C48.5123 7.00225 48.5276 8.66916 48.5276 8.66916C48.5276 8.66916 48.5338 10.0659 48.5399 10.8395C48.5522 12.2455 48.5584 13.1173 48.5645 13.5717C48.586 15.4105 48.8011 16.4542 49.1943 17.9891C49.566 16.4481 49.7657 15.4043 49.7626 13.5655C49.7626 13.1112 49.7565 12.2394 49.7473 10.8334C49.7411 10.0598 49.7289 8.66302 49.7289 8.66302C49.7289 8.66302 49.7196 6.99304 49.7166 6.29005C49.7073 5.23711 49.7012 4.73059 49.7012 4.41747C49.6797 2.57865 49.4646 1.53491 49.0714 0L49.0653 0Z" fill="#001A52"/>
<path d="M6.70038 14.1181C7.65274 15.3829 8.33476 16.2025 9.75717 17.369C9.99987 17.5655 10.3931 17.8848 11.2103 18.5509C11.7571 18.993 13.0567 20.0428 13.0567 20.0428C13.0567 20.0428 14.1411 20.9239 14.7402 21.415C15.8339 22.2992 16.5128 22.8486 16.8661 23.1341C18.3008 24.2853 19.244 24.7826 20.6787 25.4549C19.7263 24.1902 19.0443 23.3705 17.6219 22.204C17.2686 21.9154 16.5927 21.3659 15.5021 20.4787C14.8999 19.9906 13.8124 19.1127 13.8124 19.1127C13.8124 19.1127 12.516 18.0597 11.9691 17.6146C11.1488 16.9515 10.7556 16.6323 10.5129 16.4358C9.07822 15.2846 8.13507 14.7873 6.70038 14.115V14.1181Z" fill="#001A52"/>
<path d="M26.3898 3.57941C26.654 5.14194 26.8813 6.17954 27.6094 7.87101C27.7323 8.1565 27.9351 8.62311 28.3559 9.59011C28.6386 10.2348 29.3083 11.7635 29.3083 11.7635C29.3083 11.7635 29.8644 13.0467 30.1716 13.7558C30.7369 15.0452 31.084 15.8433 31.2683 16.2577C32.0118 17.94 32.6201 18.8149 33.5847 20.0705C33.3205 18.5079 33.0932 17.4703 32.3651 15.7789C32.1838 15.3614 31.8367 14.5632 31.2776 13.2739C30.9673 12.5648 30.4051 11.2846 30.4051 11.2846C30.4051 11.2846 29.7384 9.75281 29.4588 9.10815C29.0349 8.14422 28.8321 7.67761 28.7062 7.39212C27.9627 5.70986 27.3544 4.83496 26.3898 3.57941Z" fill="#001A52"/>
<path d="M48.5 105.003C67.8288 105.003 83.4979 103.22 83.4979 101.022C83.4979 98.8226 67.8288 97.04 48.5 97.04C29.1712 97.04 13.5021 98.8226 13.5021 101.022C13.5021 103.22 29.1712 105.003 48.5 105.003Z" fill="#E51536"/>
<path d="M48.5 101.635C64.4185 101.635 77.3229 100.745 77.3229 99.6462C77.3229 98.5476 64.4185 97.657 48.5 97.657C32.5816 97.657 19.6771 98.5476 19.6771 99.6462C19.6771 100.745 32.5816 101.635 48.5 101.635Z" fill="#FF8B9D"/>
</g>
<defs>
<clipPath id="clip0_983_442">
<rect width="97" height="105" fill="white"/>
</clipPath>
</defs>
</svg>
