<svg width="102" height="83" viewBox="0 0 102 83" fill="none" xmlns="http://www.w3.org/2000/svg">
<path d="M40 81.5001H2.6302C1.71068 81.5001 1.27307 80.3565 1.94347 79.7271C11.0313 71.1959 12.6674 65.8441 12 56.5001C11.5 49.5001 5.7 43.6001 2.5 40.0001C-0.7 36.4001 2.83333 33.6715 5 32.7572C2.82492 29.2856 6.25526 26.8623 8.57639 26.0001C8.44909 23.6686 10.9722 22.1873 12.5 21.6824C12.2042 21.2766 12.1929 20.6961 12.6059 20.4105C16.8693 17.4622 28.7992 29.3492 34.5 36.0001C36.6667 33.5001 41.8 33.6001 45 54.0001C48.2 74.4001 43 80.8335 40 81.5001Z" fill="#001A52"/>
<path d="M34.5 36.0001C36.6667 33.5001 41.8 33.6001 45 54.0001C48.2 74.4001 43 80.8335 40 81.5001H2.6302C1.71068 81.5001 1.27307 80.3565 1.94347 79.7271C11.0313 71.1959 12.6674 65.8441 12 56.5001C11.5 49.5001 5.7 43.6001 2.5 40.0001C-0.7 36.4001 2.83333 33.6715 5 32.7572M34.5 36.0001C34.8333 40.6668 34.5 51.2001 30.5 56.0001M34.5 36.0001C28.7992 29.3492 16.8693 17.4622 12.6059 20.4105C12.1929 20.6961 12.2042 21.2766 12.5 21.6824M26 45.0001C26 41.1384 17.3007 28.2666 12.5 21.6824M12.5 21.6824C10.9722 22.1873 8.44909 23.6686 8.57639 26.0001M21 47.5001C21.5 40.5001 11 31.5001 9 27.5001C8.73333 26.9668 8.60185 26.4664 8.57639 26.0001M8.57639 26.0001C6.25526 26.8623 2.82492 29.2856 5 32.7572M15.5 50.5001C14.5 47.0001 11.3 38.9001 6.5 34.5001C5.83852 33.8938 5.34766 33.3121 5 32.7572" stroke="white" stroke-linecap="round"/>
<path d="M44.5 27.0001C44.3815 26.7038 44.2672 26.3668 44.1664 26.0001M54.5 25.0001C54.5 24.6901 54.4875 24.3535 54.4602 24.0001M54.4602 24.0001C53.8118 20.7768 52.6909 16.0568 48 17.5001C43.4163 18.9105 43.8808 23.0001 44.1664 26.0001M54.4602 24.0001C53.6795 20.1191 52.827 12.3317 61 8.88384M62 8.50012C61.6533 8.62072 61.3201 8.74881 61 8.88384M61 8.88384C56.3102 10.8621 48.2938 12.0294 52.5722 1.50012M53 0.500122C52.8456 0.844621 52.7031 1.17785 52.5722 1.50012M52.5722 1.50012C51.0907 6.19827 46.752 12.8176 41 2.89792M40.5 2.00012C40.6678 2.31337 40.8345 2.61249 41 2.89792M41 2.89792C43.4659 7.53447 45.348 16.0632 33.5 13.6084M33 13.5001C33.1693 13.5384 33.336 13.5744 33.5 13.6084M33.5 13.6084C37.6109 14.739 43.5 19.0001 44.1664 26.0001" stroke="#001A52" stroke-linecap="round"/>
<path d="M98.7795 82.0001H59.5C49.9 79.6001 53.5 59.3334 56.5 49.5001C58.3333 43.8334 62.6 31.4001 65 27.0001C67.4 22.6001 71.4745 23.1668 73.2118 24.0001C73.3096 23.8242 73.4057 23.6572 73.5 23.5001C75.9 19.5001 79.5 21.2991 81 22.6986C81.5212 22.0004 82.0248 21.4225 82.5 21.0001C86.1 17.8001 88.6667 21.15 89.5 23.2249C90.5083 22.5667 91.5455 22.2274 92.5 22.5001C95.3 23.3001 94 26.8334 93 28.5001C88.6 35.3001 86.8333 42.0608 86.5 44.5911C89.8241 41.248 93.4852 39.5303 95.5 39.0001C97.5 39.5001 97.1667 42.1668 96.5 43.5001C95.1667 45.1668 92.4 51.0001 92 61.0001C91.6683 69.2926 96.1272 76.3243 99.5604 80.0996C100.186 80.788 99.7099 82.0001 98.7795 82.0001Z" fill="#001A52"/>
<path d="M67.5 60.0001C73.9 52.4001 79.5 51.5001 81.5 52.0001C82.8095 48.9447 84.5997 46.5023 86.5 44.5911M86.5 44.5911C89.8241 41.248 93.4852 39.5303 95.5 39.0001C97.5 39.5001 97.1667 42.1668 96.5 43.5001C95.1667 45.1668 92.4 51.0001 92 61.0001C91.6683 69.2926 96.1272 76.3243 99.5604 80.0996C100.186 80.788 99.7099 82.0001 98.7795 82.0001H59.5C49.9 79.6001 53.5 59.3334 56.5 49.5001C58.3333 43.8334 62.6 31.4001 65 27.0001C67.4 22.6001 71.4745 23.1668 73.2118 24.0001M86.5 44.5911C86.8333 42.0608 88.6 35.3001 93 28.5001C94 26.8334 95.3 23.3001 92.5 22.5001C91.5455 22.2274 90.5083 22.5667 89.5 23.2249M77.5 42.0001L84.7827 28.5001C85.7092 26.9622 87.5505 24.4975 89.5 23.2249M89.5 23.2249C88.6667 21.15 86.1 17.8001 82.5 21.0001C82.0248 21.4225 81.5212 22.0004 81 22.6986M71.5 42.0001C73.3807 37.0814 77.572 27.2903 81 22.6986M81 22.6986C79.5 21.2991 75.9 19.5001 73.5 23.5001C73.4057 23.6572 73.3096 23.8242 73.2118 24.0001M66 42.5001C67.4411 38.0168 70.8204 28.3032 73.2118 24.0001M79 43.0001C75.8333 42.3941 68 41.8639 62 44.5911" stroke="white" stroke-linecap="round"/>
</svg>
