<svg width="79" height="87" viewBox="0 0 79 87" fill="none" xmlns="http://www.w3.org/2000/svg">
<g clip-path="url(#clip0_9_2)">
<path d="M44.1654 43.5734C49.413 47.811 56.9392 48.5693 61.9455 53.0863C66.7173 57.3971 68.1716 64.156 69.3779 70.4492C69.6058 71.6266 69.9007 73.5825 68.8485 74.5071C67.8633 75.3786 65.6249 74.9728 64.4252 74.9861C60.5046 75.046 56.584 75.046 52.6634 75.0393C45.8677 75.0393 39.072 75.026 32.283 75.0194C26.5797 75.0194 20.8697 75.0127 15.1664 75.0061C12.2645 75.0061 9.36926 75.0061 6.46735 74.9994C4.879 74.9994 1.74252 75.5516 0.797552 73.8685C0.268103 72.9305 0.382035 71.7863 0.502669 70.7219C0.985205 66.5442 1.48114 62.3199 3.02258 58.4016C4.62433 54.3303 7.43912 50.8777 11.4133 48.9153C16.3258 46.4871 21.7208 44.7176 26.8411 42.7618C27.0689 45.2431 28.6305 47.465 30.6142 49.0017C32.598 50.5385 34.9705 51.4764 37.3429 52.2947C38.7637 52.7803 40.9217 53.5453 42.242 52.5275C43.5623 51.5097 44.4201 50.2191 44.6413 48.5095C44.8624 46.7998 44.5207 45.1699 44.1923 43.5268" fill="#001A52"/>
<path d="M43.8839 43.8528C47.4426 46.68 51.8324 47.9706 55.9205 49.82C58.0115 50.7713 60.0556 51.8889 61.7578 53.4522C63.4601 55.0155 64.7402 56.9248 65.7187 58.987C66.6971 61.0493 67.374 63.2579 67.9169 65.4731C68.4597 67.6884 69.0763 69.8371 69.1835 72.0058C69.2439 73.1633 69.0026 74.3275 67.6957 74.587C66.7373 74.7799 65.7388 74.6269 64.767 74.6003C61.9924 74.5271 59.191 74.6468 56.4097 74.6535C44.6881 74.6601 32.9665 74.6335 21.2382 74.6269C15.8432 74.6269 10.4147 74.4273 5.02639 74.6734C4.09483 74.7134 3.10295 74.7666 2.20489 74.4739C0.951642 74.0681 0.723778 72.8507 0.784095 71.6732C0.931536 68.959 1.37386 66.1783 1.92342 63.5173C2.90189 58.7875 4.84544 54.2039 8.71242 51.0906C10.7029 49.4874 13.1089 48.4895 15.4478 47.5049C17.9945 46.4339 20.5949 45.4893 23.1885 44.5313C24.435 44.0723 25.6816 43.6133 26.9214 43.141L26.4188 42.7618C27.0689 48.5693 32.8861 51.2569 37.8254 52.8801C38.9178 53.2393 40.1443 53.5853 41.3037 53.3458C42.3291 53.1329 43.1467 52.3346 43.77 51.5363C45.6063 49.1747 45.0836 46.1345 44.5407 43.4204C44.4402 42.9281 43.6829 43.1343 43.7767 43.6266C44.2592 46.0414 44.8088 48.8088 43.2271 50.9509C42.5301 51.8955 41.6254 52.6606 40.3922 52.6273C39.3668 52.6007 38.375 52.2415 37.4166 51.9088C33.0537 50.3987 27.7793 47.924 27.2029 42.7551C27.1761 42.5289 26.9684 42.2761 26.7003 42.3759C21.3656 44.4116 15.7762 46.1013 10.7297 48.8022C6.58123 51.0241 3.74633 54.9357 2.2384 59.2997C1.30684 62.0006 0.817604 64.8279 0.449 67.6551C0.26805 69.0255 0.0334836 70.4159 -0.0201315 71.7929C-0.0536409 72.7842 0.100502 73.9018 0.871219 74.6069C2.17138 75.7977 4.3495 75.4518 5.95125 75.3919C8.89338 75.2788 11.8556 75.3853 14.7977 75.3919C27.4107 75.4052 40.0236 75.4119 52.6366 75.4252C55.6859 75.4252 58.7353 75.4252 61.7847 75.4052C63.0848 75.3919 64.3783 75.3586 65.6717 75.4252C66.5966 75.4717 67.6287 75.5316 68.4999 75.1458C70.343 74.3408 70.0213 71.926 69.7264 70.3361C69.2707 67.9146 68.7747 65.4865 68.0777 63.1248C66.7575 58.6611 64.5927 54.4235 60.7325 51.6294C56.8722 48.8354 51.8391 47.618 47.5431 45.3163C46.444 44.7309 45.3918 44.0656 44.4201 43.294C44.0247 42.9813 43.4617 43.5334 43.8638 43.8461L43.8839 43.8528Z" fill="#001A52"/>
<path d="M43.9846 40.0077C44.313 40.1274 44.1521 40.4933 44.132 40.7927C44.0985 41.1785 44.0784 41.571 44.0583 41.9568C44.0248 42.7352 44.0181 43.5135 44.0382 44.2918C44.0784 45.8352 44.2258 47.3719 44.4738 48.8887C44.628 49.8133 44.7888 50.8644 44.2057 51.6095C43.8639 52.0419 43.3278 52.2747 42.7983 52.4411C40.2918 53.2061 37.5642 52.7205 35.0845 51.8556C33.1677 51.1837 31.3046 50.279 29.7833 48.9485C28.7043 48.0039 27.7995 46.8397 27.2433 45.5225C26.6334 44.0723 27.4577 42.7618 27.8062 41.2916C28.5166 38.2847 28.711 35.1581 28.3692 32.0846C28.2888 31.3529 28.329 30.3018 27.766 29.7696C27.2366 29.2707 26.3988 29.0511 25.8359 28.5189C24.6362 27.388 23.8789 25.7781 23.8588 24.1283C23.8521 23.4099 23.9928 22.6515 24.4687 22.1193C25.1054 21.4075 26.238 21.2678 27.136 21.6137C27.7392 21.8465 28.2016 22.259 28.6373 22.718C29.1198 23.2369 29.1131 23.4165 29.7699 23.024C30.2658 22.7313 30.6947 22.1991 30.9896 21.7135C31.0767 21.5671 31.4923 20.2899 31.5325 20.2832C32.9935 19.8708 34.2601 18.8263 34.937 17.4759C35.6139 16.1255 35.6943 14.4956 35.1448 13.0853C39.9969 15.8128 46.0085 16.4248 51.3164 14.7285C51.2293 20.1768 51.1489 25.6384 50.5256 31.0535C50.2977 33.0625 49.9627 35.1314 48.8367 36.8145C47.2752 39.1495 44.2929 40.3536 41.4781 40.1008C38.6633 39.848 36.0696 38.2714 34.2735 36.1093" fill="white"/>
<path d="M43.6896 40.5199L43.8304 40.6197L43.5556 40.2671C43.6963 40.6197 43.4953 41.2983 43.4752 41.6708C43.4484 42.203 43.435 42.7418 43.4283 43.2807C43.4283 44.4981 43.4819 45.7088 43.6092 46.9196C43.7232 47.9972 44.0381 49.1215 44.018 50.2059C43.9979 51.5962 42.7916 51.9288 41.6121 52.1284C39.186 52.5409 36.6661 51.8823 34.4209 50.9975C32.2897 50.1593 30.2189 48.9352 28.8249 47.0925C28.2083 46.2809 27.5381 45.2631 27.6185 44.2054C27.7056 43.0611 28.2753 41.9568 28.5099 40.8326C29.0058 38.4909 29.2069 36.0761 29.0795 33.6879C28.9857 31.9316 29.1466 29.8494 27.4443 28.8449C26.4993 28.2861 25.7822 27.7938 25.2058 26.8093C24.663 25.8779 24.3346 24.7404 24.4619 23.656C24.6362 22.1792 26.0503 21.6137 27.3169 22.3721C28.0005 22.7846 28.5099 23.9288 29.4012 23.8157C30.2926 23.7026 31.1102 22.7513 31.4922 22.0262C31.7268 21.5805 31.7737 21.015 32.0351 20.5959L31.6799 20.8687C35.0509 19.8242 36.9006 16.2785 35.7077 12.9456L34.8365 13.6109C39.883 16.3982 45.9549 17.0302 51.4638 15.3139L50.7132 14.7484C50.6261 20.1968 50.5457 25.6518 49.9224 31.0735C49.6476 33.4284 49.1986 35.9364 47.369 37.6261C45.7605 39.1096 43.4484 39.7615 41.2904 39.5088C38.6632 39.2027 36.3645 37.6793 34.689 35.7102C34.1998 35.1315 33.362 35.9697 33.8513 36.5418C36.9408 40.174 42.1683 42.0433 46.5849 39.6218C48.7831 38.4178 50.0832 36.3422 50.6462 33.9606C51.303 31.1733 51.4236 28.2196 51.5845 25.3724C51.7855 21.8333 51.8391 18.2942 51.8995 14.7484C51.8995 14.3759 51.5174 14.0699 51.1488 14.183C45.9348 15.8062 40.2114 15.2407 35.4329 12.5997C35.0107 12.3669 34.3807 12.7594 34.5617 13.2649C35.0777 14.7152 35.004 16.3117 34.1663 17.6422C33.8178 18.1944 33.3486 18.68 32.8125 19.0525C32.5578 19.2322 32.283 19.3852 32.0016 19.5116C31.7402 19.6313 31.385 19.6646 31.1638 19.8508C30.7081 20.2234 30.6813 21.0549 30.3998 21.5539C30.239 21.8399 30.0044 22.1193 29.7497 22.3322C29.6559 22.412 29.3342 22.6848 29.2136 22.6715C29.3074 22.6781 29.3677 22.6582 29.2672 22.5717C28.7981 22.1725 28.4496 21.6936 27.9067 21.3676C26.9684 20.8021 25.7085 20.6691 24.7166 21.2013C23.7247 21.7335 23.336 22.738 23.2623 23.7891C23.1015 26.2305 24.5021 28.5788 26.6132 29.743C27.3303 30.1421 27.6118 30.5147 27.6989 31.3329C27.7727 32.0115 27.833 32.6967 27.8732 33.3752C27.9737 34.9718 27.9335 36.575 27.7526 38.1583C27.5716 39.7416 27.2365 41.1519 26.7741 42.6221C26.3921 43.8195 26.2916 44.9172 26.8277 46.0813C27.9737 48.5494 30.1988 50.3389 32.6248 51.5031C35.0509 52.6673 38.0534 53.6119 40.8682 53.399C42.1281 53.3059 43.7433 53.0664 44.6078 52.0419C45.4723 51.0175 45.1373 49.5273 44.9563 48.29C44.7016 46.5869 44.5877 44.8573 44.6011 43.1343C44.6078 42.3493 44.6212 41.5511 44.7083 40.7727C44.7686 40.2139 44.7619 39.848 44.266 39.5088C43.636 39.0763 43.0463 40.0942 43.6695 40.5266L43.6896 40.5199Z" fill="#001A52"/>
<path d="M44.0247 23.2834C43.7968 24.4875 43.7901 25.7116 44.0247 26.909C44.1386 27.4811 44.3665 28.0333 44.4603 28.6054C44.534 29.0245 44.4402 29.7629 43.8705 29.7762C43.3612 29.7895 43.3612 30.5745 43.8705 30.5612C44.4402 30.5412 44.8959 30.1887 45.1238 29.6764C45.3986 29.0711 45.2578 28.4058 45.0769 27.7938C44.6547 26.3768 44.5139 24.9465 44.7887 23.483C44.8825 22.9907 44.1185 22.7779 44.0247 23.2768V23.2834Z" fill="#001A52"/>
<path d="M47.5633 25.4123C48.0445 25.4123 48.4345 25.0251 48.4345 24.5474C48.4345 24.0698 48.0445 23.6826 47.5633 23.6826C47.0821 23.6826 46.692 24.0698 46.692 24.5474C46.692 25.0251 47.0821 25.4123 47.5633 25.4123Z" fill="#001A52" stroke="#001A52" stroke-width="0.241268" stroke-miterlimit="10"/>
<path d="M38.6565 25.0197C39.1858 25.0197 39.6149 24.5938 39.6149 24.0684C39.6149 23.543 39.1858 23.1171 38.6565 23.1171C38.1272 23.1171 37.6982 23.543 37.6982 24.0684C37.6982 24.5938 38.1272 25.0197 38.6565 25.0197Z" fill="#001A52" stroke="#001A52" stroke-width="0.261373" stroke-miterlimit="10"/>
<path d="M41.3037 20.5427C41.0088 20.689 40.5464 20.5959 40.2515 20.5626C38.891 20.4096 37.5037 20.4096 36.15 20.556C36.3644 20.0903 36.9609 19.771 37.6043 19.6446C38.194 19.5248 38.7905 19.5581 39.387 19.6113C39.9834 19.6645 40.5464 19.6978 41.1295 19.7976C41.2702 19.8242 41.431 19.8575 41.5115 19.9772C41.5718 20.0703 41.5718 20.1967 41.5316 20.3032C41.4847 20.4229 41.4042 20.4961 41.3037 20.5493V20.5427Z" fill="#001A52"/>
<path d="M41.2099 20.3763C40.9284 20.5094 40.5531 20.4029 40.2582 20.3763C39.8025 20.3231 39.3468 20.2899 38.891 20.2766C37.9796 20.2433 37.0614 20.2766 36.1567 20.3697L36.3242 20.6557C36.4985 20.2965 36.8738 20.0703 37.2424 19.9439C37.7383 19.771 38.2678 19.7444 38.7838 19.7643C39.3401 19.7843 39.8963 19.8375 40.4459 19.8974C40.7006 19.924 40.9753 19.9439 41.2233 20.0171C41.3104 20.0437 41.3774 20.0836 41.3707 20.1834C41.3573 20.2766 41.2903 20.3431 41.2099 20.3896C40.9954 20.5094 41.1898 20.8354 41.4043 20.7156C41.7796 20.5094 41.9136 19.9306 41.478 19.7044C41.2702 19.598 41.0155 19.5847 40.7877 19.5581C40.5263 19.5248 40.2582 19.4982 39.9969 19.4716C38.9983 19.3851 37.9327 19.2454 36.981 19.6379C36.5789 19.8042 36.1835 20.0637 35.9891 20.4628C35.9355 20.5759 35.9958 20.7688 36.1567 20.7489C37.1016 20.6491 38.0466 20.6225 38.9983 20.6624C39.454 20.6823 39.9097 20.7156 40.3588 20.7688C40.714 20.8154 41.0759 20.8686 41.4043 20.709C41.6254 20.6025 41.4311 20.2766 41.2099 20.383V20.3763Z" fill="#001A52"/>
<path d="M46.3435 20.7355C46.3435 20.7355 46.377 20.7954 46.4038 20.8287C46.4575 20.8819 46.5312 20.9152 46.6049 20.9418C46.8931 21.0416 47.2014 21.0615 47.5097 21.0748C47.7777 21.0815 48.0592 21.1147 48.3273 21.1413C48.9104 21.1946 49.5001 21.2877 50.0229 21.5205C50.0698 21.5405 50.2373 21.6203 50.2842 21.5804C50.3177 21.5471 50.2373 21.4274 50.2239 21.3941C50.1569 21.2677 50.0698 21.148 49.9625 21.0416C49.7481 20.8287 49.4733 20.6557 49.1717 20.536C48.8299 20.4029 48.468 20.3297 48.0994 20.2898C47.9118 20.2699 47.7308 20.2566 47.5432 20.2499C47.3555 20.2433 47.1746 20.2033 46.9869 20.1967C46.8261 20.1967 46.6652 20.2167 46.5379 20.2898C46.3837 20.3763 46.2765 20.5759 46.3435 20.7355Z" fill="#001A52"/>
<path d="M46.1894 20.8221C46.3369 21.1281 46.7926 21.1813 47.0942 21.2146C47.4427 21.2545 47.7979 21.2545 48.1464 21.2877C48.4949 21.321 48.83 21.3543 49.1718 21.4274C49.4801 21.494 49.7615 21.5937 50.0497 21.7068C50.1637 21.7534 50.2977 21.7867 50.3982 21.7068C50.5256 21.6071 50.4652 21.4474 50.3982 21.3276C50.2508 21.0549 50.0497 20.8354 49.7951 20.6558C49.2388 20.2566 48.5284 20.1236 47.8515 20.077C47.6504 20.0637 47.4561 20.057 47.255 20.0304C47.054 20.0038 46.8663 19.9905 46.6787 20.0304C46.3503 20.1036 46.0353 20.4163 46.1626 20.7688C46.2363 20.9817 46.5848 20.8886 46.5111 20.6757C46.424 20.4296 46.7792 20.3564 46.9468 20.3564C47.1143 20.3564 47.2684 20.383 47.4293 20.403C47.5901 20.4229 47.751 20.4229 47.9118 20.4296C48.5083 20.4761 49.1249 20.6025 49.6141 20.9551C49.7347 21.0416 49.8554 21.148 49.9492 21.2678C49.9961 21.3276 50.0296 21.3875 50.0698 21.454C50.0832 21.474 50.0899 21.494 50.1033 21.5139C50.1033 21.5139 50.1167 21.5339 50.11 21.5339C50.1368 21.5605 50.0564 21.5871 50.1301 21.4673L50.1972 21.4008C50.2374 21.3742 50.2843 21.4008 50.2173 21.3809C50.2039 21.3809 50.1502 21.3543 50.1569 21.3609C50.0966 21.3343 50.0363 21.3077 49.976 21.2811C49.8219 21.2212 49.6677 21.168 49.5069 21.1281C49.1651 21.0416 48.8233 20.9884 48.4748 20.9551C48.1263 20.9218 47.7644 20.8886 47.4025 20.8686C47.2349 20.862 47.0674 20.8487 46.9065 20.8154C46.7792 20.7888 46.5647 20.7622 46.5044 20.6291C46.4642 20.5427 46.3369 20.5227 46.2565 20.5626C46.1693 20.6158 46.1492 20.7223 46.1894 20.8088V20.8221Z" fill="#001A52"/>
<path d="M43.8103 34.0936C43.9443 33.6945 43.884 33.0625 43.4416 32.8629C43.187 32.7432 42.8787 32.8031 42.6039 32.7964C42.3023 32.7964 42.0074 32.7631 41.7126 32.7166C41.1362 32.6168 40.5732 32.4172 40.0572 32.1378C39.6752 31.9249 39.2396 31.6588 38.824 31.8118C38.5359 31.9116 38.3482 32.2043 38.3013 32.5037C38.2544 32.8031 38.3281 33.1091 38.4286 33.3885C38.8307 34.4994 39.7757 35.4441 40.9418 35.6569C42.108 35.8698 43.4282 35.2179 43.7968 34.0936H43.8103Z" fill="#001A52"/>
<path d="M44.1923 34.2001C44.333 33.7344 44.2928 33.169 43.9711 32.7831C43.5489 32.2842 42.8921 32.4372 42.3158 32.3973C41.6322 32.3574 40.9553 32.1645 40.3521 31.8451C39.8093 31.5591 39.186 31.1732 38.5694 31.4992C37.3631 32.1378 38.0534 33.8076 38.6699 34.6192C39.3267 35.484 40.3521 36.116 41.4713 36.0827C42.6643 36.0495 43.7902 35.331 44.1923 34.1934C44.3598 33.7145 43.5958 33.5082 43.4283 33.9872C43.1803 34.6924 42.49 35.1447 41.7729 35.2711C40.9955 35.4042 40.2181 35.0849 39.6618 34.5527C39.3602 34.2666 39.119 33.9274 38.938 33.5548C38.7705 33.2155 38.556 32.6767 38.804 32.3241C39.0922 31.9183 39.6953 32.3906 40.0036 32.5503C40.4526 32.7831 40.9352 32.9561 41.4311 33.0625C41.726 33.1224 42.0209 33.169 42.3225 33.1823C42.5972 33.2022 42.8988 33.1424 43.1736 33.1823C43.5422 33.2422 43.5221 33.7078 43.4417 33.9872C43.2942 34.4729 44.0582 34.6791 44.2057 34.1934L44.1923 34.2001Z" fill="#001A52"/>
<path d="M43.0932 33.1158C41.8064 33.1091 40.5464 32.7831 39.4205 32.1645C38.9782 31.9183 38.5761 32.5969 39.0251 32.843C40.2717 33.5282 41.6723 33.8874 43.0999 33.9008C43.6092 33.9008 43.6092 33.1224 43.0999 33.1158H43.0932Z" fill="white"/>
<path d="M27.9603 25.8713C28.168 25.2193 28.0407 24.4743 27.6185 23.9354C27.1963 23.3966 26.573 23.0972 25.9028 23.0905C25.6951 23.0905 25.5007 23.2702 25.5074 23.483C25.5141 23.6959 25.6817 23.8755 25.9028 23.8755C25.9363 23.8755 25.9765 23.8755 26.01 23.8755C26.0167 23.8755 26.1173 23.8822 26.0637 23.8755C26.01 23.8689 26.1039 23.8822 26.1173 23.8822C26.1508 23.8822 26.1843 23.8955 26.2178 23.9021C26.2781 23.9154 26.3317 23.9354 26.3853 23.9554C26.392 23.9554 26.4792 23.9953 26.439 23.9753C26.3988 23.9554 26.4792 23.9953 26.4859 24.0019C26.5462 24.0285 26.5998 24.0618 26.6534 24.0951C26.6802 24.1084 26.7003 24.1283 26.7271 24.1416C26.821 24.2015 26.6735 24.0951 26.7607 24.1682C26.8076 24.2082 26.8478 24.2481 26.888 24.288C26.9148 24.3146 26.9349 24.3412 26.9617 24.3678C26.9617 24.3745 27.022 24.4476 26.9952 24.4077C26.9684 24.3678 27.0287 24.4609 27.0287 24.4543C27.0488 24.4809 27.0622 24.5075 27.0756 24.5341C27.1092 24.594 27.1427 24.6539 27.1695 24.7137C27.1494 24.6605 27.1695 24.7137 27.1762 24.7403C27.1896 24.767 27.1963 24.8002 27.203 24.8268C27.2231 24.8934 27.2365 24.9532 27.2499 25.0198C27.2499 25.053 27.2566 25.0996 27.2499 25.0397C27.2499 25.073 27.2566 25.1129 27.2566 25.1461C27.2566 25.206 27.2566 25.2659 27.2566 25.3258C27.2566 25.359 27.2566 25.3856 27.2499 25.4189C27.2499 25.4655 27.2633 25.3657 27.2499 25.4389C27.2365 25.512 27.2164 25.5786 27.1963 25.6517C27.136 25.8447 27.27 26.0908 27.4711 26.1307C27.6855 26.1773 27.8933 26.0642 27.9536 25.858L27.9603 25.8713Z" fill="#001A52"/>
<path d="M28.7712 23.9155C28.6305 23.5962 28.4898 23.2702 28.2954 23.0041C28.0206 22.6316 27.8196 22.1659 27.4175 21.9064C27.0489 21.6669 26.5663 21.5672 26.1307 21.5272C25.8693 21.5006 25.561 21.4873 25.3064 21.5539C25.0517 21.6204 24.8171 21.8 24.5356 21.7667C24.3212 21.7401 24.2542 21.4674 24.1603 21.2811C23.9392 20.842 23.7448 20.3963 23.5706 19.9373C23.2221 19.0259 22.9674 18.0813 22.7999 17.1167C22.4044 14.8416 22.5318 12.4733 23.1886 10.2514C23.5773 8.94751 24.1737 7.65029 25.2125 6.75886C26.2513 5.86744 27.7861 5.45499 29.0326 6.0271C30.507 3.11999 33.3486 0.931338 36.5521 0.239486C39.7556 -0.452366 43.254 0.35923 45.8141 2.38822C46.3168 2.78736 46.8194 3.24638 47.4561 3.37943C47.9386 3.47922 48.4346 3.36613 48.9238 3.29295C51.3901 2.92707 54.1245 3.72536 55.6391 5.69447C57.1537 7.66359 57.0666 10.8235 55.1432 12.4068C56.2758 12.5132 57.1805 13.5576 57.3012 14.6752C57.4218 15.7929 56.8655 16.9171 56.0144 17.6688C55.1633 18.4206 54.0641 18.833 52.9516 19.0459C52.4959 19.1324 51.9464 19.159 51.6582 18.7998C51.4973 18.6002 51.4638 18.3274 51.437 18.068C51.3298 16.9969 51.2158 15.9326 51.1086 14.8615C45.8409 16.1454 40.1175 15.5201 35.2587 13.1252C35.949 14.2961 35.9423 15.8062 35.3324 17.0103C34.7225 18.2143 33.7708 19.3519 32.5377 20.0171C32.3299 20.1302 31.9613 20.1835 31.8072 20.3631C31.4855 20.7356 31.6262 21.5805 31.5927 22.0328C31.5391 22.7114 31.4386 23.3899 31.2844 24.0485C31.204 24.3878 31.1035 24.747 30.8354 24.9732C30.5338 25.226 30.0714 25.2393 29.7162 25.073C29.2337 24.8402 28.9991 24.3878 28.7846 23.9221L28.7712 23.9155Z" fill="#001A52"/>
<path d="M61.6841 87.1668C71.2373 87.1668 78.9817 79.4795 78.9817 69.9968C78.9817 60.5142 71.2373 52.8269 61.6841 52.8269C52.1309 52.8269 44.3865 60.5142 44.3865 69.9968C44.3865 79.4795 52.1309 87.1668 61.6841 87.1668Z" fill="white" stroke="#001A52" stroke-width="2.01057" stroke-miterlimit="10" stroke-linecap="round"/>
<path d="M57.3146 70.5224L61.3424 74.3808L68.9759 66.8037" stroke="#001A52" stroke-width="2.01057" stroke-miterlimit="10" stroke-linecap="round"/>
</g>
<defs>
<clipPath id="clip0_9_2">
<rect width="79" height="87" fill="white"/>
</clipPath>
</defs>
</svg>
