<svg width="125" height="133" viewBox="0 0 125 133" fill="none" xmlns="http://www.w3.org/2000/svg">
<path d="M50.2547 58.8129C48.8951 55.3165 47.1202 51.9913 45.0899 48.6532C44.4017 47.5193 43.5731 46.3075 42.2906 45.9834C40.989 45.6516 39.5931 46.4023 38.8106 47.498C38.0281 48.5936 37.7467 49.9659 37.5918 51.3C37.173 54.9006 37.8729 57.9746 38.5582 61.4248C39.2776 65.0499 39.7867 68.7186 39.9388 72.4101C40.2175 79.2351 39.2329 86.2059 36.2776 92.3565C39.6476 92.7419 43.0998 91.9838 46.0707 90.3703C47.7817 89.441 50.4952 87.982 51.6208 86.3022C53.119 84.0688 53.0394 80.2337 53.1717 77.6516C53.3469 74.2575 53.1625 70.8443 52.6298 67.4858C52.1424 64.4234 51.3252 61.565 50.2536 58.8089L50.2547 58.8129Z" fill="#001A52"/>
<path d="M50.8523 58.6528C49.9874 56.4448 48.9764 54.2974 47.8534 52.21C47.2765 51.1405 46.6738 50.0864 46.0482 49.0427C45.5514 48.2085 45.0572 47.3522 44.3982 46.6299C43.0742 45.1785 41.0684 44.8642 39.4375 46.0288C37.8066 47.1934 37.2201 49.2596 36.9839 51.2147C36.4366 55.7699 37.7925 60.2089 38.5164 64.6632C39.2402 69.1175 39.5716 73.7968 39.2269 78.3748C38.8821 82.9528 37.7842 87.7797 35.744 92.0544C35.5306 92.5011 35.7963 92.9349 36.2755 92.9863C39.4897 93.3321 42.7438 92.6955 45.6474 91.2926C46.8154 90.7271 47.9638 90.0727 49.0534 89.3742C50.143 88.6756 51.2319 87.8787 52.0102 86.8313C53.516 84.8013 53.6143 81.933 53.7152 79.5048C53.8483 76.336 53.9157 73.1934 53.5806 70.0303C53.1666 66.1264 52.2669 62.3228 50.8504 58.6618C50.5674 57.9244 49.3661 58.2378 49.6552 58.9821C50.861 62.096 51.7166 65.3208 52.1764 68.6303C52.6361 71.9398 52.6609 74.9806 52.5314 78.1784C52.4374 80.4892 52.5068 83.043 51.5375 85.1945C50.5682 87.3461 48.082 88.5858 46.0886 89.6721C43.0672 91.3206 39.727 92.13 36.2832 91.7558L36.8147 92.6877C40.361 85.2531 41.1164 76.837 40.2859 68.7175C40.0509 66.4221 39.7041 64.1395 39.2685 61.8765C38.8712 59.8043 38.39 57.7375 38.1883 55.6301C37.9866 53.5227 37.9906 51.45 38.563 49.4904C39.0257 47.9026 40.5669 45.8931 42.4604 46.7126C43.3345 47.0905 43.9119 47.9544 44.3977 48.7316C45.0615 49.7907 45.6909 50.8805 46.2953 51.9726C47.5565 54.2413 48.7067 56.574 49.6533 58.9911C49.9403 59.7275 51.1417 59.4141 50.8486 58.6709L50.8523 58.6528Z" fill="#001A52"/>
<path d="M40.5881 44.3466C39.9794 44.5611 39.5791 45.2504 39.6902 45.8883C39.7812 46.4032 40.1498 46.8224 40.5272 47.1792C41.1224 47.7431 41.7834 48.2337 42.4909 48.6433C43.0823 48.9857 43.7618 49.2744 44.4309 49.1422C45.1001 49.01 45.6767 48.2777 45.4187 47.6491C45.2986 47.3603 45.0378 47.152 44.7903 46.9615C43.4829 45.955 42.1756 44.9485 40.8683 43.9419" fill="white"/>
<path d="M40.4276 43.7476C39.2528 44.2079 38.7318 45.4988 39.306 46.6376C39.5889 47.1995 40.097 47.6455 40.5712 48.0449C41.0729 48.4669 41.612 48.8532 42.182 49.1798C43.1968 49.7639 44.49 50.1279 45.467 49.2798C45.8623 48.9384 46.1292 48.4047 46.0889 47.8719C46.037 47.1839 45.5443 46.7637 45.0342 46.3739C43.7907 45.4145 42.5433 44.4562 41.2998 43.4968C41.0361 43.2935 40.681 43.2431 40.4253 43.4999C40.2138 43.715 40.1658 44.173 40.4295 44.3762C41.2855 45.0371 42.1405 45.6941 42.9965 46.355C43.4327 46.6918 43.8677 47.0246 44.3039 47.3615C44.4651 47.4852 44.6524 47.6105 44.7774 47.7739C44.8634 47.8878 44.8686 47.9549 44.848 48.0375C44.6977 48.7197 43.7937 48.5811 43.2967 48.3675C42.4507 47.9993 41.6679 47.4044 40.9995 46.7745C40.6913 46.4847 40.2752 46.0954 40.2885 45.651C40.2976 45.3661 40.4891 45.0451 40.7475 44.9416C41.0566 44.8203 41.2788 44.5339 41.1846 44.1825C41.1054 43.887 40.7396 43.6212 40.4265 43.7436L40.4276 43.7476Z" fill="#001A52"/>
<path d="M80.8937 67.1503C80.7704 72.953 83.8942 78.5234 85.2434 84.0685C86.4126 88.8786 87.8122 93.6398 88.6885 98.5197C89.0584 100.569 89.6798 102.586 89.544 104.677C89.4082 106.767 88.7764 108.936 87.704 110.798C87.0873 111.875 86.242 112.927 85.0532 113.272C83.4612 113.737 81.7824 112.778 80.6358 111.575C76.8044 107.555 73.3735 102.91 69.9263 98.5393C67.0869 94.9386 64.3393 91.2662 61.6966 87.523C60.3435 85.6128 58.9684 83.6999 57.7122 81.7209C56.456 79.742 57.1067 78.3777 57.1956 76.1753C57.3962 71.2507 56.0832 65.9998 54.3029 61.4433C53.8787 60.3543 53.5133 58.7358 52.4385 58.1507C51.4333 57.6025 50.0754 57.6025 49.0055 57.0203C46.7254 55.778 44.92 53.6295 44.2169 51.1171C43.9117 50.0261 43.8115 48.8074 44.3172 47.7944C44.9933 46.4448 46.6468 45.7792 48.1437 45.9473C49.1513 46.0583 50.0245 46.4963 50.8724 47.031C51.8123 47.6223 51.8763 47.9091 52.7118 47.0432C53.3439 46.3901 53.7732 45.4105 54.0164 44.5492C54.0909 44.2853 54.1993 42.1718 54.2507 42.1409C56.2929 40.9175 57.7812 38.8066 58.2559 36.4666C58.7266 34.1276 58.1774 31.5996 56.773 29.6732C65.2329 31.8749 74.583 30.3711 81.9257 25.6301C81.5724 25.8574 83.8613 33.4278 84.0597 34.2478C84.1266 34.5295 84.1935 34.8111 84.2605 35.0928C84.9009 37.8018 85.0821 40.454 85.7164 43.156C86.3341 45.7641 86.6849 48.4436 86.7154 51.1234C86.772 56.3386 85.565 61.8581 81.9356 65.7797C77.4557 70.6225 69.6648 68.6225 64.8925 65.2187" fill="white"/>
<path d="M79.965 67.1423C79.8857 72.3126 82.1316 77.061 83.6605 81.8903C84.4526 84.4002 85.0179 86.9881 85.6745 89.5343C86.3611 92.1924 87.0329 94.8587 87.5681 97.5573C87.8183 98.8257 88.0764 100.092 88.3216 101.357C88.5667 102.623 88.7008 103.777 88.5882 105.014C88.3972 107.154 87.6619 109.525 86.3155 111.226C85.7163 111.985 84.9079 112.57 83.8961 112.443C82.9815 112.329 82.149 111.756 81.5026 111.128C79.6981 109.382 78.0972 107.376 76.5163 105.428C73.2379 101.384 70.0293 97.2661 66.9019 93.1006C65.2824 90.9451 63.7064 88.7607 62.1482 86.563C61.3522 85.4409 60.5573 84.3228 59.787 83.1852C59.1236 82.2073 58.24 81.1729 57.9735 80.003C57.7505 79.027 57.9824 77.9804 58.0705 77.0023C58.1826 75.7953 58.1674 74.5752 58.0874 73.3682C57.9185 70.8411 57.4487 68.339 56.7739 65.9003C56.1655 63.7093 55.4218 61.5074 54.5358 59.4121C54.1435 58.4899 53.5845 57.6467 52.6425 57.2229C51.7005 56.799 50.5729 56.7502 49.6195 56.2994C47.7367 55.4086 46.1365 53.6117 45.3834 51.6776C45.0219 50.743 44.7317 49.6437 44.9956 48.6527C45.2287 47.7856 45.9524 47.2193 46.7909 46.9861C47.733 46.7251 48.694 46.917 49.5581 47.3532C50.2981 47.7242 51.1042 48.5654 51.9771 48.5241C53.0229 48.475 53.8544 47.2592 54.2852 46.429C54.7161 45.5987 54.9502 44.8469 55.026 43.9663C55.0548 43.6119 55.0797 43.2585 55.1086 42.9041C55.12 42.7555 55.1354 42.6058 55.1458 42.4532C55.1481 42.4141 55.1632 42.3587 55.1615 42.3206C55.1755 42.4367 55.1315 42.4956 55.0666 42.62L54.7343 42.9573C56.8621 41.6552 58.4644 39.5395 59.0766 37.107C59.7535 34.4217 59.1899 31.4739 57.5856 29.2158L56.5387 30.5835C63.3124 32.3253 70.6336 31.8231 77.1081 29.1809C78.9552 28.4249 80.7287 27.5216 82.4092 26.4465L81.2801 24.9898C80.8721 25.3474 80.9707 25.9545 81.0448 26.4225C81.1236 26.9236 81.2443 27.422 81.364 27.9164C81.7085 29.3136 82.1018 30.702 82.4941 32.0864C82.7872 33.1164 83.0912 34.1392 83.3364 35.1821C83.9498 37.7741 84.1711 40.4327 84.7476 43.0304C85.7803 47.6973 86.2635 52.5285 85.2076 57.2414C84.7378 59.3448 83.9724 61.3647 82.8061 63.1795C81.7101 64.8899 80.2622 66.4506 78.3154 67.1692C73.9902 68.7647 68.9617 66.9704 65.3692 64.4318C64.9589 64.1437 64.3354 64.3664 64.1022 64.7713C63.8341 65.2369 64.0322 65.7531 64.4425 66.0413C67.9469 68.5221 72.4773 70.0988 76.7923 69.4691C78.9492 69.1523 80.9832 68.1535 82.4978 66.5707C84.0123 64.9878 85.2491 62.9101 86.0757 60.7839C87.7933 56.3731 87.9418 51.4454 87.3328 46.7977C87.1549 45.4329 86.8884 44.0875 86.5799 42.7449C86.2786 41.4132 86.075 40.0638 85.8675 38.7156C85.5855 36.8822 85.2625 35.0555 84.7582 33.2688C84.3391 31.7846 83.9092 30.3076 83.5101 28.818C83.3196 28.1072 83.1342 27.3993 82.9756 26.6799C82.918 26.4171 82.8694 26.1562 82.8249 25.8942C82.885 26.2462 82.8049 25.8996 82.8269 25.838C82.8258 25.834 82.8278 25.7779 82.8278 25.7779C82.8721 25.8473 82.7151 26.2018 82.5979 26.306C83.3853 25.6114 82.3506 24.2835 81.4688 24.8494C75.8902 28.4286 69.224 30.1164 62.6073 29.6936C60.7219 29.5739 58.8594 29.2683 57.029 28.7957C56.3042 28.6089 55.4937 29.4724 55.982 30.1634C57.4888 32.2807 57.9259 34.9799 57.034 37.436C56.6492 38.5021 55.9917 39.4744 55.1879 40.2676C54.7963 40.655 54.3765 40.9687 53.9205 41.2749C53.4645 41.5812 53.3492 41.8518 53.2932 42.3761C53.2553 42.7287 53.2344 43.081 53.2095 43.4343C53.1921 43.6402 53.1797 43.8489 53.1583 44.0558C53.1507 44.1392 53.1432 44.2225 53.1316 44.3069C53.115 44.4997 53.176 44.1538 53.1324 44.2939C52.9675 44.826 52.7901 45.3273 52.5042 45.8062C52.3418 46.0766 52.1578 46.3142 51.9345 46.5324C51.9079 46.5609 51.7214 46.7093 51.7257 46.7253C51.7213 46.6452 51.9845 46.703 52.0073 46.6926L52.0748 46.7216C52.0153 46.6905 51.9597 46.6583 51.907 46.6211C51.8402 46.5791 51.7763 46.532 51.7096 46.4899C51.4494 46.3157 51.1863 46.1465 50.9133 45.9885C50.3281 45.6531 49.6986 45.3595 49.0473 45.1916C47.8371 44.8824 46.5862 44.995 45.4546 45.5208C44.3229 46.0466 43.5149 46.9993 43.196 48.1676C42.8546 49.4276 43.0867 50.8035 43.5209 52.0098C44.4059 54.452 46.1906 56.5547 48.4688 57.8062C49.5358 58.3934 50.7598 58.4036 51.8422 58.9054C52.7209 59.3163 52.9707 60.5034 53.2703 61.3348C54.1999 63.9277 55.1011 66.4941 55.6515 69.2015C56.2018 71.9089 56.4571 74.6782 56.1675 77.4224C56.0395 78.6337 55.9085 79.8501 56.3342 81.0244C56.8293 82.3941 57.8181 83.6143 58.6363 84.8033C62.1387 89.8742 65.816 94.8169 69.6257 99.6642C71.4072 101.93 73.1572 104.222 74.9663 106.464C75.8928 107.611 76.8331 108.746 77.8011 109.856C78.7005 110.886 79.5946 112.008 80.6554 112.875C81.5903 113.639 82.6648 114.207 83.8826 114.322C85.1876 114.443 86.4201 113.847 87.3116 112.919C89.1458 111.015 90.0694 108.135 90.389 105.567C90.7448 102.72 89.9038 99.8677 89.3612 97.094C88.7587 94.0324 87.9697 91.0081 87.1907 87.9895C86.456 85.1518 85.7903 82.3169 84.8296 79.544C83.8781 76.79 82.8119 74.0538 82.2209 71.1947C81.9467 69.8686 81.8024 68.5333 81.8228 67.1753C81.843 65.9757 79.9826 65.9649 79.9653 67.1594L79.965 67.1423Z" fill="#001A52"/>
<path d="M74.3885 41.6287C74.5365 43.5836 75.0397 45.4776 75.9078 47.2353C76.3175 48.0629 76.9058 48.8083 77.2658 49.6578C77.5236 50.2693 77.651 51.3822 76.8237 51.6253C76.0601 51.8513 76.3811 53.0493 77.1447 52.8233C78.0148 52.5645 78.5521 51.8127 78.6789 50.9313C78.8309 49.889 78.337 48.9385 77.8067 48.0747C76.5964 46.092 75.805 43.9671 75.6295 41.6386C75.5707 40.8454 74.3286 40.8316 74.3925 41.6277L74.3885 41.6287Z" fill="#001A52"/>
<path d="M80.6062 43.4468C81.3323 43.2522 81.7629 42.5044 81.5679 41.7766C81.3728 41.0488 80.6261 40.6165 79.9 40.8111C79.1739 41.0056 78.7433 41.7534 78.9383 42.4812C79.1333 43.209 79.8801 43.6413 80.6062 43.4468Z" fill="#001A52" stroke="#001A52" stroke-width="0.91" stroke-miterlimit="10"/>
<path d="M66.9663 46.4553C67.765 46.2412 68.2386 45.4187 68.0241 44.6181C67.8096 43.8175 66.9881 43.342 66.1894 43.556C65.3907 43.77 64.9171 44.5926 65.1316 45.3932C65.3461 46.1938 66.1675 46.6693 66.9663 46.4553Z" fill="#001A52" stroke="#001A52" stroke-miterlimit="10"/>
<path d="M69.1725 38.6734C68.7656 38.9237 68.0376 39.0117 67.5807 39.0913C65.4709 39.4726 63.3617 39.9993 61.3446 40.6467C61.5437 40.1311 62.3602 39.6085 63.2995 39.2412C64.1622 38.9073 65.0824 38.7078 65.9989 38.5265C66.9153 38.3451 67.7898 38.1664 68.7032 38.0373C68.9258 38.0076 69.1745 37.9795 69.333 38.0611C69.4562 38.1223 69.4883 38.2421 69.4502 38.355C69.4114 38.481 69.3111 38.5849 69.1754 38.6683L69.1725 38.6734Z" fill="#001A52"/>
<path d="M69.0539 38.4697C68.5931 38.7259 68.0335 38.7731 67.5197 38.8637C66.8144 38.9885 66.1105 39.1343 65.4138 39.291C64.0213 39.6085 62.645 39.9859 61.2836 40.4191L61.5467 40.7638C61.7818 40.2385 62.3757 39.921 62.8708 39.6814C63.5476 39.3545 64.2775 39.1461 65.005 38.9768C65.7326 38.8076 66.4448 38.6766 67.1628 38.5356C67.5328 38.4664 67.9029 38.3972 68.2751 38.336C68.4597 38.3079 68.6462 38.2708 68.8301 38.2558C69.0049 38.2389 69.3859 38.2267 69.0438 38.4639C68.7996 38.6363 69.0329 39.0446 69.281 38.8711C69.8742 38.4554 69.743 37.7586 68.9658 37.7743C67.9635 37.7946 66.9112 38.1065 65.9299 38.301C64.9486 38.4954 63.9119 38.7219 62.9652 39.1253C62.2987 39.4109 61.4534 39.8257 61.1334 40.5278C61.0553 40.6986 61.1886 40.9411 61.3965 40.8725C62.8086 40.4214 64.2408 40.0291 65.6871 39.7057C66.364 39.5543 67.048 39.4138 67.7344 39.2984C68.2612 39.2086 68.8064 39.1396 69.281 38.8711C69.5447 38.7235 69.3074 38.3162 69.0438 38.4639L69.0539 38.4697Z" fill="#001A52"/>
<path d="M76.8947 37.0537C76.9272 37.0792 76.9665 37.0986 77.0179 37.1148C77.1154 37.1443 77.2406 37.1493 77.3636 37.1463C77.8318 37.1407 78.3127 37.0547 78.7783 36.9599C79.1911 36.8749 79.6274 36.8137 80.0484 36.7437C80.9485 36.5967 81.8781 36.4803 82.7543 36.5151C82.8314 36.5159 83.1139 36.5344 83.168 36.4813C83.2083 36.4406 83.0538 36.3579 83.0133 36.3344C82.8736 36.2435 82.6992 36.1661 82.504 36.1071C82.1127 35.9851 81.6393 35.9236 81.1429 35.9197C80.5824 35.9158 80 35.9734 79.4302 36.0619C79.1427 36.1046 78.8545 36.1605 78.5663 36.2163C78.2781 36.2721 77.9893 36.2939 77.7021 36.3537C77.4598 36.4058 77.22 36.4829 77.0438 36.59C76.8388 36.7177 76.7396 36.9369 76.8878 37.0598L76.8947 37.0537Z" fill="#001A52"/>
<path d="M76.7839 37.246C77.1391 37.4718 77.6815 37.3607 78.0689 37.3083C78.6329 37.2299 79.1931 37.1055 79.7539 37.0152C80.3147 36.9248 80.9284 36.8246 81.5209 36.7728C82.0175 36.7297 82.5105 36.7688 83.0023 36.7397C83.3012 36.7238 83.5421 36.4752 83.2507 36.2323C82.9318 35.9668 82.4775 35.8488 82.079 35.7801C81.0051 35.597 79.8959 35.7444 78.8336 35.9392C78.2641 36.0447 77.63 36.0691 77.0979 36.3144C76.7485 36.4765 76.4189 36.8559 76.7363 37.2117C76.924 37.4182 77.2298 37.1094 77.0421 36.9029C76.9564 36.806 77.6451 36.5872 77.7059 36.5752C77.972 36.5167 78.2468 36.4902 78.5162 36.4437C79.0509 36.3518 79.5774 36.2449 80.1178 36.19C80.6582 36.1351 81.1772 36.1116 81.7005 36.1683C82.0875 36.2101 82.7453 36.2907 83.0191 36.6111L82.9553 36.4527L82.9497 36.4799L83.0576 36.2926C82.9376 36.3547 82.6653 36.295 82.5322 36.2921C82.271 36.2894 82.009 36.2996 81.7491 36.3179C81.2164 36.3536 80.6842 36.4235 80.1564 36.5093C79.6285 36.5951 79.0876 36.6801 78.5561 36.784C78.2838 36.8355 78.0144 36.882 77.7397 36.9086C77.5229 36.9281 77.1938 36.9906 76.9985 36.8675C76.7617 36.7169 76.5432 37.0965 76.7828 37.242L76.7839 37.246Z" fill="#001A52"/>
<path d="M51.1337 52.1015C51.178 51.0238 50.6808 49.933 49.8229 49.2811C48.965 48.6293 47.9006 48.418 46.8814 48.6782C46.5707 48.7615 46.3428 49.1222 46.4443 49.4374C46.5459 49.7526 46.8667 49.9619 47.2024 49.8762C47.2542 49.8624 47.31 49.8474 47.3629 49.8375C47.3788 49.8333 47.5255 49.8068 47.4436 49.8202C47.3618 49.8335 47.5106 49.8151 47.5265 49.8108C47.5815 49.8089 47.6355 49.803 47.6915 49.8051C47.7845 49.8016 47.8757 49.8071 47.9679 49.8167C47.9809 49.8175 48.1314 49.8371 48.0511 49.8243C47.9708 49.8116 48.1194 49.8403 48.1364 49.84C48.2359 49.8604 48.3324 49.8859 48.4299 49.9154C48.4722 49.9298 48.5185 49.9431 48.5618 49.9614C48.727 50.0199 48.4618 49.9069 48.6193 49.9845C48.703 50.0263 48.7858 50.0641 48.8626 50.1119C48.9092 50.1423 48.9547 50.1686 49.0023 50.2029C49.0135 50.2128 49.1311 50.3011 49.0712 50.2529C49.0114 50.2048 49.1434 50.3149 49.1394 50.316C49.174 50.3495 49.2126 50.382 49.2432 50.4166C49.3185 50.4906 49.3909 50.5696 49.4565 50.6548C49.4032 50.5834 49.4565 50.6548 49.4791 50.6915C49.5068 50.7312 49.5345 50.7708 49.5582 50.8115C49.6129 50.9039 49.6635 50.9973 49.7102 51.0918C49.731 51.1376 49.7593 51.2114 49.7278 51.1256C49.7468 51.1805 49.7697 51.2343 49.7847 51.2902C49.8133 51.3809 49.835 51.4779 49.8596 51.5697C49.8725 51.6176 49.8763 51.6637 49.8851 51.7127C49.8993 51.7816 49.8807 51.6325 49.8868 51.7508C49.8928 51.869 49.8967 51.9792 49.8898 52.0966C49.8784 52.4207 50.18 52.7337 50.5061 52.7233C50.8531 52.7117 51.1128 52.4538 51.1308 52.1065L51.1337 52.1015Z" fill="#001A52"/>
<path d="M69.8864 58.2779C72.0579 59.8319 75.0031 60.0186 77.3825 58.8588C77.6852 58.7135 77.7618 58.2821 77.6029 58.008C77.4225 57.701 77.0562 57.6408 76.7535 57.7861C74.7511 58.7593 72.2997 58.4873 70.4992 57.202C70.2246 57.006 69.809 57.1601 69.6545 57.4284C69.4739 57.7421 69.6068 58.0789 69.8814 58.275L69.8864 58.2779Z" fill="#001A52"/>
<path d="M56.5324 29.4124C60.1931 33.1141 60.7412 39.4944 57.7593 43.7604C56.2712 45.8883 53.7224 48.0094 55.5108 50.843C56.1487 51.8534 57.194 52.5193 58.0697 53.3333C59.3348 54.5009 60.7343 56.6641 59.7696 58.3864C59.2289 59.3488 58.0772 59.927 56.9829 59.7794C57.8112 59.6516 58.329 58.6996 58.2125 57.8662C58.0959 57.0329 57.5045 56.3396 56.8273 55.8362C56.1501 55.3328 55.3844 54.9773 54.6927 54.4992C53.5228 53.687 52.6297 52.5053 52.1084 51.1812C51.8457 50.5197 51.6754 49.8205 51.6051 49.1117C51.5501 48.5401 51.8045 47.6887 51.6484 47.1698C51.3119 46.0572 49.2216 45.7784 48.2224 45.7465C47.5025 45.7211 46.7756 45.8132 46.0848 46.024C45.8917 46.0843 44.4599 46.8446 44.4195 46.8211C39.9576 44.1774 37.0178 39.1184 36.9246 33.9258C36.8595 30.1768 38.2778 26.4496 40.7143 23.6224C41.3234 22.9156 41.9935 22.261 42.7259 21.6795C43.7178 20.8873 43.7669 20.8314 44.051 19.6766C44.5264 17.7216 46.2505 15.9328 47.8238 14.7922C49.7508 13.3941 52.0256 12.5449 54.3233 11.9249C57.7497 11.0068 61.3273 10.5576 64.8627 10.9071C68.3931 11.2538 71.8787 12.4214 74.7569 14.5093C78.0972 16.9357 80.4838 20.5036 82.1237 24.2973C83.1257 26.6183 83.8682 29.0388 84.5101 31.482C84.8185 32.6492 85.3308 33.9714 85.4177 35.1723C85.4905 36.1929 84.8723 37.0091 84.3485 35.6599C83.6936 33.965 81.9843 32.8607 80.2159 32.4443C78.4475 32.0279 76.6041 32.1922 74.7966 32.347C71.6242 32.6192 68.4291 32.8547 65.2609 32.5052C62.0928 32.1556 58.9349 31.1913 56.3919 29.2703" fill="#001A52"/>
<path d="M56.0958 29.8547C59.3101 33.1495 60.0001 38.593 57.7533 42.6063C56.7604 44.3833 55.0322 45.758 54.4444 47.756C54.1449 48.7736 54.2773 49.8253 54.7509 50.7642C55.3717 51.9974 56.5078 52.7631 57.508 53.6593C58.4036 54.4679 59.3035 55.5793 59.4572 56.8222C59.6354 58.2682 58.3625 59.3027 56.9881 59.1616L57.1444 60.3824C58.2062 60.1535 58.9 59.0773 58.8455 58.0133C58.7864 56.805 57.9315 55.8614 56.9933 55.1968C55.9184 54.4362 54.7469 53.9368 53.8648 52.9234C53.0366 51.9682 52.4985 50.7727 52.2819 49.5339C52.0953 48.471 52.6549 47.2767 51.8896 46.3647C51.3194 45.6871 50.357 45.41 49.5159 45.2672C48.3849 45.0781 47.2249 45.0679 46.1115 45.3748C45.8127 45.4548 45.5379 45.5927 45.2591 45.7316C44.9575 45.8809 44.5424 46.0049 44.2829 46.2157C44.0589 46.3999 44.7299 45.7963 44.5879 46.2067C44.5879 46.2067 44.2956 46.024 44.3169 46.0397C44.0953 45.8979 43.8755 45.7471 43.6597 45.5952C43.1672 45.2392 42.6991 44.8467 42.2585 44.4297C41.4305 43.6501 40.6928 42.7777 40.0629 41.8293C38.8042 39.9366 37.954 37.7675 37.6526 35.5113C37.0273 30.8509 38.8959 26.0315 42.31 22.8525C42.9491 22.2575 43.874 21.7571 44.2824 20.9543C44.4691 20.5833 44.551 20.1718 44.6581 19.775C44.8094 19.208 45.0556 18.6926 45.3633 18.1993C46.6368 16.1631 48.7402 14.7221 50.8949 13.7595C53.3316 12.67 56.0314 12.0365 58.6679 11.6767C61.3045 11.317 64.004 11.3041 66.6152 11.7901C68.9744 12.228 71.2612 13.0491 73.3104 14.3062C75.3596 15.5634 77.2397 17.4009 78.6839 19.4279C80.1936 21.5401 81.3481 23.8888 82.252 26.3217C82.7601 27.6921 83.1947 29.0909 83.5894 30.5003C83.9395 31.759 84.3616 33.0156 84.6439 34.2925C84.709 34.5832 84.7723 34.883 84.7885 35.1825C84.7976 35.3598 84.7069 35.611 84.7316 35.767C84.7316 35.767 84.7078 35.8376 84.7067 35.8336L84.9295 35.7568C85.1022 35.8432 85.1503 35.8474 85.0717 35.7615C85.0725 35.7484 84.9248 35.4841 84.9352 35.507C84.8469 35.3209 84.7815 35.1245 84.6852 34.9405C84.1986 34.0009 83.3928 33.2409 82.4889 32.7041C80.3291 31.4167 77.7516 31.4867 75.3324 31.6855C70.1394 32.1139 64.6483 32.6094 59.7213 30.4926C58.6456 30.0318 57.6286 29.4397 56.6899 28.7411C56.0502 28.2661 55.4374 29.342 56.0721 29.814C60.3635 33.017 65.9116 33.4993 71.0816 33.2397C72.4973 33.1685 73.911 33.0422 75.323 32.925C76.6469 32.8142 78.0041 32.7159 79.3284 32.909C80.5061 33.0813 81.6923 33.5082 82.6047 34.2996C82.9786 34.6274 83.3003 34.9992 83.545 35.4344C83.8135 35.9103 83.9283 36.5301 84.425 36.8379C85.292 37.3803 85.9169 36.4296 86.0067 35.6651C86.1547 34.4484 85.6278 33.1514 85.2867 32.0058C84.4641 29.2387 83.7337 26.4811 82.5699 23.8268C80.5068 19.1235 77.2533 14.8377 72.6003 12.4848C67.9473 10.132 62.3247 9.73814 57.1204 10.6661C54.4219 11.1452 51.6851 11.8956 49.2487 13.1777C47.1604 14.2765 45.1347 15.9279 44.0157 18.0468C43.7697 18.515 43.5731 19.0086 43.4409 19.5191C43.3498 19.8645 43.3016 20.2583 43.0765 20.5498C42.826 20.8737 42.4408 21.1096 42.1301 21.3684C41.553 21.844 41.0126 22.3612 40.5119 22.9148C38.9243 24.6713 37.728 26.7724 37.0188 29.0341C35.5842 33.6087 36.3981 38.6381 39.0856 42.5963C39.7407 43.5592 40.4909 44.4625 41.3334 45.264C41.7527 45.6653 42.1984 46.0381 42.6609 46.3935C43.1234 46.749 43.5897 47.1505 44.1059 47.3717C44.7138 47.6326 45.5311 46.9855 46.06 46.7283C46.1274 46.6931 46.1988 46.6568 46.2724 46.6285C46.0528 46.7174 46.5752 46.5474 46.4318 46.5858C46.7585 46.4983 47.0905 46.4307 47.4293 46.4042C47.9548 46.3575 48.4935 46.3758 49.0171 46.4495C49.6641 46.5373 51.0433 46.7284 51.0773 47.5882C51.1003 48.1042 50.95 48.611 50.9809 49.1249C51.0311 49.8861 51.2275 50.651 51.507 51.3594C51.9624 52.5172 52.6595 53.5887 53.5887 54.4269C54.5179 55.2651 55.832 55.7391 56.7849 56.618C57.2099 57.0092 57.6276 57.5478 57.6082 58.1608C57.5936 58.6484 57.3112 59.0922 56.8227 59.1974C56.0959 59.3536 56.3283 60.3485 56.979 60.4182C58.2922 60.5542 59.6553 59.8722 60.3056 58.7135C60.9559 57.5548 60.7336 56.279 60.1988 55.1596C59.635 53.9796 58.7155 53.0661 57.7255 52.2399C56.7355 51.4137 55.6521 50.5098 55.5266 49.1652C55.4275 48.126 55.9905 47.1833 56.5657 46.3658C57.2133 45.4518 57.9734 44.6232 58.5694 43.676C59.8848 41.5729 60.4457 39.0129 60.2627 36.5452C60.0558 33.733 58.941 31.0227 56.9624 28.9933C56.4041 28.4238 55.5338 29.3033 56.0921 29.8728L56.0958 29.8547Z" fill="#001A52"/>
<mask id="mask0_1014_107" style="mask-type:luminance" maskUnits="userSpaceOnUse" x="25" y="71" width="99" height="61">
<path d="M105.05 73.4112C97.8528 70.4731 89.549 71.1487 81.722 71.9148C82.1617 74.5277 83.194 77.0418 83.5986 79.6513C83.9018 81.6116 84.1142 83.5835 84.2386 85.5619C84.7402 93.5855 83.7606 101.706 81.3158 109.364C81.4715 108.877 76.5938 104.761 76.0347 104.204C74.1284 102.301 72.2516 100.364 70.4397 98.3675C66.9402 94.5028 63.6679 90.4018 60.9962 85.913C59.7005 83.7391 58.5475 81.4757 57.5912 79.1339C57.031 77.7603 57.1926 76.9294 55.8788 77.046C54.7948 77.1439 53.0774 78.5115 52.0447 78.9765C46.8458 81.3112 41.3037 82.8433 36.3128 85.6358C21.5852 93.2544 25.499 111.813 26.8647 125.627C27.7849 132.169 31.1629 131.868 36.5397 130.324C41.9239 128.856 47.3556 127.422 52.7562 125.983C74.9462 119.999 97.2022 114.356 119.303 108.293C120.842 107.744 122.391 106.974 123.123 105.802C124.44 103.497 123.046 100.318 122.537 97.8948C120.615 88.698 115.7 78.8953 107.103 74.3635C106.427 74.0095 105.743 73.6877 105.043 73.4043L105.05 73.4112Z" fill="white"/>
</mask>
<g mask="url(#mask0_1014_107)">
<path d="M102.665 92.5107C102.769 96.947 105.206 100.737 107.355 104.454C107.753 105.143 108.824 104.518 108.421 103.826C106.392 100.316 103.999 96.7114 103.902 92.5216C103.884 91.7218 102.643 91.7119 102.665 92.5107Z" fill="#001A52"/>
<path d="M105.05 73.4112C97.8528 70.4731 89.549 71.1487 81.722 71.9148C82.1617 74.5277 83.194 77.0418 83.5986 79.6513C83.9018 81.6116 84.1142 83.5835 84.2386 85.5619C84.7402 93.5855 83.7606 101.706 81.3158 109.364C81.4715 108.877 76.5938 104.761 76.0347 104.204C74.1284 102.301 72.2516 100.364 70.4397 98.3675C66.9402 94.5028 63.6679 90.4018 60.9962 85.913C59.7005 83.7391 58.5475 81.4757 57.5912 79.1339C57.031 77.7603 57.1926 76.9294 55.8788 77.046C54.7948 77.1439 53.0774 78.5115 52.0447 78.9765C46.8458 81.3112 41.3037 82.8433 36.3128 85.6358C21.5852 93.2544 25.499 111.813 26.8647 125.627C27.7849 132.169 31.1629 131.868 36.5397 130.324C41.9239 128.856 47.3556 127.422 52.7562 125.983C74.9462 119.999 97.2022 114.356 119.303 108.293C120.842 107.744 122.391 106.974 123.123 105.802C124.44 103.497 123.046 100.318 122.537 97.8948C120.615 88.698 115.7 78.8953 107.103 74.3635C106.427 74.0095 105.743 73.6877 105.043 73.4043L105.05 73.4112Z" fill="#001A52"/>
<path d="M105.209 72.8121C99.4671 70.4899 93.1396 70.4134 87.0507 70.8294C85.2726 70.9505 83.4943 71.1189 81.7211 71.2901C81.2966 71.3311 81.0428 71.6431 81.1193 72.072C81.565 74.6277 82.5358 77.0555 82.9644 79.6115C83.3931 82.1674 83.6027 84.6708 83.6978 87.2091C83.872 91.9391 83.5393 96.6894 82.6815 101.345C82.1933 104.001 81.5334 106.622 80.7155 109.195L81.909 109.522C81.999 109.061 81.7087 108.711 81.4278 108.379C81.0529 107.936 80.6296 107.536 80.2064 107.136C79.2204 106.197 78.1952 105.303 77.1769 104.404C75.8283 103.211 74.5975 101.885 73.3521 100.583C71.5553 98.7063 69.8097 96.7814 68.1411 94.7931C64.815 90.8264 61.8189 86.5614 59.5187 81.9132C58.9701 80.8061 58.41 79.6721 58.0104 78.4994C57.7932 77.8642 57.6611 77.0521 57.0478 76.66C55.5341 75.696 53.5033 77.4557 52.2588 78.1658C51.258 78.7336 50.1442 79.1348 49.0748 79.5583C47.8862 80.0308 46.6923 80.4834 45.4983 80.936C43.0608 81.8631 40.6203 82.7952 38.2663 83.9225C34.9934 85.4929 31.8951 87.3802 29.6157 90.2681C25.6434 95.3001 24.6939 101.876 24.7353 108.119C24.759 111.442 25.0538 114.757 25.4043 118.058C25.5797 119.684 25.771 121.307 25.9503 122.932C26.1296 124.557 26.2138 126.29 26.708 127.895C27.1025 129.176 27.7584 130.413 28.909 131.153C29.9261 131.81 31.192 131.928 32.3701 131.831C33.9818 131.694 35.5329 131.236 37.0885 130.811C39.7228 130.092 42.3563 129.386 44.9949 128.684C55.4525 125.894 65.905 123.102 76.3722 120.349C86.8394 117.595 97.312 114.862 107.765 112.057C110.411 111.348 113.051 110.636 115.693 109.915C117.97 109.297 120.484 108.863 122.413 107.409C123.212 106.805 123.804 106.047 124.081 105.074C124.342 104.152 124.316 103.179 124.183 102.235C123.926 100.369 123.327 98.5307 122.9 96.6977C121.076 88.84 117.226 80.926 110.702 75.9414C109.011 74.6483 107.171 73.6134 105.202 72.8011C104.467 72.4972 104.148 73.6957 104.878 73.9966C112.445 77.1223 117.416 84.2178 120.137 91.711C120.803 93.5401 121.347 95.4144 121.775 97.3116C122.174 99.0879 122.808 100.865 123.004 102.679C123.096 103.532 123.08 104.448 122.711 105.236C122.294 106.118 121.388 106.673 120.549 107.095C119.471 107.632 118.316 107.911 117.158 108.226C115.905 108.57 114.651 108.911 113.393 109.252C103.345 111.974 93.2811 114.624 83.2113 117.266C73.1414 119.909 62.9183 122.601 52.7888 125.324C47.7767 126.667 42.7623 127.985 37.7545 129.344C36.1141 129.788 34.4665 130.332 32.7741 130.55C31.7457 130.68 30.5943 130.702 29.6694 130.166C28.6322 129.562 28.1244 128.384 27.819 127.276C27.4022 125.753 27.3274 124.151 27.1511 122.585C26.7971 119.431 26.417 116.275 26.1869 113.106C25.7499 107.076 25.6878 100.566 28.218 94.9484C29.4359 92.2423 31.2665 89.8471 33.6278 88.0459C35.1389 86.8963 36.8364 85.9963 38.5391 85.1634C40.7844 84.061 43.1173 83.1577 45.4505 82.2714C47.7837 81.3852 50.1098 80.5522 52.3531 79.5059C53.1542 79.1329 53.8715 78.6069 54.6406 78.1782C55.0191 77.9655 55.9994 77.369 56.413 77.7332C56.5757 77.878 56.6292 78.2531 56.6907 78.4507C56.8494 78.9474 57.0368 79.4237 57.2372 79.9007C57.7288 81.0659 58.2671 82.2143 58.85 83.3379C59.9881 85.5454 61.2878 87.6711 62.6983 89.7157C65.5191 93.805 68.7758 97.5764 72.1945 101.172C73.4655 102.505 74.7233 103.884 76.1014 105.107C77.0497 105.953 78.0079 106.787 78.9395 107.651C79.3707 108.049 79.795 108.453 80.1986 108.876C80.3464 109.029 80.4952 109.186 80.6252 109.352C80.5413 109.246 80.6819 109.452 80.7021 109.464C80.7184 109.477 80.7161 109.516 80.7363 109.528C80.6684 109.482 80.6943 109.244 80.7054 109.189C80.5558 109.97 81.656 110.283 81.8988 109.516C84.8675 100.164 85.6767 90.1801 84.323 80.4587C83.9101 77.4833 82.8159 74.6905 82.3034 71.7419L81.7015 72.5238C87.7364 71.9382 93.9493 71.3478 99.9531 72.5426C101.635 72.8752 103.279 73.3548 104.87 73.9988C105.607 74.2976 105.927 73.0992 105.194 72.8033L105.209 72.8121Z" fill="#001A52"/>
<path d="M87.5501 77.394C89.3723 78.7762 91.2335 80.0966 93.0586 81.4737C93.4865 81.7956 93.9064 82.1197 94.3274 82.4477C94.5384 82.6138 94.9047 82.8495 94.9763 83.0529C95.0772 83.334 94.7878 83.7839 94.5537 84.0735C93.8052 84.9931 92.7786 85.6877 91.793 86.3284C91.2953 86.6543 90.7131 86.9516 90.4548 87.5173C90.1173 88.2498 90.6201 88.9154 91.2535 89.2551C92.1312 89.7261 93.1375 89.9915 94.1031 90.2164C94.95 90.4132 95.9398 90.4733 96.7088 90.905C97.5929 91.4 97.6419 92.4912 97.6196 93.396C97.5954 94.4211 97.5042 95.4514 97.4279 96.4734C97.1125 100.667 96.5356 104.841 95.6604 108.953C94.6666 113.611 93.2899 118.178 91.5094 122.593C91.212 123.332 92.4084 123.653 92.7029 122.92C95.9512 114.867 97.818 106.312 98.5663 97.6622C98.658 96.6018 98.7236 95.5399 98.7932 94.4769C98.856 93.4842 98.9548 92.4347 98.6369 91.4712C97.9513 89.3907 95.7071 89.35 93.9099 88.89C93.4516 88.7731 93.002 88.641 92.5558 88.4738C92.313 88.3805 91.6113 88.1362 91.5573 87.9666C91.5934 88.0854 91.6582 87.8968 91.7895 87.7974C91.8853 87.7247 91.9934 87.6658 92.0913 87.601C92.2952 87.4693 92.503 87.3366 92.7058 87.2009C93.785 86.4795 94.8988 85.6802 95.674 84.6208C96.0395 84.1205 96.318 83.5023 96.1909 82.8687C96.0153 81.9741 95.079 81.4759 94.4127 80.9654C92.3488 79.3826 90.2274 77.8879 88.1538 76.3163C87.521 75.8353 86.9093 76.9151 87.536 77.3893L87.5501 77.394Z" fill="white"/>
<path d="M48.3753 86.6368C48.7814 88.5825 49.0307 90.5487 49.1102 92.5348C49.1499 93.4958 49.0785 94.4566 49.1081 95.4117C49.1288 96.1423 49.4367 96.8131 50.0247 97.2548C50.6666 97.7377 51.5696 97.9366 52.3223 98.18C53.2492 98.4838 54.1886 98.7543 55.1276 99.0077C55.3488 99.0683 55.5718 99.1198 55.7901 99.1854C55.8273 99.1969 56.0443 99.2415 56.0893 99.2979C56.0504 99.2484 56.1047 99.1482 56.0395 99.2556C55.8312 99.5939 55.5674 99.9 55.3093 100.196C54.7795 100.8 54.2171 101.379 53.7583 102.041C53.2595 102.761 53.0663 103.506 53.4818 104.324C53.8972 105.141 54.6957 105.715 55.3813 106.297C56.9454 107.625 58.5105 108.956 60.0775 110.278C63.1863 112.908 66.303 115.535 69.4117 118.165C72.9337 121.142 76.45 124.129 79.9494 127.133C80.5488 127.649 81.4282 126.771 80.8198 126.254C74.6935 121 68.5181 115.802 62.3565 110.592C60.8393 109.312 59.325 108.027 57.8117 106.746C57.0277 106.083 56.2476 105.419 55.4676 104.755C55.1416 104.478 54.7759 104.165 54.582 103.776C54.3623 103.339 54.5751 103.034 54.828 102.67C55.2868 102.008 55.8805 101.451 56.3952 100.838C56.8227 100.33 57.4468 99.6789 57.269 98.9518C57.0664 98.1158 56.0495 97.986 55.3587 97.7987C54.4508 97.5497 53.5437 97.2878 52.65 96.9965C52.1398 96.8293 51.6197 96.6733 51.1219 96.4728C50.8105 96.3466 50.5399 96.1494 50.4142 95.8236C50.2612 95.428 50.3618 94.943 50.3696 94.5258C50.3779 93.9671 50.3732 93.4077 50.3554 92.8475C50.2894 90.6566 50.0152 88.4701 49.5687 86.3256C49.406 85.5431 48.2118 85.8674 48.3735 86.6458L48.3753 86.6368Z" fill="white"/>
<path d="M75.1186 102.156C80.0395 107.549 84.9633 112.936 89.8842 118.329L94.1145 122.961C94.6521 123.549 95.5224 122.669 94.9848 122.081C90.0639 116.689 85.1401 111.301 80.2192 105.908L75.9889 101.276C75.4513 100.688 74.581 101.568 75.1186 102.156Z" fill="white"/>
</g>
</svg>
