<svg width="100" height="111" viewBox="0 0 100 111" fill="none" xmlns="http://www.w3.org/2000/svg">
<path d="M40.1198 44.9403C39.718 41.2104 38.8706 37.5377 37.78 33.7859C37.411 32.5119 36.9268 31.126 35.773 30.4791C34.6027 29.8196 33.0595 30.1808 32.0185 31.0347C30.9776 31.8887 30.3485 33.1403 29.8513 34.388C28.509 37.7551 28.3839 40.9053 28.1467 44.4149C27.8969 48.1023 27.4326 51.7769 26.6178 55.3806C25.1089 62.0425 22.3422 68.5161 17.8867 73.6845C21.0399 74.9344 24.5704 75.1019 27.8591 74.318C29.7531 73.8665 32.753 73.1648 34.2774 71.8363C36.3057 70.0703 37.2279 66.3469 38.0283 63.8884C39.0816 60.6572 39.7928 57.3138 40.1535 53.9325C40.4806 50.8489 40.4363 47.8762 40.1198 44.9362L40.1198 44.9403Z" fill="#001A52"/>
<path d="M40.7385 44.9414C40.4786 42.5843 40.062 40.2477 39.5216 37.9398C39.2432 36.7569 38.9359 35.5822 38.6039 34.4116C38.3415 33.4768 38.0875 32.5213 37.6394 31.6523C36.7392 29.906 34.8845 29.0801 33.0066 29.7796C31.1286 30.4791 30.0241 32.3211 29.2867 34.1472C27.5716 38.4025 27.7243 43.0415 27.2627 47.5306C26.8011 52.0197 25.9021 56.6237 24.3766 60.9538C22.8511 65.2839 20.5336 69.6581 17.4503 73.2537C17.1279 73.6294 17.2714 74.1175 17.7207 74.2919C20.7338 75.4631 24.0414 75.6963 27.2102 75.0982C28.4851 74.8565 29.7644 74.5239 30.9983 74.1333C32.2323 73.7427 33.4912 73.2571 34.5155 72.4485C36.4981 70.881 37.3403 68.1373 38.0703 65.8192C39.0243 62.7945 39.9081 59.778 40.4086 56.6368C41.0258 52.7599 41.1482 48.8532 40.7343 44.9496C40.6532 44.164 39.4117 44.1535 39.4969 44.9475C39.8499 48.2679 39.8358 51.6043 39.4176 54.9193C38.9993 58.2343 38.231 61.1766 37.2729 64.2302C36.5802 66.4367 35.9819 68.9204 34.4855 70.7451C32.9892 72.5699 30.2659 73.1191 28.0583 73.6486C24.7118 74.453 21.276 74.3643 18.0486 73.1059L18.319 74.1441C23.6797 67.89 26.6015 59.9614 27.915 51.9059C28.2861 49.6285 28.5458 47.3344 28.7148 45.036C28.8711 42.9319 28.945 40.8111 29.2993 38.7239C29.6535 36.6367 30.1974 34.6367 31.2605 32.8938C32.1209 31.4814 34.1323 29.9428 35.7469 31.2273C36.4925 31.8198 36.8248 32.8044 37.0914 33.6813C37.4564 34.8768 37.7801 36.0928 38.0791 37.3047C38.7057 39.8236 39.2086 42.3754 39.4928 44.9557C39.578 45.7414 40.8195 45.7518 40.7302 44.9579L40.7385 44.9414Z" fill="#001A52"/>
<path d="M34.5556 28.4552C33.9121 28.5036 33.346 29.0649 33.2871 29.7098C33.2408 30.2306 33.4874 30.7313 33.7589 31.1742C34.1866 31.8736 34.697 32.5195 35.2734 33.0993C35.7551 33.5838 36.3359 34.0396 37.0164 34.0863C37.6969 34.133 38.4444 33.5762 38.359 32.9021C38.3183 32.592 38.1208 32.3229 37.9315 32.0745C36.9315 30.7622 35.9315 29.4498 34.9315 28.1375" fill="white"/>
<path d="M34.5567 27.835C33.3026 27.9734 32.4633 29.0841 32.721 30.3331C32.8477 30.9493 33.2221 31.5122 33.5759 32.0214C33.9503 32.5595 34.3701 33.0729 34.8354 33.5368C35.663 34.3651 36.8167 35.0534 37.9809 34.4891C38.4515 34.2625 38.8483 33.8167 38.9482 33.2918C39.0772 32.614 38.7111 32.08 38.3201 31.5708C37.3695 30.3206 36.4148 29.0703 35.4642 27.8201C35.2625 27.5551 34.9328 27.414 34.619 27.5954C34.3589 27.7479 34.1931 28.1775 34.3948 28.4425C35.0491 29.3036 35.7034 30.1605 36.3577 31.0216C36.691 31.4605 37.0244 31.8952 37.3577 32.334C37.4812 32.4954 37.6294 32.6652 37.7074 32.8555C37.7608 32.9879 37.7483 33.054 37.7069 33.1284C37.3841 33.748 36.5474 33.3785 36.1232 33.0429C35.4024 32.467 34.8016 31.6887 34.3203 30.9064C34.0982 30.5464 33.798 30.0621 33.9266 29.6365C34.0096 29.3638 34.2781 29.1038 34.5545 29.0712C34.8846 29.0346 35.1737 28.816 35.1743 28.4521C35.1749 28.1462 34.8909 27.7943 34.5567 27.8309L34.5567 27.835Z" fill="#001A52"/>
<path d="M67.529 60.9716C65.8982 66.5418 67.463 72.7337 67.321 78.4388C67.1968 83.3874 67.3077 88.3488 66.8824 93.2886C66.7056 95.3637 66.7802 97.4723 66.1044 99.4556C65.4286 101.439 64.2538 103.368 62.7333 104.886C61.8573 105.765 60.767 106.561 59.5295 106.584C57.8714 106.618 56.5002 105.256 55.7067 103.795C53.0549 98.9159 50.9525 93.5376 48.763 88.4196C46.9597 84.2035 45.2637 79.9422 43.6873 75.6397C42.8786 73.443 42.0493 71.2379 41.352 69C40.6548 66.7621 41.6385 65.6145 42.298 63.5113C43.7746 58.809 43.8749 53.3974 43.3431 48.5345C43.2172 47.3725 43.2861 45.7147 42.4008 44.8698C41.5731 44.0787 40.2621 43.7249 39.3809 42.8841C37.5032 41.0907 36.3198 38.546 36.2955 35.9372C36.2851 34.8044 36.5058 33.6016 37.258 32.7554C38.2622 31.6285 40.0321 31.4166 41.4335 31.969C42.3774 32.3386 43.1064 32.989 43.7856 33.7261C44.539 34.5418 44.5261 34.8354 45.5584 34.217C46.3388 33.7512 47.0084 32.9172 47.4676 32.1491C47.6083 31.9137 48.2635 29.9014 48.3213 29.885C50.6116 29.2358 52.5985 27.5855 53.6664 25.4499C54.7302 23.3144 54.8585 20.7306 54.0045 18.5048C61.5987 22.8344 71.0177 23.8184 79.3419 21.154C78.9416 21.2814 79.1793 29.1867 79.1572 30.03C79.1484 30.3194 79.1397 30.6088 79.1309 30.8982C79.0435 33.6805 78.5275 36.2883 78.436 39.0623C78.3529 41.7412 77.9935 44.4196 77.3249 47.0148C76.0209 52.0647 73.4176 57.0792 68.892 59.9198C63.3051 63.4283 56.3042 59.4677 52.5835 54.9382" fill="white"/>
<path d="M66.6344 60.722C65.2109 65.6931 66.1423 70.8627 66.3602 75.9235C66.4711 78.5531 66.3427 81.1988 66.3134 83.8282C66.2838 86.5734 66.2377 89.3226 66.0514 92.0675C65.9625 93.3572 65.8819 94.647 65.7889 95.9326C65.6959 97.2182 65.5248 98.3673 65.0938 99.5324C64.3519 101.549 63.0242 103.647 61.2813 104.938C60.5049 105.515 59.5721 105.869 58.6282 105.483C57.775 105.134 57.1205 104.364 56.6599 103.59C55.3727 101.434 54.3497 99.0794 53.3309 96.7872C51.2191 92.029 49.1941 87.2173 47.2599 82.3808C46.2578 79.8778 45.3053 77.3583 44.3735 74.8306C43.8973 73.5399 43.4211 72.2533 42.9737 70.9543C42.588 69.8374 42.0044 68.6084 42.0519 67.4096C42.0908 66.4091 42.5874 65.4591 42.9273 64.5377C43.35 63.4015 43.6531 62.2197 43.8903 61.0335C44.3855 58.5497 44.5838 56.0115 44.5677 53.4813C44.551 51.2074 44.4066 48.8878 44.0971 46.634C43.9586 45.6415 43.6386 44.6818 42.8395 44.0272C42.0405 43.3725 40.9645 43.0316 40.1614 42.3481C38.5758 40.9975 37.4989 38.8457 37.2757 36.7823C37.1702 35.7858 37.1763 34.6488 37.6893 33.7609C38.1403 32.9844 38.9865 32.6262 39.8568 32.6195C40.8343 32.6129 41.7121 33.0485 42.4328 33.6948C43.0506 34.2457 43.6097 35.2679 44.4632 35.4554C45.4857 35.6805 46.6052 34.7233 47.2375 34.0339C47.8698 33.3446 48.2917 32.6797 48.5942 31.8493C48.7144 31.5146 48.8305 31.1799 48.9507 30.8452C49.0004 30.7048 49.0543 30.5643 49.1041 30.4197C49.1165 30.3825 49.1455 30.3329 49.1538 30.2957C49.1371 30.4115 49.0792 30.4569 48.9842 30.56L48.5754 30.7991C50.969 30.0963 53.0672 28.4711 54.2919 26.2821C55.6449 23.8658 55.8688 20.873 54.9082 18.2749L53.5411 19.3227C59.6272 22.769 66.8264 24.1914 73.7656 23.3271C75.7459 23.0784 77.6935 22.6684 79.596 22.0681L78.8854 20.3677C78.3983 20.6066 78.3354 21.2184 78.285 21.6896C78.2305 22.1939 78.2173 22.7065 78.204 23.215C78.1726 24.6537 78.1907 26.0966 78.2088 27.5354C78.2234 28.6062 78.2504 29.6729 78.2155 30.7437C78.1325 33.406 77.6535 36.0305 77.5334 38.6886C77.3146 43.4634 76.5225 48.2537 74.2753 52.5288C73.2738 54.4371 72.0086 56.1878 70.4098 57.6362C68.906 59.002 67.1015 60.1316 65.0347 60.3182C60.4432 60.7318 56.0558 57.6895 53.2487 54.3027C52.9276 53.9177 52.2676 53.9702 51.937 54.3004C51.5569 54.6801 51.6137 55.2301 51.9347 55.6151C54.6718 58.9233 58.635 61.6258 62.9651 62.1419C65.1301 62.3979 67.354 61.9636 69.2286 60.8299C71.1032 59.6963 72.8386 58.0125 74.1906 56.1751C76.9979 52.3641 78.4251 47.6452 79.0478 42.9993C79.2317 41.6353 79.3248 40.267 79.3768 38.8903C79.4328 37.5261 79.5878 36.1703 79.7386 34.8145C79.944 32.971 80.1081 31.1232 80.0866 29.2669C80.0687 27.7247 80.0384 26.1867 80.0411 24.6446C80.0424 23.9087 80.0478 23.1769 80.0821 22.4411C80.0949 22.1724 80.116 21.9078 80.1412 21.6432C80.1076 21.9987 80.1206 21.6432 80.1578 21.5895C80.1578 21.5854 80.1744 21.5317 80.1744 21.5317C80.199 21.6103 79.9551 21.9116 79.8148 21.9817C80.756 21.5162 80.1029 19.9646 79.1042 20.2812C72.7858 22.2835 65.9101 22.1764 59.632 20.0445C57.8429 19.4377 56.1243 18.6574 54.4802 17.7243C53.8291 17.3552 52.8216 17.9777 53.1131 18.7721C54.0162 21.2088 53.7351 23.9287 52.2341 26.0676C51.5849 26.9967 50.6967 27.7641 49.7141 28.3205C49.2351 28.5925 48.7481 28.786 48.2281 28.9629C47.708 29.1397 47.5261 29.3709 47.3355 29.8626C47.2071 30.1931 47.0951 30.5278 46.9791 30.8625C46.9086 31.0567 46.8423 31.255 46.7677 31.4492C46.7387 31.5277 46.7097 31.6062 46.6765 31.6847C46.6102 31.8665 46.7593 31.5484 46.6807 31.6723C46.3829 32.1431 46.081 32.5808 45.6802 32.9687C45.453 33.1874 45.2134 33.3689 44.9409 33.5214C44.9079 33.542 44.6891 33.6367 44.6891 33.6533C44.7057 33.5747 44.9447 33.6992 44.9695 33.6951L45.0272 33.7407C44.9778 33.6951 44.9325 33.6495 44.8913 33.5999C44.8378 33.5419 44.7884 33.4798 44.7349 33.4218C44.529 33.1858 44.3191 32.9539 44.0968 32.7303C43.6191 32.254 43.0878 31.8065 42.5027 31.4748C41.4149 30.861 40.1778 30.6438 38.9483 30.8566C37.7188 31.0695 36.6905 31.7788 36.0782 32.8237C35.4204 33.9512 35.286 35.3401 35.391 36.6178C35.6092 39.2063 36.7844 41.7013 38.658 43.503C39.5351 44.348 40.7142 44.6767 41.6285 45.4431C42.3699 46.0687 42.3017 47.2799 42.3744 48.1607C42.5965 50.9063 42.7979 53.6188 42.624 56.376C42.45 59.1333 41.975 61.8736 40.9806 64.4475C40.5413 65.5837 40.098 66.724 40.2031 67.9686C40.3243 69.42 40.9611 70.8557 41.4413 72.2167C43.5017 78.0249 45.7643 83.7549 48.1797 89.4274C49.3093 92.0794 50.4018 94.748 51.5644 97.3836C52.1602 98.7325 52.7724 100.073 53.4176 101.397C54.0177 102.626 54.5887 103.942 55.3869 105.055C56.0905 106.036 56.98 106.865 58.1259 107.293C59.3543 107.75 60.6994 107.496 61.8018 106.832C64.0687 105.472 65.7106 102.932 66.6883 100.536C67.7736 97.8793 67.7046 94.9065 67.9034 92.0873C68.1192 88.9745 68.1453 85.849 68.1796 82.7318C68.2095 79.8006 68.3054 76.8902 68.1002 73.9627C67.899 71.0559 67.5824 68.1365 67.7567 65.2221C67.8374 63.8704 68.046 62.5436 68.4195 61.2378C68.7515 60.0849 66.9581 59.5898 66.6302 60.7386L66.6344 60.722Z" fill="#001A52"/>
<path d="M67.897 34.6366C67.5306 36.5626 67.5231 38.5222 67.9033 40.4454C68.0832 41.3511 68.457 42.2241 68.5833 43.138C68.6729 43.7955 68.5059 44.9032 67.6438 44.9224C66.8477 44.9417 66.8455 46.182 67.6416 46.1627C68.5491 46.1395 69.2637 45.5537 69.6157 44.7357C70.034 43.769 69.8049 42.7226 69.5179 41.7505C68.866 39.521 68.6554 37.2633 69.0926 34.9695C69.2424 34.1883 68.0469 33.8514 67.9011 34.6366L67.897 34.6366Z" fill="#001A52"/>
<path d="M73.4264 38.0117C74.1781 38.013 74.7886 37.4032 74.7899 36.6498C74.7912 35.8963 74.1829 35.2843 73.4312 35.283C72.6794 35.2817 72.0689 35.8915 72.0676 36.645C72.0663 37.3985 72.6746 38.0104 73.4264 38.0117Z" fill="#001A52" stroke="#001A52" stroke-width="0.91" stroke-miterlimit="10"/>
<path d="M59.4737 37.3629C60.3006 37.3644 60.9722 36.6936 60.9736 35.8648C60.9751 35.0359 60.3059 34.3628 59.479 34.3614C58.6521 34.3599 57.9805 35.0307 57.9791 35.8595C57.9776 36.6884 58.6468 37.3614 59.4737 37.3629Z" fill="#001A52" stroke="#001A52" stroke-miterlimit="10"/>
<path d="M63.6312 30.4245C63.1731 30.5602 62.4473 30.4555 61.9855 30.4134C59.8492 30.2319 57.6756 30.1908 55.5594 30.2905C55.886 29.8445 56.8105 29.5526 57.813 29.4428C58.733 29.3451 59.6733 29.3923 60.6054 29.4559C61.5374 29.5196 62.4283 29.5749 63.3438 29.6881C63.5664 29.7175 63.8138 29.7551 63.9456 29.8752C64.0486 29.9664 64.0484 30.0904 63.9822 30.1895C63.9119 30.301 63.788 30.3752 63.6353 30.4204L63.6312 30.4245Z" fill="#001A52"/>
<path d="M63.5697 30.1971C63.058 30.3243 62.5055 30.2241 61.9859 30.1777C61.2724 30.1145 60.5548 30.0719 59.8413 30.0417C58.4142 29.9854 56.9871 29.9912 55.5598 30.0548L55.7241 30.4562C56.0879 30.0103 56.744 29.8585 57.2845 29.7561C58.023 29.6168 58.782 29.6057 59.5285 29.6318C60.2751 29.6579 60.9968 29.7171 61.7267 29.768C62.102 29.7976 62.4773 29.8272 62.8526 29.865C63.0382 29.886 63.2279 29.8988 63.4093 29.9322C63.5825 29.9614 63.9536 30.0489 63.5615 30.1888C63.2808 30.2916 63.3996 30.7466 63.6844 30.6438C64.3654 30.3969 64.4203 29.69 63.6658 29.5027C62.6928 29.2612 61.5956 29.2882 60.5975 29.2203C59.5995 29.1524 58.5395 29.1009 57.5205 29.2438C56.8026 29.3459 55.8784 29.5262 55.3865 30.1207C55.2666 30.2652 55.3321 30.534 55.5508 30.522C57.0317 30.4543 58.5166 30.4487 59.9972 30.5133C60.6901 30.5434 61.3871 30.586 62.0799 30.6534C62.6119 30.7039 63.1562 30.7793 63.6844 30.6438C63.9774 30.5699 63.8545 30.1149 63.5615 30.1888L63.5697 30.1971Z" fill="#001A52"/>
<path d="M71.5086 30.8725C71.5332 30.9056 71.5662 30.9346 71.6115 30.9636C71.698 31.0175 71.8176 31.055 71.9372 31.0841C72.3907 31.2007 72.8773 31.2429 73.3516 31.2726C73.7723 31.2982 74.2094 31.3527 74.6342 31.3948C75.5414 31.4873 76.4693 31.6171 77.3061 31.879C77.3803 31.8999 77.6483 31.9913 77.7143 31.9542C77.7639 31.9253 77.6362 31.8052 77.6033 31.7721C77.4921 31.6479 77.3438 31.5277 77.1708 31.4199C76.8247 31.2002 76.3837 31.0175 75.9055 30.8844C75.3654 30.7346 74.7881 30.6385 74.2149 30.5754C73.9262 30.5419 73.6334 30.5207 73.3406 30.4995C73.0478 30.4783 72.7633 30.4241 72.4704 30.407C72.223 30.3942 71.9713 30.4061 71.7733 30.4637C71.5422 30.5335 71.3892 30.7193 71.5003 30.8766L71.5086 30.8725Z" fill="#001A52"/>
<path d="M71.3516 31.0293C71.6356 31.3399 72.1883 31.3739 72.5759 31.4242C73.1408 31.4955 73.7141 31.5213 74.2791 31.5802C74.8441 31.639 75.4627 31.7021 76.0482 31.8065C76.5389 31.8942 77.0047 32.0604 77.4871 32.1605C77.7798 32.223 78.0771 32.0457 77.8591 31.7353C77.6204 31.3959 77.2125 31.1636 76.8457 30.9935C75.8566 30.5369 74.7473 30.3903 73.6709 30.3016C73.0935 30.2551 72.4751 30.1134 71.8974 30.2117C71.5179 30.2771 71.1008 30.5575 71.3145 30.9838C71.4419 31.232 71.8177 31.0136 71.6902 30.7653C71.6327 30.6494 72.3546 30.6176 72.4164 30.6219C72.6886 30.6347 72.9608 30.6807 73.233 30.706C73.7732 30.7565 74.3094 30.7906 74.8454 30.8783C75.3815 30.9661 75.8886 31.0786 76.3791 31.2696C76.7418 31.4108 77.356 31.66 77.5368 32.0407L77.5165 31.8711L77.5041 31.8959L77.6569 31.7432C77.5249 31.7719 77.2776 31.6433 77.1498 31.6059C76.8984 31.5351 76.6427 31.4768 76.3871 31.4268C75.8634 31.3225 75.3315 31.2513 74.7995 31.1966C74.2675 31.1419 73.7232 31.0831 73.1829 31.0449C72.9066 31.0237 72.6344 30.9985 72.3622 30.9525C72.1478 30.9149 71.8138 30.8895 71.6573 30.7197C71.4679 30.5127 71.1581 30.8222 71.3516 31.0252L71.3516 31.0293Z" fill="#001A52"/>
<path d="M42.7169 38.6895C43.0404 37.6607 42.8445 36.4779 42.1861 35.6251C41.5276 34.7723 40.555 34.291 39.5033 34.2767C39.1815 34.2762 38.8676 34.565 38.8835 34.8958C38.8994 35.2266 39.1546 35.5123 39.5011 35.517C39.5547 35.5171 39.6125 35.5172 39.6661 35.5214C39.6826 35.5215 39.831 35.5341 39.7486 35.5257C39.6661 35.5173 39.8145 35.5382 39.831 35.5383C39.8846 35.5508 39.9382 35.5591 39.9918 35.5758C40.0825 35.5966 40.1691 35.6257 40.2557 35.6589C40.268 35.6631 40.4082 35.7212 40.334 35.688C40.2598 35.6548 40.3958 35.7212 40.4123 35.7253C40.5029 35.771 40.5895 35.8207 40.676 35.8746C40.7131 35.8995 40.7543 35.9244 40.7914 35.9534C40.9355 36.0529 40.709 35.8747 40.8408 35.9907C40.9108 36.0528 40.9808 36.1108 41.0426 36.1771C41.0796 36.2185 41.1167 36.2558 41.1537 36.3013C41.1619 36.3137 41.2525 36.4296 41.2072 36.3675C41.162 36.3055 41.2607 36.4462 41.2566 36.4462C41.2813 36.4876 41.3101 36.529 41.3306 36.5703C41.3841 36.6614 41.4334 36.7566 41.4745 36.8559C41.4416 36.7731 41.4745 36.8559 41.4868 36.8972C41.5032 36.9427 41.5196 36.9882 41.5319 37.0337C41.5606 37.1371 41.5852 37.2405 41.6056 37.3439C41.6138 37.3936 41.6219 37.4721 41.6138 37.3812C41.6178 37.4391 41.626 37.497 41.6259 37.5548C41.6298 37.6499 41.6255 37.7491 41.6253 37.8442C41.6253 37.8938 41.6169 37.9393 41.6127 37.9889C41.6085 38.0592 41.6294 37.9104 41.6044 38.0261C41.5794 38.1418 41.5545 38.2493 41.5172 38.3608C41.4218 38.6707 41.6315 39.0515 41.949 39.1265C42.287 39.2056 42.6049 39.0242 42.7128 38.6937L42.7169 38.6895Z" fill="#001A52"/>
<path d="M59.2131 49.5381C60.9047 51.6041 63.6996 52.5516 66.299 52.0518C66.6291 51.9904 66.8154 51.5938 66.7335 51.2877C66.6392 50.9444 66.3012 50.7908 65.9712 50.8523C63.7844 51.2701 61.4885 50.369 60.085 48.659C59.8709 48.3982 59.4295 48.4387 59.2105 48.6575C58.9544 48.9134 58.995 49.2731 59.209 49.5339L59.2131 49.5381Z" fill="#001A52"/>
<path d="M53.84 18.1904C56.41 22.7179 55.277 29.0207 51.2867 32.3625C49.2957 34.0293 46.2822 35.4132 47.2707 38.6149C47.6234 39.7566 48.4591 40.6717 49.0925 41.6857C50.0098 43.1426 50.7974 45.5957 49.4173 47.0072C48.6446 47.7955 47.382 48.0537 46.3639 47.6261C47.1969 47.7185 47.9449 46.9343 48.0495 46.0994C48.1541 45.2644 47.7637 44.441 47.241 43.7786C46.7183 43.1162 46.0717 42.5734 45.5284 41.9317C44.6105 40.8427 44.0561 39.4692 43.8977 38.0549C43.8164 37.3478 43.8342 36.6285 43.9509 35.9259C44.0468 35.3596 44.5142 34.6039 44.4986 34.0622C44.4635 32.9004 42.5181 32.0867 41.5617 31.7956C40.8733 31.5835 40.1475 31.483 39.4256 31.5066C39.2235 31.5145 37.6431 31.8755 37.6102 31.8424C33.9911 28.1276 32.4708 22.4774 33.7335 17.4399C34.6473 13.8033 36.9876 10.5743 40.0765 8.47949C40.8487 7.95579 41.6662 7.49831 42.5248 7.12773C43.6889 6.62125 43.7508 6.58003 44.326 5.53919C45.2942 3.77553 47.4248 2.49762 49.2409 1.80624C51.4656 0.958472 53.8831 0.731191 56.263 0.731234C59.8102 0.737461 63.3813 1.23572 66.7036 2.49425C70.0218 3.74864 73.0828 5.78398 75.3177 8.54963C77.9106 11.7624 79.2852 15.8289 79.8803 19.9188C80.243 22.4207 80.3293 24.951 80.3125 27.4771C80.3062 28.6843 80.4564 30.0944 80.2274 31.2764C80.0318 32.2807 79.2223 32.9077 79.0681 31.4687C78.8774 29.6616 77.5147 28.1502 75.9159 27.2875C74.317 26.4247 72.4945 26.1032 70.709 25.7817C67.5753 25.2181 64.4292 24.6131 61.4615 23.4502C58.4937 22.2874 55.6962 20.5337 53.7413 18.0166" fill="#001A52"/>
<path d="M53.3033 18.5037C55.5483 22.522 54.7963 27.9574 51.5815 31.2468C50.1601 32.7037 48.1333 33.5808 47.0454 35.3566C46.4911 36.261 46.3449 37.3109 46.5576 38.3407C46.8357 39.6931 47.7331 40.7283 48.4653 41.8541C49.1193 42.8682 49.6986 44.1757 49.5232 45.4156C49.3186 46.8582 47.8201 47.5253 46.53 47.031L46.3628 48.2504C47.4475 48.306 48.3977 47.4478 48.6223 46.4063C48.8801 45.2243 48.3005 44.0905 47.5679 43.2045C46.7282 42.1901 45.7273 41.4028 45.1396 40.1946C44.5889 39.0566 44.3808 37.7622 44.4943 36.5097C44.5911 35.435 45.4425 34.4277 44.9412 33.3478C44.5673 32.545 43.7103 32.0268 42.9355 31.6698C41.8927 31.1926 40.7755 30.8805 39.6206 30.8868C39.3112 30.8862 39.01 30.9477 38.7047 31.0092C38.3746 31.0748 37.9415 31.0864 37.636 31.2223C37.3718 31.3417 38.1769 30.9338 37.9329 31.2931C37.9329 31.2931 37.6982 31.0405 37.7147 31.0612C37.5376 30.8666 37.3648 30.6637 37.196 30.4608C36.8133 29.9888 36.4635 29.488 36.1468 28.9706C35.5505 28.0021 35.0656 26.9677 34.7045 25.888C33.9823 23.7327 33.7265 21.4171 34.0233 19.1602C34.6337 14.4978 37.6933 10.3316 41.8177 8.1518C42.5897 7.74386 43.6131 7.50173 44.2165 6.83302C44.4934 6.52344 44.6796 6.14754 44.8865 5.79235C45.1802 5.28435 45.5522 4.8509 45.9778 4.45475C47.7377 2.82065 50.1439 1.97733 52.475 1.60933C55.1114 1.19226 57.883 1.28395 60.5222 1.62346C63.1614 1.96297 65.7711 2.65385 68.1656 3.80326C70.3292 4.84064 72.3231 6.22915 73.9741 7.97673C75.625 9.72432 76.9615 11.9881 77.8277 14.3214C78.735 16.754 79.2379 19.3223 79.4767 21.9067C79.6102 23.3622 79.6654 24.8258 79.6793 26.2894C79.6894 27.5959 79.7696 28.919 79.7096 30.2254C79.6967 30.523 79.6796 30.8289 79.6172 31.1223C79.5798 31.2959 79.4268 31.5148 79.41 31.6719C79.41 31.6719 79.3687 31.7338 79.3687 31.7297L79.6038 31.7135C79.748 31.8419 79.7933 31.8586 79.7399 31.7551C79.744 31.7427 79.6703 31.4491 79.6744 31.4739C79.6376 31.2712 79.6256 31.0645 79.5806 30.8618C79.3555 29.8278 78.7756 28.8842 78.0427 28.1305C76.2929 26.3248 73.7862 25.7209 71.3988 25.2827C66.2734 24.3434 60.8429 23.3913 56.6374 20.064C55.7189 19.3389 54.8913 18.5023 54.167 17.5832C53.6731 16.9581 52.8012 17.8372 53.291 18.4582C56.5998 22.6686 61.8307 24.5796 66.8898 25.6758C68.2751 25.9759 69.673 26.2223 71.0667 26.4769C72.3738 26.7148 73.7097 26.9735 74.938 27.5049C76.0302 27.9781 77.0642 28.6993 77.7389 29.701C78.0145 30.1149 78.2282 30.5576 78.3511 31.0416C78.4863 31.571 78.4357 32.1993 78.835 32.6259C79.5308 33.3754 80.3818 32.6203 80.6677 31.9056C81.1275 30.7695 80.9567 29.38 80.9258 28.1851C80.8525 25.2992 80.8658 22.4466 80.4336 19.5807C79.667 14.5024 77.6423 9.517 73.763 6.03322C69.8836 2.54944 64.5578 0.704446 59.2914 0.24456C56.5613 0.00411017 53.7235 0.0156669 51.0372 0.618698C48.7347 1.13558 46.3488 2.20219 44.7165 3.95641C44.3569 4.34441 44.0386 4.76969 43.7779 5.22815C43.6 5.53791 43.4509 5.9056 43.1576 6.12834C42.8314 6.37582 42.3981 6.50323 42.0307 6.67209C41.3495 6.98097 40.6931 7.3395 40.0654 7.74356C38.0751 9.02584 36.3727 10.7427 35.0988 12.7415C32.522 16.7845 31.9975 21.8523 33.5611 26.3738C33.9428 27.4742 34.4317 28.5418 35.0363 29.5351C35.3365 30.0317 35.6698 30.5077 36.0237 30.9714C36.3776 31.4351 36.7232 31.9442 37.1639 32.2923C37.6829 32.7025 38.6406 32.2907 39.2182 32.1801C39.2925 32.1637 39.3709 32.1473 39.4493 32.1392C39.2141 32.1677 39.7628 32.1397 39.6143 32.1395C39.9525 32.14 40.2907 32.1613 40.6247 32.2239C41.1442 32.3158 41.6595 32.4738 42.1459 32.6814C42.7476 32.9346 44.0295 33.4785 43.8382 34.3174C43.726 34.8216 43.4488 35.2717 43.3448 35.7759C43.195 36.524 43.1854 37.3136 43.2707 38.0704C43.4088 39.3068 43.8026 40.523 44.4813 41.5743C45.1601 42.6256 46.3053 43.4255 46.9963 44.5223C47.3048 45.0107 47.5677 45.6396 47.3893 46.2264C47.2483 46.6933 46.8599 47.0482 46.3609 47.0225C45.6185 46.984 45.5837 48.0051 46.1937 48.2418C47.4262 48.7153 48.9199 48.412 49.8496 47.4627C50.7793 46.5134 50.8971 45.2237 50.6723 44.0037C50.4354 42.7175 49.7856 41.596 49.045 40.5404C48.3045 39.4849 47.4939 38.33 47.7231 36.9991C47.8982 35.97 48.6873 35.2065 49.4556 34.567C50.3189 33.8533 51.2687 33.2514 52.0908 32.4921C53.9086 30.8043 55.1171 28.4789 55.5834 26.0487C56.1162 23.2796 55.7459 20.3725 54.3644 17.8978C53.9738 17.2025 52.9044 17.8249 53.295 18.5202L53.3033 18.5037Z" fill="#001A52"/>
<mask id="mask0_21_5" style="mask-type:luminance" maskUnits="userSpaceOnUse" x="0" y="63" width="100" height="48">
<path d="M89.2197 73.3094C83.0368 68.5978 74.8437 67.0868 67.0875 65.7874C66.8313 68.4247 67.173 71.1208 66.8838 73.7456C66.6658 75.7173 66.3572 77.6765 65.9619 79.6189C64.356 87.4961 61.2945 95.0814 56.9393 101.838C57.2165 101.408 53.5794 96.1634 53.1847 95.4806C51.84 93.1465 50.5325 90.7876 49.3034 88.3875C46.9316 83.7446 44.8406 78.9327 43.4305 73.9029C42.746 71.4666 42.2224 68.9809 41.9092 66.4709C41.7262 64.9987 42.0987 64.2387 40.7999 64.009C39.7278 63.8211 37.7134 64.694 36.5953 64.874C30.9676 65.7736 25.2178 65.809 19.6717 67.2049C3.46792 70.7238 2.41175 89.6613 0.131511 103.354C-0.68431 109.91 2.65565 110.499 8.24889 110.409C13.8296 110.394 19.4474 110.425 25.0363 110.443C48.019 110.446 70.9764 110.796 93.8934 110.7C95.5228 110.571 97.2187 110.231 98.2309 109.29C100.103 107.408 99.5849 103.975 99.7253 101.503C100.266 92.1235 98.0736 81.3786 90.9537 74.7636C90.3936 74.2458 89.817 73.757 89.2156 73.3011L89.2197 73.3094Z" fill="white"/>
</mask>
<g mask="url(#mask0_21_5)">
<path d="M81.9414 91.128C80.8861 95.4383 82.2521 99.7321 83.3585 103.881C83.5634 104.65 84.7601 104.326 84.5511 103.552C83.5062 99.6351 82.1357 95.5314 83.1328 91.4608C83.3239 90.6839 82.1283 90.3511 81.9414 91.128Z" fill="#001A52"/>
<path d="M89.2197 73.3094C83.0368 68.5978 74.8437 67.0868 67.0875 65.7874C66.8313 68.4247 67.173 71.1208 66.8838 73.7456C66.6658 75.7173 66.3572 77.6765 65.9619 79.6189C64.356 87.4961 61.2945 95.0814 56.9393 101.838C57.2165 101.408 53.5794 96.1634 53.1847 95.4806C51.84 93.1465 50.5325 90.7876 49.3034 88.3875C46.9316 83.7446 44.8406 78.9327 43.4305 73.9029C42.746 71.4666 42.2224 68.9809 41.9092 66.4709C41.7262 64.9987 42.0987 64.2387 40.7999 64.009C39.7278 63.8211 37.7134 64.694 36.5953 64.874C30.9676 65.7736 25.2178 65.809 19.6717 67.2049C3.46792 70.7238 2.41175 89.6613 0.131511 103.354C-0.68431 109.91 2.65565 110.499 8.24889 110.409C13.8296 110.394 19.4474 110.425 25.0363 110.443C48.019 110.446 70.9764 110.796 93.8934 110.7C95.5228 110.571 97.2187 110.231 98.2309 109.29C100.103 107.408 99.5849 103.975 99.7253 101.503C100.266 92.1235 98.0736 81.3786 90.9537 74.7636C90.3936 74.2458 89.817 73.757 89.2156 73.3011L89.2197 73.3094Z" fill="#001A52"/>
<path d="M89.53 72.7725C84.5911 69.0347 78.502 67.3124 72.515 66.1277C70.7667 65.7815 69.006 65.4807 67.2494 65.1841C66.8288 65.1131 66.5026 65.3482 66.4647 65.7822C66.2292 68.3658 66.5339 70.9626 66.2819 73.542C66.0299 76.1214 65.5801 78.5929 65.0107 81.0684C63.9467 85.6805 62.3879 90.18 60.3469 94.4513C59.1836 96.8885 57.8637 99.2469 56.4037 101.518L57.4709 102.144C57.6779 101.723 57.4889 101.309 57.3039 100.916C57.0574 100.391 56.753 99.8941 56.4487 99.3974C55.7413 98.2344 54.9843 97.1044 54.2356 95.9703C53.2442 94.4678 52.4014 92.8663 51.538 91.2855C50.2923 89.0053 49.1084 86.6921 48.0154 84.3378C45.8375 79.6415 44.056 74.7433 43.0461 69.6563C42.8049 68.4445 42.5596 67.2038 42.4793 65.9675C42.4351 65.2977 42.519 64.4792 42.0291 63.9409C40.8188 62.6158 38.3997 63.7857 37.0132 64.1471C35.899 64.4345 34.7192 64.5317 33.5764 64.662C32.3057 64.8086 31.0351 64.9345 29.7645 65.0604C27.1696 65.3205 24.5706 65.5846 22.0042 66.0597C18.4352 66.7232 14.9522 67.7383 11.9992 69.9326C6.85308 73.756 4.22319 79.8578 2.63697 85.8953C1.79401 89.1103 1.21493 92.3878 0.693587 95.6655C0.439145 97.2815 0.201201 98.8976 -0.0491171 100.514C-0.299435 102.13 -0.669505 103.824 -0.610582 105.503C-0.563437 106.842 -0.252356 108.207 0.665668 109.222C1.47665 110.12 2.6679 110.565 3.83069 110.778C5.42232 111.066 7.03926 111.027 8.65202 111.022C11.3826 111.014 14.109 111.019 16.8395 111.028C27.6626 111.059 38.4816 111.087 49.3047 111.155C60.1278 111.224 70.9508 111.313 81.7739 111.328C84.5127 111.333 87.2474 111.334 89.9862 111.326C92.3455 111.322 94.8859 111.558 97.1272 110.656C98.0559 110.282 98.8241 109.704 99.3453 108.837C99.8376 108.015 100.066 107.069 100.183 106.122C100.422 104.254 100.322 102.323 100.387 100.442C100.674 92.3805 99.0182 83.7369 94.0181 77.2248C92.7218 75.5357 91.2148 74.0571 89.5259 72.7601C88.8957 72.2753 88.2751 73.3491 88.9012 73.8298C95.393 78.8189 98.3443 86.9646 99.0192 94.9078C99.1849 96.8471 99.2227 98.7986 99.1409 100.742C99.0635 102.561 99.2128 104.442 98.9292 106.244C98.7957 107.091 98.5425 107.971 97.9804 108.636C97.348 109.379 96.3287 109.679 95.4086 109.868C94.2285 110.105 93.0406 110.074 91.8404 110.076C90.5411 110.082 89.2418 110.084 87.9384 110.086C77.5277 110.097 67.1212 110.033 56.7106 109.961C46.3 109.889 35.7286 109.825 25.2395 109.815C20.0507 109.806 14.866 109.772 9.67712 109.779C7.97775 109.78 6.24522 109.877 4.5545 109.646C3.5277 109.504 2.4104 109.225 1.65691 108.467C0.812852 107.614 0.629468 106.344 0.623236 105.195C0.617759 103.616 0.962859 102.049 1.2007 100.491C1.68055 97.354 2.13566 94.2086 2.73922 91.0882C3.88805 85.1533 5.52424 78.8513 9.43043 74.0872C11.3112 71.7918 13.7026 69.9562 16.4516 68.8324C18.21 68.1161 20.0834 67.6894 21.9442 67.3289C24.3993 66.8494 26.8869 66.5851 29.3704 66.3372C31.8539 66.0894 34.3167 65.8911 36.7551 65.4655C37.6257 65.314 38.4553 64.993 39.3095 64.7795C39.7304 64.6728 40.8323 64.3522 41.1367 64.8117C41.256 64.9938 41.2099 65.3699 41.2178 65.5767C41.2417 66.0976 41.2985 66.6062 41.3677 67.119C41.5388 68.372 41.7593 69.621 42.0294 70.8576C42.5531 73.2854 43.2542 75.6763 44.0833 78.0178C45.7414 82.7007 47.9031 87.1903 50.2672 91.552C51.147 93.1701 52.002 94.8294 53.014 96.3692C53.7092 97.4329 54.4168 98.4884 55.0914 99.5645C55.404 100.061 55.7083 100.562 55.9879 101.075C56.0907 101.261 56.1935 101.452 56.2756 101.646C56.2222 101.522 56.3043 101.758 56.3208 101.774C56.3331 101.791 56.3207 101.828 56.3371 101.845C56.2836 101.783 56.3706 101.56 56.3955 101.51C56.0477 102.225 57.0284 102.813 57.4627 102.136C62.765 93.8809 66.1473 84.4523 67.3729 74.714C67.7494 71.7338 67.4205 68.7523 67.6939 65.772L66.9091 66.3701C72.8881 67.3769 79.0403 68.4254 84.5255 71.1431C86.0627 71.9023 87.5254 72.7938 88.893 73.8298C89.5273 74.3105 90.1479 73.2366 89.5177 72.7601L89.53 72.7725Z" fill="#001A52"/>
<path d="M71.2869 72.5958C72.6861 74.405 74.139 76.1646 75.5423 77.9696C75.8716 78.3919 76.1926 78.8142 76.5135 79.2406C76.674 79.4558 76.9663 79.7788 76.9824 79.9938C77.0067 80.2916 76.6101 80.6506 76.3086 80.8691C75.3463 81.562 74.1742 81.9651 73.0558 82.327C72.4903 82.512 71.8508 82.6474 71.454 83.1262C70.9373 83.7455 71.2494 84.5191 71.7724 85.012C72.4971 85.6955 73.3995 86.2139 74.2731 86.6826C75.0396 87.0932 75.9795 87.4091 76.6095 88.0262C77.3342 88.7344 77.0972 89.8007 76.84 90.6684C76.5495 91.6519 76.1931 92.6228 75.8532 93.5897C74.4562 97.5562 72.8119 101.435 70.8956 105.178C68.7227 109.416 66.2036 113.467 63.3344 117.266C62.8548 117.902 63.9262 118.524 64.4016 117.892C69.6356 110.964 73.6667 103.19 76.6425 95.0339C77.0073 94.0341 77.3473 93.0259 77.6914 92.0177C78.0106 91.0757 78.3795 90.0882 78.3235 89.0752C78.2036 86.8879 76.0475 86.264 74.4322 85.3516C74.0202 85.1194 73.6205 84.8747 73.2333 84.597C73.0232 84.4437 72.4093 84.0251 72.4014 83.8473C72.4053 83.9713 72.517 83.8061 72.6697 83.7444C72.7811 83.6991 72.9008 83.6704 73.0122 83.6334C73.2433 83.5593 73.4786 83.4853 73.7097 83.4072C74.9396 82.9918 76.2232 82.5103 77.2476 81.6894C77.7308 81.3016 78.1607 80.7773 78.2031 80.1324C78.2666 79.223 77.4924 78.4981 76.9821 77.8316C75.4018 75.7658 73.7431 73.7701 72.1505 71.7126C71.6649 71.0833 70.793 71.9665 71.2745 72.5875L71.2869 72.5958Z" fill="white"/>
<path d="M31.0569 71.3138C30.942 73.2981 30.6705 75.2614 30.2299 77.1996C30.0179 78.1377 29.6987 79.0467 29.4784 79.9766C29.3081 80.6874 29.4305 81.4152 29.8832 81.9948C30.3771 82.6283 31.1971 83.0555 31.8605 83.4867C32.6762 84.0214 33.5126 84.5273 34.3532 85.0166C34.551 85.1327 34.7529 85.2406 34.9466 85.3608C34.9795 85.3815 35.1773 85.4811 35.2061 85.5473C35.1814 85.4894 35.26 85.4068 35.1691 85.4935C34.8799 85.7659 34.5454 85.9926 34.2191 86.2112C33.5501 86.6565 32.8565 87.0687 32.241 87.5886C31.5718 88.1538 31.1911 88.8229 31.3793 89.7204C31.5675 90.6179 32.189 91.3797 32.6991 92.1206C33.8634 93.8095 35.0278 95.5025 36.1962 97.1872C38.5125 100.536 40.8371 103.885 43.1534 107.233C45.7783 111.025 48.3949 114.825 50.9909 118.637C51.4352 119.291 52.5129 118.673 52.0603 118.015C47.5142 111.346 42.9062 104.719 38.3147 98.0839C37.1833 96.453 36.056 94.818 34.9287 93.1871C34.3445 92.3426 33.7644 91.4982 33.1843 90.6538C32.9416 90.3019 32.67 89.9046 32.5841 89.4786C32.486 88.9988 32.771 88.7595 33.1097 88.4749C33.7252 87.955 34.4436 87.5718 35.1002 87.114C35.6453 86.7346 36.4175 86.2688 36.4353 85.5205C36.4574 84.6606 35.5094 84.2703 34.8914 83.9095C34.0796 83.4327 33.2721 82.9434 32.4852 82.4294C32.0361 82.1351 31.5746 81.849 31.1462 81.5257C30.8785 81.3227 30.6686 81.0619 30.6321 80.7145C30.5874 80.2927 30.8109 79.8507 30.9271 79.4499C31.0807 78.9127 31.2219 78.3714 31.3507 77.8259C31.8576 75.6935 32.1626 73.5111 32.2902 71.3242C32.3369 70.5264 31.0995 70.5283 31.0528 71.322L31.0569 71.3138Z" fill="white"/>
<path d="M52.8338 93.264C56.1799 99.7525 59.5302 106.237 62.8763 112.725L65.7538 118.299C66.1196 119.007 67.189 118.385 66.8232 117.677C63.4771 111.188 60.1268 104.704 56.7807 98.2156L53.9032 92.6416C53.5374 91.9339 52.468 92.5564 52.8338 93.264Z" fill="white"/>
</g>
</svg>
