<svg width="107" height="116" viewBox="0 0 107 116" fill="none" xmlns="http://www.w3.org/2000/svg">
<path d="M39.3192 66.8436C31.3221 73.3399 19.8616 74.5021 12.2454 81.4352C4.98186 88.0478 2.76512 98.4114 0.929195 108.062C0.584459 109.873 0.131495 112.863 1.73492 114.286C3.23412 115.616 6.64541 114.995 8.46931 115.023C14.4381 115.115 20.4108 115.111 26.3796 115.107C36.7257 115.099 47.0758 115.091 57.4219 115.079C66.1124 115.071 74.803 115.063 83.4936 115.055C87.907 115.055 92.3204 115.047 96.7379 115.043C99.159 115.043 103.933 115.889 105.376 113.312C106.178 111.877 106.014 110.122 105.825 108.487C105.088 102.082 104.334 95.5941 101.985 89.5907C99.5439 83.3509 95.2547 78.0488 89.2018 75.0351C81.7218 71.3121 73.5042 68.5949 65.7116 65.5972C65.3588 69.4085 62.9818 72.8109 59.9673 75.1634C56.9529 77.5158 53.3331 78.9586 49.7214 80.2129C47.5608 80.9624 44.2738 82.1366 42.2655 80.5696C40.2171 78.9746 38.9544 77.0309 38.6137 74.4099C38.273 71.789 38.7941 69.2882 39.2992 66.7715" fill="#001A52"/>
<path d="M38.8943 66.4148C33.2021 71.0075 25.9346 72.863 19.4608 76.017C16.2579 77.58 13.2034 79.5036 10.7181 82.0805C8.2328 84.6574 6.30869 87.8234 4.88966 91.1416C3.47063 94.4599 2.45245 98.0307 1.64272 101.593C1.23785 103.381 0.877088 105.18 0.532351 106.98C0.235718 108.531 -0.11303 110.13 0.0352872 111.717C0.183604 113.304 0.800921 114.678 2.27607 115.295C3.75122 115.913 5.4268 115.76 6.96208 115.676C8.92227 115.568 10.8905 115.656 12.8547 115.676C15.1756 115.696 17.4966 115.704 19.8216 115.708C29.2216 115.72 38.6177 115.696 48.0178 115.688C57.3898 115.68 66.7658 115.672 76.1379 115.664C80.7677 115.664 85.3936 115.656 90.0235 115.652C92.2924 115.652 94.5652 115.624 96.8341 115.648C98.1809 115.66 99.5278 115.812 100.875 115.772C102.222 115.732 103.725 115.568 104.855 114.758C106.298 113.724 106.635 111.881 106.579 110.206C106.507 108.094 106.15 105.962 105.877 103.866C105.605 101.77 105.28 99.5776 104.855 97.4536C103.356 89.9754 100.338 82.6696 94.3407 77.6841C91.3143 75.1674 87.7186 73.5804 84.1269 72.0414C80.0662 70.3062 75.9254 68.7713 71.7845 67.2363C69.8123 66.507 67.8401 65.7736 65.8759 65.0201C65.4751 64.8679 65.1504 65.2526 65.1143 65.6012C64.517 71.6086 59.2378 75.6042 54.1268 77.8805C52.7198 78.5057 51.2687 79.0427 49.8136 79.5517C48.611 79.9725 47.4045 80.4013 46.1458 80.6257C44.9873 80.8341 43.6765 80.8542 42.6784 80.1408C41.6802 79.4275 40.7503 78.3815 40.137 77.2714C38.4012 74.1134 39.207 70.2741 39.8764 66.9358C40.0287 66.1783 38.8702 65.8577 38.7179 66.6152C38.0525 69.9455 37.3029 73.6285 38.6377 76.8947C39.6359 79.3353 41.8326 81.8601 44.6346 81.9482C46.0536 81.9923 47.4726 81.6036 48.8075 81.1668C50.2866 80.6818 51.7578 80.1528 53.2009 79.5677C56.2754 78.3254 59.2859 76.7664 61.707 74.462C64.1282 72.1577 65.9721 69.0358 66.3129 65.6052L65.5512 66.1864C73.4601 69.2241 81.6216 71.817 89.1737 75.7004C95.5593 78.9826 99.8645 84.9659 102.097 91.6787C103.432 95.6863 104.15 99.8742 104.691 104.054C104.955 106.114 105.316 108.218 105.372 110.294C105.416 111.829 105.096 113.468 103.544 114.117C102.31 114.63 100.879 114.61 99.5679 114.566C98.0927 114.518 96.6296 114.45 95.1545 114.45C90.6368 114.45 86.1192 114.458 81.6015 114.462C72.5061 114.47 63.4107 114.478 54.3152 114.486C45.2038 114.494 36.0923 114.502 26.9768 114.51C22.3991 114.51 17.8213 114.518 13.2395 114.482C11.2753 114.466 9.29507 114.358 7.33087 114.458C5.88378 114.534 4.27234 114.746 2.87335 114.253C1.47436 113.761 1.17372 112.182 1.19376 110.843C1.21781 109.264 1.59863 107.697 1.90328 106.154C2.59676 102.627 3.3664 99.1087 4.46876 95.6863C5.54305 92.3439 6.94605 89.0938 8.92628 86.1843C10.9025 83.2787 13.464 80.8902 16.4463 79.0387C22.4271 75.3197 29.386 73.6084 35.499 70.1419C36.9862 69.2962 38.4093 68.3424 39.7401 67.2684C40.3414 66.7835 39.4876 65.9379 38.8903 66.4188L38.8943 66.4148Z" fill="#001A52"/>
<path d="M39.5878 61.3732C39.0867 61.5576 39.3312 62.1187 39.3673 62.5755C39.4154 63.1727 39.4515 63.7698 39.4755 64.3669C39.5276 65.5612 39.5356 66.7595 39.5076 67.9537C39.4475 70.3142 39.223 72.6747 38.8422 75.0071C38.6097 76.4298 38.3611 78.0408 39.247 79.179C39.7641 79.8443 40.5819 80.2049 41.3916 80.4534C45.2078 81.6276 49.3686 80.8782 53.1367 79.5517C56.0549 78.5258 58.889 77.1391 61.21 75.0953C62.8535 73.6525 64.2324 71.8651 65.0782 69.8373C66.0082 67.6131 64.7535 65.6053 64.2204 63.349C63.1341 58.7363 62.8414 53.9392 63.3665 49.2302C63.4908 48.1041 63.4267 46.497 64.2885 45.6795C65.0942 44.914 66.369 44.5734 67.2268 43.7599C69.0547 42.0246 70.2092 39.5599 70.2372 37.0311C70.2493 35.933 70.0368 34.7668 69.3072 33.9453C68.3332 32.8512 66.6135 32.6428 65.2506 33.1758C64.3326 33.5325 63.6231 34.1617 62.9617 34.875C62.2281 35.6645 62.2401 35.9491 61.238 35.3479C60.4804 34.8951 59.831 34.0855 59.386 33.3401C59.2498 33.1117 58.6164 31.16 58.5603 31.1439C56.3355 30.5107 54.4074 28.9077 53.3732 26.8358C52.339 24.7639 52.2227 22.2591 53.0565 20.103C45.6687 24.287 36.5132 25.2247 28.4279 22.6278C28.5562 30.9877 28.6885 39.3595 29.6305 47.6673C29.9792 50.7451 30.4843 53.9231 32.2 56.5C34.5811 60.0788 39.1228 61.9263 43.4039 61.5416C47.6851 61.1568 51.6375 58.7362 54.3753 55.422" fill="white"/>
<path d="M39.1348 60.5958C38.1407 61.0767 38.4373 62.1147 38.4974 62.9723C38.5816 64.1665 38.6217 65.3608 38.6257 66.5551C38.6257 68.8755 38.4814 71.1999 38.1647 73.4962C37.9082 75.3838 37.2267 77.616 38.297 79.3794C39.3673 81.1427 41.9207 81.6437 43.8609 81.8521C48.106 82.3049 52.4793 80.9824 56.3075 79.2431C60.1357 77.5038 63.3465 75.0512 65.2867 71.4804C65.7958 70.5426 66.2207 69.5688 66.3008 68.4947C66.381 67.4207 66.1124 66.4348 65.8078 65.469C65.1584 63.4051 64.6493 61.3492 64.3647 59.1971C64.06 56.9128 63.9598 54.6004 64.044 52.296C64.0841 51.1859 64.1963 50.0879 64.2965 48.9818C64.3607 48.2524 64.3447 47.4589 64.6293 46.7696C64.9139 46.0803 65.7757 45.7476 66.401 45.407C67.2709 44.9301 68.0005 44.341 68.6338 43.5795C69.9286 42.0286 70.7904 40.165 71.051 38.1572C71.2955 36.2777 71.051 34.0895 69.4395 32.8592C67.9403 31.713 65.8078 31.7731 64.2084 32.6749C63.3666 33.1477 62.6691 33.8411 62.0357 34.5584C62.0157 34.5785 61.7551 34.871 61.7511 34.867C61.719 34.8309 62.0758 34.7468 62.0638 34.7708C62.0237 34.851 61.1578 34.1657 61.0576 34.0615C60.745 33.7489 60.4724 33.4002 60.2439 33.0195C60.2158 32.9714 60.1798 32.9113 60.1477 32.8592C60.0675 32.731 60.2158 33.0315 60.1637 32.9033C60.1116 32.775 60.0635 32.6428 60.0154 32.5105C59.835 32.0096 59.6707 31.4966 59.4742 30.9997C59.3019 30.5709 59.1055 30.3905 58.6525 30.2342C58.2476 30.094 57.8548 29.9537 57.474 29.7533C56.6883 29.3445 55.9908 28.8155 55.3855 28.1703C54.1148 26.8197 53.4213 25.0163 53.4053 23.1688C53.3973 22.195 53.5817 21.2612 53.9224 20.3475C54.211 19.578 53.2369 18.9689 52.5956 19.3296C46.9796 22.4875 40.4015 23.7219 34.0119 22.9524C32.196 22.732 30.4001 22.3192 28.6604 21.7622C28.1032 21.5858 27.51 22.0627 27.518 22.6318C27.5901 27.2726 27.6623 31.9134 27.8707 36.5502C28.0752 41.0387 28.3437 45.5673 29.0252 50.0117C29.3258 51.9794 29.8069 53.9271 30.6968 55.7185C31.5306 57.3977 32.7612 58.8084 34.2644 59.9225C37.1506 62.0626 40.8865 62.84 44.4141 62.315C48.5669 61.6979 52.343 59.2452 55.0047 56.0552C55.3174 55.6825 55.3695 55.1454 55.0047 54.7808C54.684 54.4601 54.0426 54.404 53.73 54.7808C51.5092 57.4458 48.5629 59.5177 45.1637 60.3393C42.0009 61.1047 38.5936 60.5878 35.8438 58.8244C34.4688 57.9427 33.3304 56.7525 32.5327 55.3258C31.6348 53.7227 31.1738 51.9193 30.8651 50.1199C30.1476 45.948 29.9311 41.6559 29.7227 37.4359C29.4782 32.5025 29.402 27.5652 29.3258 22.6278L28.1834 23.4975C34.6572 25.5574 41.8005 25.4492 48.2262 23.249C50.0541 22.6238 51.8259 21.8303 53.5095 20.8845L52.1827 19.8666C51.2447 22.3793 51.4571 25.2848 52.7679 27.6293C53.9545 29.7533 55.9908 31.3323 58.3158 32.0176L57.9189 31.7852C57.9189 31.7852 57.7225 31.5527 57.8107 31.6569C57.8107 31.6569 57.7345 31.4565 57.7666 31.5567C57.7947 31.6369 57.8267 31.717 57.8548 31.7972C57.947 32.0497 58.0312 32.3021 58.1234 32.5506C58.2677 32.9634 58.3959 33.4082 58.6044 33.793C58.9812 34.4863 59.5384 35.1596 60.1437 35.6605C60.6929 36.1134 61.4344 36.6384 62.184 36.5502C62.8535 36.47 63.2263 35.905 63.6512 35.4481C64.1603 34.9031 64.7175 34.3941 65.4029 34.0815C66.5133 33.5766 68.0806 33.6888 68.8102 34.7708C69.6199 35.9811 69.4035 37.7685 69.0347 39.091C68.6138 40.5979 67.78 41.9845 66.6496 43.0625C65.5192 44.1406 63.8837 44.333 63.1341 45.7276C62.4366 47.0261 62.5007 48.7453 62.3724 50.18C62.0397 53.9632 62.2402 57.7824 62.9216 61.5135C63.09 62.4393 63.2744 63.365 63.5349 64.2667C63.7794 65.1003 64.0921 65.9139 64.3086 66.7555C64.505 67.5209 64.6012 68.3104 64.3847 69.0799C64.1683 69.8493 63.7634 70.5426 63.3585 71.1999C61.6068 74.0373 58.8409 76.041 55.8665 77.4597C52.7479 78.9466 49.2244 80.0647 45.7449 80.1208C44.1295 80.1488 42.2695 80.0005 40.8064 79.2551C40.149 78.9225 39.716 78.4416 39.5757 77.7042C39.4354 76.9668 39.5517 76.2414 39.6639 75.5401C40.2692 71.7008 40.5578 67.8455 40.3614 63.9541C40.3374 63.4692 40.3173 62.9843 40.2652 62.5034C40.2492 62.3391 40.2492 62.1227 40.1891 61.9664C40.0969 61.7339 40.3414 61.9944 40.0447 62.1387C40.4817 61.9263 40.6019 61.3011 40.3694 60.9044C40.1089 60.4555 39.5757 60.3673 39.1348 60.5797V60.5958Z" fill="#001A52"/>
<path d="M38.3691 36.0333C38.79 38.2575 38.5815 40.4496 37.9442 42.6057C37.6756 43.5154 37.4431 44.5093 37.8159 45.4271C38.1486 46.2526 38.8501 46.8618 39.7641 46.8858C40.5377 46.9059 40.5377 45.7036 39.7641 45.6836C38.9263 45.6595 38.7619 44.5895 38.8541 43.9523C38.9784 43.0666 39.3472 42.221 39.5195 41.3433C39.8923 39.4798 39.8843 37.5802 39.5356 35.7127C39.3913 34.9552 38.2328 35.2758 38.3771 36.0333H38.3691Z" fill="#001A52"/>
<path d="M34.1481 38.9748C34.8787 38.9748 35.4709 38.3827 35.4709 37.6523C35.4709 36.9219 34.8787 36.3298 34.1481 36.3298C33.4175 36.3298 32.8253 36.9219 32.8253 37.6523C32.8253 38.3827 33.4175 38.9748 34.1481 38.9748Z" fill="#001A52" stroke="#001A52" stroke-width="0.91" stroke-miterlimit="10"/>
<path d="M47.713 38.3737C48.5167 38.3737 49.1681 37.7224 49.1681 36.9189C49.1681 36.1155 48.5167 35.4642 47.713 35.4642C46.9094 35.4642 46.2579 36.1155 46.2579 36.9189C46.2579 37.7224 46.9094 38.3737 47.713 38.3737Z" fill="#001A52" stroke="#001A52" stroke-miterlimit="10"/>
<path d="M43.6764 31.5083C44.1253 31.7368 44.8268 31.5885 45.2758 31.5404C47.3482 31.308 49.4607 31.304 51.5251 31.5284C51.1964 30.815 50.2905 30.3261 49.3124 30.1257C48.4145 29.9454 47.5045 29.9935 46.5946 30.0696C45.6847 30.1458 44.8228 30.2059 43.9369 30.3582C43.7205 30.3942 43.48 30.4503 43.3557 30.6347C43.2595 30.779 43.2635 30.9713 43.3276 31.1316C43.3998 31.312 43.52 31.4282 43.6724 31.5043L43.6764 31.5083Z" fill="#001A52"/>
<path d="M43.5283 31.7611C44.0293 31.9775 44.5384 31.9254 45.0716 31.8573C45.753 31.7691 46.4345 31.717 47.1199 31.6849C48.5911 31.6168 50.0622 31.6649 51.5253 31.8172C51.7618 31.8412 51.8661 31.5567 51.7779 31.3763C50.9 29.6371 48.4067 29.633 46.7592 29.7613C46.21 29.8054 45.6608 29.8495 45.1156 29.9056C44.6346 29.9577 44.1095 29.9857 43.6485 30.122C42.8187 30.3705 42.8428 31.3483 43.5323 31.7571C43.857 31.9494 44.1496 31.4445 43.8289 31.2521C43.5924 31.1118 43.5162 30.8233 43.8048 30.6871C43.9331 30.6269 44.1175 30.6229 44.2578 30.5989C44.6707 30.5348 45.0916 30.4907 45.5085 30.4506C46.2461 30.3825 46.9836 30.3063 47.7252 30.2903C48.9318 30.2662 50.6595 30.4426 51.2808 31.6689L51.5334 31.2281C50.1785 31.0878 48.8115 31.0357 47.4486 31.0838C46.7792 31.1078 46.1098 31.1519 45.4443 31.2241C44.9433 31.2762 44.3139 31.4605 43.8329 31.2481C43.4922 31.0998 43.1955 31.6008 43.5363 31.7531L43.5283 31.7611Z" fill="#001A52"/>
<path d="M35.9999 31.805C35.9799 31.8531 35.9478 31.9012 35.9037 31.9453C35.8235 32.0254 35.7073 32.0735 35.595 32.1136C35.1581 32.2699 34.6851 32.3019 34.2201 32.314C33.8112 32.326 33.3823 32.3781 32.9734 32.4181C32.0875 32.4983 31.1896 32.6426 30.3879 32.9993C30.3198 33.0313 30.0632 33.1555 29.9911 33.0874C29.9389 33.0393 30.0592 32.851 30.0873 32.7989C30.1875 32.6065 30.3238 32.4222 30.4841 32.2578C30.8088 31.9292 31.2297 31.6687 31.6867 31.4844C32.2038 31.28 32.761 31.1718 33.3222 31.1077C33.6028 31.0756 33.8874 31.0596 34.172 31.0476C34.4566 31.0355 34.7332 30.9714 35.0178 30.9674C35.2583 30.9634 35.5068 30.9995 35.7033 31.1117C35.9358 31.2439 36.1001 31.5565 35.9999 31.801V31.805Z" fill="#001A52"/>
<path d="M35.7636 31.6689C35.6433 31.8893 35.2826 31.9334 35.0581 31.9735C34.7815 32.0216 34.5009 32.0336 34.2203 32.0456C33.6952 32.0657 33.1741 32.1218 32.6529 32.1819C32.1679 32.234 31.6829 32.3101 31.2139 32.4304C30.9734 32.4905 30.7409 32.5666 30.5084 32.6588C30.4081 32.6989 30.3119 32.743 30.2157 32.783C30.1235 32.8191 30.0113 32.7991 30.1275 32.8552L30.2518 33.0195C30.2398 33.0956 30.2478 33.0996 30.2719 33.0275C30.2879 32.9995 30.3039 32.9674 30.32 32.9393C30.3841 32.8191 30.4562 32.7069 30.5444 32.5987C30.7128 32.3983 30.9132 32.226 31.1337 32.0817C31.5987 31.7771 32.1278 31.6008 32.673 31.4886C33.2181 31.3764 33.8114 31.3684 34.3846 31.3123C34.6893 31.2802 35.9319 31.0798 35.7395 31.7371C35.6393 32.0737 36.1684 32.218 36.2687 31.8813C36.3969 31.4565 36.1484 31.0277 35.7596 30.8394C35.2705 30.6069 34.7414 30.7432 34.2283 30.7792C33.126 30.8554 31.9995 30.9396 31.0255 31.5086C30.6006 31.7571 30.2157 32.0857 29.9472 32.4985C29.7988 32.7309 29.5223 33.2038 29.9231 33.3561C30.0754 33.4122 30.2358 33.3561 30.3801 33.3C30.6206 33.1998 30.8571 33.1037 31.1056 33.0275C31.6468 32.8632 32.204 32.771 32.7612 32.7149C33.4266 32.6468 34.092 32.6227 34.7574 32.5586C35.2585 32.5105 35.972 32.4344 36.2366 31.9414C36.405 31.6329 35.9319 31.3563 35.7636 31.6649V31.6689Z" fill="#001A52"/>
<path d="M39.8563 52.296C39.6559 51.6829 39.7401 50.713 40.4135 50.4084C40.8063 50.2281 41.2673 50.3123 41.6842 50.3083C42.1372 50.3083 42.5942 50.2642 43.0431 50.184C43.925 50.0277 44.7788 49.7271 45.5645 49.2983C46.1498 48.9777 46.8112 48.569 47.4365 48.7934C47.8734 48.9497 48.1581 49.3945 48.2302 49.8514C48.3024 50.3083 48.1941 50.7771 48.0378 51.21C47.4285 52.9092 45.9814 54.3599 44.2056 54.6845C42.4298 55.0092 40.4175 54.0073 39.8563 52.292V52.296Z" fill="#001A52"/>
<path d="M40.4335 52.1397C40.3293 51.7991 40.2732 51.2019 40.626 50.9775C40.8865 50.8132 41.3275 50.9134 41.6121 50.9134C42.0169 50.9174 42.4178 50.8814 42.8186 50.8252C43.6164 50.717 44.382 50.4966 45.1236 50.18C45.4643 50.0317 45.789 49.8594 46.1177 49.6831C46.4023 49.5268 46.7951 49.2783 47.1359 49.3424C47.8895 49.4827 47.6169 50.5928 47.4525 51.0617C47.2521 51.6228 46.9354 52.1638 46.5466 52.6166C45.7609 53.5264 44.6465 54.1916 43.4119 54.1556C42.1773 54.1195 40.8544 53.3661 40.4295 52.1437C40.177 51.4184 39.0145 51.731 39.2711 52.4644C39.8082 53.9993 41.2072 55.0573 42.8026 55.2977C44.4862 55.5502 46.1377 54.8368 47.2762 53.6025C48.3465 52.4363 49.6011 50.1319 48.3184 48.7052C47.6209 47.9318 46.6148 48.088 45.773 48.5088C44.8189 48.9817 43.941 49.4266 42.8788 49.6149C42.3376 49.7111 41.8005 49.7191 41.2553 49.7071C40.7101 49.6951 40.1529 49.7672 39.7441 50.156C39.1348 50.7331 39.0426 51.6989 39.2751 52.4683C39.5076 53.2378 40.658 52.8932 40.4335 52.1477V52.1397Z" fill="#001A52"/>
<path d="M40.9548 52.0034C43.1234 51.9914 45.26 51.4304 47.16 50.3844C47.8375 50.0117 47.2322 48.9737 46.5547 49.3464C44.8391 50.2922 42.915 50.7891 40.9588 50.8012C40.1851 50.8052 40.1851 52.0075 40.9588 52.0034H40.9548Z" fill="white"/>
<path d="M65.1545 39.3675C65.1224 39.2673 65.0984 39.1711 65.0783 39.0709C65.0703 39.0269 65.0583 38.9467 65.0703 39.0389C65.0623 38.9828 65.0583 38.9267 65.0543 38.8706C65.0503 38.7784 65.0503 38.6822 65.0543 38.59C65.0543 38.5419 65.0623 38.4979 65.0663 38.4498C65.0663 38.3816 65.0503 38.5259 65.0703 38.4137C65.0903 38.3135 65.1104 38.2133 65.1384 38.1131C65.1505 38.069 65.1665 38.025 65.1785 37.9809C65.1785 37.9729 65.2467 37.8045 65.1986 37.9168C65.2346 37.8326 65.2787 37.7484 65.3228 37.6683C65.3509 37.6202 65.379 37.5721 65.411 37.524C65.419 37.512 65.5032 37.3918 65.4591 37.4479C65.419 37.504 65.5152 37.3797 65.5112 37.3837C65.5393 37.3517 65.5714 37.3156 65.6034 37.2836C65.6716 37.2114 65.7437 37.1473 65.8199 37.0832C65.9041 37.011 65.7918 37.0992 65.848 37.0631C65.884 37.0391 65.9201 37.011 65.9602 36.987C66.0444 36.9349 66.1286 36.8828 66.2168 36.8387C66.2568 36.8187 66.2969 36.7986 66.337 36.7786C66.2248 36.8347 66.3771 36.7626 66.3931 36.7586C66.4773 36.7265 66.5615 36.7025 66.6497 36.6784C66.7379 36.6544 66.826 36.6383 66.9142 36.6263C66.7779 36.6463 66.9503 36.6263 66.9664 36.6263C67.0185 36.6263 67.0746 36.6223 67.1267 36.6223C67.4394 36.6223 67.744 36.3498 67.728 36.0212C67.7119 35.6925 67.4634 35.416 67.1267 35.42C66.1045 35.432 65.1425 35.913 64.5171 36.7225C63.8918 37.532 63.6833 38.6942 63.996 39.6921C64.0882 39.9927 64.4209 40.2131 64.7376 40.1129C65.0543 40.0127 65.2587 39.6961 65.1585 39.3715L65.1545 39.3675Z" fill="#001A52"/>
<path d="M62.7573 36.6904C62.9778 36.2015 63.1822 35.7006 63.4829 35.2878C63.9038 34.7107 64.2084 33.9973 64.8258 33.6006C65.391 33.2399 66.1205 33.0836 66.7819 33.0155C67.1788 32.9754 67.6478 32.9554 68.0366 33.0596C68.4255 33.1638 68.7782 33.4323 69.2151 33.3842C69.5398 33.3481 69.644 32.9193 69.7803 32.6388C70.113 31.9695 70.4097 31.2802 70.6742 30.5829C71.2034 29.1842 71.5962 27.7335 71.8488 26.2587C72.446 22.764 72.2616 19.1332 71.2515 15.7307C70.6582 13.7309 69.7483 11.7472 68.1729 10.3726C66.5975 8.99795 64.2525 8.36875 62.3605 9.25043C60.1157 4.79398 55.7864 1.43962 50.908 0.373603C46.0296 -0.692418 40.6982 0.557954 36.7979 3.67586C36.0282 4.28903 35.2666 4.99837 34.3005 5.19073C33.567 5.33902 32.8094 5.16669 32.0678 5.05848C28.3077 4.49742 24.1469 5.71974 21.8379 8.74147C19.529 11.7632 19.6653 16.6124 22.5955 19.033C20.8759 19.1973 19.4969 20.7963 19.3085 22.5156C19.1201 24.2348 19.9739 25.9581 21.2647 27.1043C22.5555 28.2504 24.2351 28.8877 25.9307 29.2203C26.6242 29.3565 27.4619 29.3966 27.9029 28.8476C28.1514 28.539 28.2035 28.1182 28.2436 27.7254C28.412 26.0863 28.5803 24.4472 28.7487 22.8081C36.7738 24.7759 45.4885 23.814 52.8923 20.1431C51.838 21.9345 51.85 24.2589 52.784 26.0984C53.718 27.9378 55.1611 29.6892 57.0411 30.7071C57.3538 30.8754 57.919 30.9636 58.1555 31.2321C58.6486 31.8012 58.4281 33.1036 58.4802 33.7889C58.5604 34.8309 58.7167 35.8649 58.9492 36.8868C59.0695 37.4078 59.2298 37.9608 59.6387 38.3055C60.0997 38.6942 60.7972 38.7143 61.3423 38.4538C62.0799 38.1011 62.4326 37.4078 62.7573 36.6864V36.6904Z" fill="#001A52"/>
</svg>
