<svg width="308" height="388" viewBox="0 0 308 388" fill="none" xmlns="http://www.w3.org/2000/svg">
<path d="M145.505 182.113C136.099 186.318 124.729 184.474 115.578 189.2C106.85 193.707 102.027 203.144 97.7555 211.99C96.9537 213.651 95.7424 216.421 96.9229 218.21C98.0267 219.884 101.483 220.167 103.237 220.666C108.979 222.3 114.749 223.842 120.515 225.382C130.511 228.052 140.51 230.724 150.507 233.39C158.904 235.631 167.3 237.873 175.697 240.114C179.96 241.257 184.225 242.391 188.493 243.531C190.831 244.157 195.224 246.21 197.285 244.094C198.431 242.916 198.726 241.178 198.967 239.55C199.912 233.173 200.864 226.71 200.149 220.304C199.406 213.645 196.635 207.413 191.568 202.936C185.307 197.403 178.072 192.652 171.321 187.74C169.994 191.33 166.817 194.001 163.297 195.493C159.776 196.985 155.906 197.442 152.093 197.719C149.812 197.883 146.333 198.167 144.799 196.133C143.233 194.063 142.516 191.858 142.866 189.238C143.215 186.619 144.365 184.338 145.505 182.038" fill="#001A52"/>
<path d="M145.206 181.588C138.519 184.551 131.019 184.463 123.949 185.834C120.451 186.514 117.003 187.582 113.935 189.428C110.868 191.274 108.19 193.834 105.96 196.672C103.731 199.51 101.823 202.695 100.119 205.927C99.2652 207.549 98.451 209.193 97.6523 210.842C96.9643 212.264 96.2136 213.718 95.9461 215.289C95.6786 216.86 95.9191 218.348 97.1843 219.326C98.4494 220.304 100.107 220.59 101.612 220.907C103.533 221.309 105.412 221.904 107.304 222.432C109.541 223.052 111.78 223.66 114.025 224.266C123.102 226.71 132.184 229.119 141.266 231.544C150.32 233.962 159.379 236.381 168.434 238.799C172.906 239.997 177.376 241.187 181.849 242.381C184.041 242.968 186.244 243.53 188.429 244.14C189.727 244.5 190.988 244.996 192.3 245.306C193.611 245.616 195.106 245.846 196.407 245.357C198.069 244.731 198.871 243.038 199.25 241.405C199.727 239.347 199.935 237.195 200.214 235.1C200.493 233.005 200.747 230.803 200.886 228.642C201.373 221.03 200.349 213.192 195.846 206.824C193.574 203.61 190.512 201.146 187.441 198.73C183.968 196.003 180.365 193.449 176.763 190.895C175.047 189.68 173.332 188.461 171.629 187.225C171.281 186.974 170.868 187.261 170.743 187.589C168.611 193.237 162.478 195.73 156.952 196.606C155.431 196.846 153.89 196.989 152.353 197.104C151.083 197.199 149.806 197.301 148.532 197.192C147.359 197.093 146.088 196.773 145.309 195.826C144.529 194.879 143.902 193.628 143.596 192.397C142.737 188.897 144.509 185.397 146.02 182.346C146.363 181.654 145.327 181.044 144.984 181.736C143.479 184.781 141.802 188.144 142.246 191.645C142.578 194.261 144.047 197.268 146.73 198.078C148.09 198.488 149.561 198.48 150.963 198.403C152.518 198.318 154.076 198.188 155.621 197.996C158.912 197.592 162.224 196.865 165.159 195.266C168.094 193.667 170.683 191.128 171.9 187.903L171.014 188.267C177.867 193.248 185.079 197.865 191.369 203.571C196.687 208.394 199.297 215.288 199.717 222.35C199.969 226.566 199.578 230.797 199.019 234.975C198.741 237.033 198.545 239.158 198.062 241.178C197.707 242.672 196.973 244.172 195.307 244.398C193.982 244.574 192.604 244.184 191.35 243.802C189.937 243.374 188.542 242.93 187.117 242.548C182.753 241.379 178.387 240.217 174.023 239.052C165.235 236.705 156.447 234.359 147.66 232.013C138.857 229.662 130.054 227.312 121.247 224.96C116.825 223.775 112.401 222.598 107.985 221.378C106.092 220.854 104.207 220.237 102.284 219.825C100.866 219.524 99.2546 219.312 98.0309 218.474C96.8072 217.636 96.9254 216.033 97.2912 214.745C97.7231 213.226 98.4965 211.811 99.1901 210.4C100.773 207.173 102.427 203.973 104.377 200.952C106.28 198.002 108.477 195.226 111.142 192.928C113.803 190.633 116.896 188.989 120.256 187.972C126.995 185.928 134.16 186.076 140.962 184.31C142.617 183.878 144.239 183.325 145.802 182.632C146.508 182.319 145.902 181.281 145.201 181.591L145.206 181.588Z" fill="#001A52"/>
<path d="M147.181 176.898C146.649 176.946 146.74 177.552 146.657 178.002C146.549 178.592 146.429 179.178 146.298 179.761C146.039 180.928 145.736 182.087 145.4 183.234C144.731 185.498 143.903 187.72 142.932 189.874C142.339 191.188 141.682 192.68 142.243 194.009C142.571 194.785 143.267 195.345 143.985 195.795C147.367 197.917 151.58 198.27 155.563 197.964C158.647 197.728 161.744 197.122 164.515 195.749C166.476 194.781 168.27 193.411 169.612 191.671C171.086 189.763 170.394 187.499 170.463 185.182C170.607 180.445 171.566 175.736 173.292 171.323C173.704 170.268 174.058 168.699 175.102 168.132C176.078 167.601 177.398 167.602 178.437 167.038C180.652 165.835 182.405 163.753 183.086 161.318C183.382 160.261 183.479 159.079 182.987 158.097C182.329 156.788 180.722 156.141 179.267 156.303C178.288 156.41 177.44 156.835 176.617 157.352C175.704 157.925 175.642 158.203 174.829 157.363C174.215 156.73 173.797 155.78 173.56 154.944C173.487 154.688 173.381 152.639 173.331 152.609C171.346 151.422 169.898 149.374 169.435 147.105C168.973 144.836 169.509 142.387 170.872 140.52C162.653 142.649 153.567 141.186 146.429 136.585C144.39 144.693 142.35 152.814 141.11 161.082C140.65 164.145 140.316 167.346 141.306 170.279C142.68 174.352 146.589 177.312 150.823 178.048C155.058 178.785 159.502 177.47 163.005 174.977" fill="white"/>
<path d="M146.944 176.03C145.86 176.237 145.878 177.316 145.714 178.16C145.486 179.336 145.216 180.5 144.91 181.654C144.31 183.896 143.569 186.104 142.669 188.24C141.932 189.997 140.696 191.976 141.274 193.957C141.851 195.937 144.188 197.082 146.008 197.785C149.991 199.321 154.558 199.176 158.706 198.486C162.854 197.797 166.59 196.259 169.388 193.312C170.122 192.538 170.785 191.707 171.14 190.691C171.496 189.674 171.492 188.652 171.447 187.641C171.354 185.479 171.395 183.361 171.677 181.209C171.974 178.924 172.475 176.664 173.153 174.46C173.479 173.398 173.872 172.366 174.255 171.324C174.505 170.636 174.695 169.865 175.149 169.273C175.602 168.681 176.521 168.583 177.213 168.416C178.176 168.18 179.034 167.8 179.842 167.228C181.494 166.065 182.809 164.488 183.581 162.616C184.303 160.864 184.633 158.687 183.395 157.082C182.244 155.587 180.168 155.093 178.39 155.55C177.455 155.789 176.601 156.278 175.804 156.807C175.779 156.821 175.452 157.036 175.449 157.031C175.428 156.988 175.794 156.999 175.776 157.019C175.717 157.086 175.058 156.2 174.988 156.074C174.767 155.691 174.594 155.284 174.471 154.857C174.457 154.803 174.438 154.736 174.42 154.677C174.376 154.532 174.441 154.861 174.424 154.724C174.407 154.586 174.395 154.446 174.383 154.306C174.338 153.775 174.312 153.237 174.251 152.706C174.195 152.248 174.052 152.023 173.655 151.754C173.3 151.514 172.957 151.277 172.641 150.985C171.988 150.387 171.451 149.695 171.034 148.915C170.156 147.282 169.953 145.36 170.415 143.572C170.66 142.629 171.08 141.775 171.645 140.98C172.123 140.312 171.34 139.471 170.627 139.654C164.385 141.251 157.712 140.74 151.739 138.343C150.042 137.66 148.414 136.797 146.878 135.809C146.385 135.494 145.689 135.801 145.549 136.353C144.418 140.854 143.286 145.356 142.288 149.888C141.323 154.277 140.411 158.721 139.919 163.19C139.7 165.168 139.66 167.174 140.056 169.135C140.427 170.973 141.251 172.654 142.414 174.119C144.648 176.933 148.056 178.651 151.599 179.057C155.77 179.536 160.052 178.144 163.449 175.751C163.847 175.472 164.037 174.967 163.779 174.52C163.552 174.128 162.947 173.908 162.547 174.191C159.712 176.19 156.33 177.429 152.834 177.343C149.581 177.263 146.424 175.882 144.224 173.467C143.124 172.26 142.333 170.815 141.931 169.231C141.479 167.45 141.5 165.589 141.668 163.771C142.055 159.555 142.956 155.353 143.847 151.223C144.888 146.395 146.092 141.606 147.297 136.817L145.968 137.361C151.688 141.026 158.616 142.771 165.392 142.309C167.32 142.178 169.236 141.87 171.107 141.392L170.089 140.066C168.533 142.25 167.986 145.111 168.645 147.715C169.242 150.074 170.8 152.126 172.868 153.39L172.545 153.063C172.545 153.063 172.416 152.787 172.474 152.911C172.474 152.911 172.452 152.698 172.457 152.803C172.464 152.887 172.474 152.973 172.48 153.058C172.504 153.325 172.52 153.591 172.545 153.855C172.577 154.291 172.586 154.754 172.688 155.179C172.872 155.947 173.236 156.741 173.691 157.382C174.104 157.961 174.685 158.66 175.432 158.769C176.099 158.865 176.605 158.416 177.134 158.084C177.767 157.69 178.437 157.342 179.18 157.218C180.383 157.017 181.868 157.531 182.293 158.765C182.762 160.144 182.09 161.815 181.391 162.997C180.595 164.343 179.43 165.467 178.06 166.215C176.689 166.964 175.059 166.727 173.974 167.88C172.964 168.953 172.581 170.631 172.086 171.983C170.786 175.552 169.991 179.293 169.683 183.073C169.606 184.011 169.545 184.953 169.563 185.891C169.583 186.759 169.675 187.626 169.666 188.495C169.658 189.285 169.546 190.073 169.138 190.76C168.73 191.447 168.159 192.012 167.598 192.542C165.172 194.83 161.981 196.049 158.741 196.65C155.344 197.279 151.651 197.447 148.276 196.6C146.708 196.209 144.95 195.585 143.73 194.486C143.181 193.995 142.887 193.418 142.942 192.669C142.998 191.921 143.298 191.25 143.588 190.602C145.166 187.05 146.443 183.401 147.26 179.591C147.362 179.117 147.468 178.643 147.543 178.165C147.57 178.002 147.626 177.793 147.608 177.627C147.579 177.378 147.748 177.693 147.424 177.756C147.901 177.664 148.179 177.091 148.057 176.647C147.922 176.147 147.429 175.923 146.949 176.014L146.944 176.03Z" fill="#001A52"/>
<path d="M152.562 152.106C152.393 154.363 151.624 156.427 150.451 158.345C149.956 159.154 149.474 160.054 149.596 161.037C149.704 161.92 150.224 162.69 151.101 162.95C151.843 163.17 152.154 162.008 151.412 161.789C150.609 161.549 150.727 160.472 150.981 159.881C151.33 159.057 151.905 158.336 152.299 157.533C153.141 155.829 153.625 153.993 153.772 152.098C153.828 151.329 152.626 151.339 152.57 152.108L152.562 152.106Z" fill="#001A52"/>
<path d="M147.724 153.855C148.429 154.044 149.155 153.625 149.344 152.92C149.533 152.214 149.114 151.489 148.408 151.3C147.702 151.111 146.977 151.53 146.788 152.235C146.599 152.941 147.018 153.666 147.724 153.855Z" fill="#001A52" stroke="#001A52" stroke-width="0.91" stroke-miterlimit="10"/>
<path d="M160.982 156.785C161.758 156.993 162.556 156.533 162.764 155.757C162.972 154.981 162.511 154.183 161.735 153.975C160.959 153.767 160.161 154.227 159.953 155.003C159.745 155.779 160.206 156.577 160.982 156.785Z" fill="#001A52" stroke="#001A52" stroke-miterlimit="10"/>
<path d="M158.86 149.109C159.234 149.446 159.95 149.484 160.396 149.554C162.458 149.866 164.5 150.409 166.436 151.16C166.303 150.386 165.554 149.679 164.661 149.232C163.841 148.826 162.949 148.637 162.051 148.475C161.152 148.313 160.304 148.148 159.409 148.066C159.191 148.044 158.944 148.036 158.776 148.182C158.646 148.297 158.6 148.484 158.62 148.655C158.643 148.848 158.729 148.991 158.857 149.104L158.86 149.109Z" fill="#001A52"/>
<path d="M158.651 149.315C159.079 149.654 159.584 149.735 160.117 149.807C160.798 149.898 161.47 150.024 162.14 150.171C163.579 150.486 164.987 150.913 166.361 151.439C166.583 151.523 166.758 151.275 166.719 151.078C166.321 149.171 163.914 148.522 162.289 148.219C161.748 148.12 161.206 148.02 160.665 147.933C160.187 147.859 159.672 147.75 159.191 147.763C158.326 147.788 158.096 148.739 158.656 149.312C158.92 149.582 159.333 149.17 159.073 148.901C158.881 148.704 158.882 148.406 159.196 148.349C159.336 148.324 159.515 148.368 159.657 148.381C160.072 148.426 160.49 148.492 160.903 148.562C161.633 148.687 162.365 148.804 163.086 148.98C164.257 149.269 165.881 149.887 166.163 151.232L166.521 150.872C165.249 150.386 163.942 149.982 162.613 149.675C161.96 149.525 161.302 149.395 160.641 149.292C160.143 149.213 159.488 149.228 159.078 148.898C158.787 148.667 158.371 149.074 158.661 149.309L158.651 149.315Z" fill="#001A52"/>
<path d="M151.368 147.409C151.336 147.45 151.293 147.488 151.239 147.519C151.14 147.576 151.016 147.592 150.897 147.602C150.434 147.64 149.969 147.548 149.517 147.44C149.119 147.346 148.691 147.285 148.286 147.218C147.409 147.066 146.505 146.973 145.638 147.11C145.564 147.123 145.284 147.177 145.232 147.092C145.194 147.032 145.359 146.882 145.399 146.838C145.546 146.679 145.725 146.536 145.923 146.419C146.321 146.185 146.795 146.043 147.285 145.983C147.837 145.919 148.403 145.959 148.962 146.042C149.241 146.084 149.52 146.142 149.798 146.204C150.076 146.266 150.36 146.276 150.636 146.346C150.869 146.404 151.1 146.503 151.261 146.662C151.451 146.85 151.529 147.195 151.369 147.405L151.368 147.409Z" fill="#001A52"/>
<path d="M151.175 147.216C151.002 147.398 150.642 147.347 150.415 147.328C150.135 147.303 149.861 147.242 149.587 147.181C149.074 147.064 148.556 146.983 148.037 146.907C147.555 146.831 147.067 146.779 146.583 146.774C146.335 146.77 146.091 146.783 145.843 146.812C145.735 146.825 145.631 146.843 145.528 146.856C145.429 146.867 145.326 146.819 145.424 146.903L145.501 147.094C145.47 147.165 145.477 147.171 145.519 147.107C145.541 147.084 145.565 147.057 145.588 147.034C145.681 146.935 145.78 146.845 145.893 146.763C146.107 146.613 146.346 146.499 146.596 146.417C147.124 146.243 147.681 146.209 148.236 146.242C148.792 146.275 149.367 146.421 149.935 146.515C150.238 146.563 151.49 146.691 151.134 147.276C150.95 147.575 151.424 147.851 151.608 147.552C151.842 147.175 151.713 146.696 151.386 146.414C150.973 146.063 150.427 146.057 149.922 145.959C148.838 145.748 147.728 145.537 146.64 145.835C146.165 145.965 145.708 146.183 145.342 146.512C145.138 146.698 144.749 147.083 145.097 147.334C145.229 147.428 145.399 147.415 145.553 147.398C145.811 147.364 146.064 147.332 146.324 147.323C146.889 147.304 147.451 147.359 148.004 147.449C148.664 147.556 149.313 147.705 149.973 147.815C150.469 147.898 151.178 148.01 151.561 147.602C151.804 147.347 151.418 146.958 151.176 147.212L151.175 147.216Z" fill="#001A52"/>
<path d="M149.789 168.2C149.755 167.556 150.087 166.641 150.816 166.521C151.242 166.448 151.666 166.649 152.07 166.753C152.507 166.87 152.96 166.946 153.414 166.985C154.307 167.062 155.209 166.992 156.079 166.782C156.727 166.623 157.472 166.4 158.018 166.778C158.4 167.042 158.559 167.546 158.511 168.006C158.462 168.466 158.236 168.891 157.973 169.268C156.945 170.752 155.172 171.779 153.372 171.633C151.573 171.486 149.889 169.998 149.79 168.196L149.789 168.2Z" fill="#001A52"/>
<path d="M150.387 168.198C150.375 167.842 150.475 167.251 150.874 167.125C151.168 167.034 151.568 167.245 151.843 167.319C152.233 167.427 152.63 167.496 153.032 167.546C153.83 167.648 154.627 167.633 155.425 167.519C155.792 167.464 156.151 167.382 156.514 167.296C156.829 167.219 157.273 167.081 157.585 167.231C158.277 167.561 157.726 168.563 157.446 168.973C157.108 169.464 156.662 169.904 156.169 170.241C155.174 170.916 153.926 171.271 152.743 170.916C151.559 170.562 150.477 169.492 150.383 168.201C150.326 167.435 149.123 167.436 149.181 168.211C149.302 169.832 150.38 171.216 151.858 171.862C153.419 172.541 155.199 172.28 156.618 171.382C157.954 170.533 159.762 168.632 158.893 166.921C158.419 165.994 157.407 165.884 156.485 166.073C155.441 166.283 154.478 166.485 153.403 166.392C152.855 166.345 152.334 166.214 151.811 166.061C151.287 165.908 150.73 165.834 150.235 166.104C149.497 166.503 149.158 167.412 149.183 168.216C149.209 169.019 150.409 168.984 150.385 168.206L150.387 168.198Z" fill="#001A52"/>
<path d="M150.926 168.201C153.024 168.751 155.233 168.762 157.339 168.244C158.09 168.059 157.774 166.9 157.023 167.084C155.121 167.554 153.134 167.536 151.241 167.041C150.493 166.845 150.182 168.006 150.93 168.202L150.926 168.201Z" fill="white"/>
<path d="M177.572 162.259C177.567 162.154 177.568 162.055 177.575 161.953C177.579 161.909 177.588 161.828 177.575 161.92C177.582 161.864 177.593 161.809 177.604 161.753C177.624 161.663 177.648 161.57 177.676 161.482C177.689 161.436 177.708 161.395 177.724 161.35C177.742 161.284 177.689 161.419 177.737 161.316C177.783 161.225 177.828 161.133 177.881 161.044C177.904 161.004 177.931 160.966 177.954 160.926C177.956 160.918 178.065 160.774 177.99 160.869C178.046 160.797 178.111 160.728 178.174 160.662C178.214 160.622 178.253 160.583 178.297 160.545C178.308 160.536 178.42 160.441 178.363 160.484C178.31 160.528 178.435 160.433 178.43 160.436C178.465 160.412 178.506 160.385 178.545 160.363C178.629 160.311 178.716 160.267 178.806 160.225C178.906 160.177 178.774 160.233 178.838 160.213C178.879 160.199 178.921 160.181 178.966 160.168C179.061 160.14 179.156 160.111 179.252 160.092C179.296 160.083 179.34 160.074 179.384 160.065C179.261 160.09 179.427 160.06 179.443 160.06C179.533 160.051 179.621 160.049 179.712 160.049C179.803 160.048 179.893 160.056 179.981 160.067C179.844 160.051 180.016 160.076 180.031 160.081C180.082 160.094 180.137 160.105 180.187 160.118C180.489 160.199 180.854 160.015 180.924 159.693C180.993 159.372 180.825 159.04 180.498 158.957C179.508 158.704 178.454 158.919 177.641 159.54C176.827 160.16 176.325 161.228 176.369 162.273C176.38 162.587 176.644 162.886 176.976 162.871C177.308 162.857 177.587 162.604 177.575 162.264L177.572 162.259Z" fill="#001A52"/>
<path d="M175.949 159.053C176.289 158.638 176.616 158.207 177.013 157.886C177.569 157.438 178.048 156.827 178.747 156.604C179.386 156.402 180.131 156.44 180.788 156.545C181.181 156.609 181.64 156.711 181.988 156.912C182.337 157.114 182.608 157.464 183.043 157.531C183.366 157.58 183.577 157.193 183.782 156.957C184.276 156.397 184.741 155.808 185.177 155.203C186.05 153.989 186.805 152.689 187.431 151.33C188.912 148.109 189.674 144.554 189.579 141.006C189.523 138.921 189.158 136.769 187.992 135.034C186.826 133.298 184.724 132.083 182.668 132.445C181.653 127.56 178.339 123.199 173.903 120.907C169.467 118.615 163.993 118.442 159.419 120.445C158.517 120.838 157.598 121.326 156.615 121.262C155.868 121.215 155.181 120.852 154.492 120.556C151.006 119.041 146.67 119.145 143.658 121.466C140.645 123.787 139.522 128.506 141.726 131.603C140.022 131.316 138.277 132.504 137.65 134.116C137.023 135.728 137.401 137.613 138.351 139.054C139.302 140.496 140.759 141.546 142.311 142.306C142.945 142.617 143.744 142.873 144.312 142.456C144.632 142.223 144.791 141.83 144.932 141.461C145.519 139.921 146.105 138.381 146.692 136.842C153.935 140.819 162.601 142.146 170.703 140.516C169.221 141.974 168.631 144.222 169.057 146.241C169.483 148.259 170.424 150.324 171.976 151.794C172.235 152.038 172.758 152.269 172.917 152.59C173.246 153.267 172.696 154.468 172.569 155.143C172.376 156.171 172.26 157.21 172.22 158.257C172.201 158.792 172.213 159.367 172.519 159.806C172.863 160.301 173.532 160.501 174.126 160.39C174.93 160.24 175.45 159.662 175.95 159.049L175.949 159.053Z" fill="#001A52"/>
</svg>
